/* XPM */
static char *_df55d60c4b244a6b5dea4686847a6benxOB27k4GlN3v6MM[] = {
/* columns rows colors chars-per-pixel */
"60 60 7 1 ",
"  c None",
". c black",
"X c #464646",
"o c #6B696B",
"O c #980030",
"+ c #990030",
"@ c #9C5A3C",
/* pixels */
"++++....................................................++++",
"++..................................................... .+++",
"+. ...................................................+...+.",
"+.......................................................+++.",
" .++...................................................... .",
"............................................................",
"............................................................",
"............................................................",
"............................................................",
"............................................................",
"............................................................",
"............................................................",
"............................................................",
"............................................................",
"............................................................",
"............................................................",
"............................................................",
"............................................................",
"............................................................",
"............................................................",
"............................................................",
"............................................................",
"............................................................",
"............................................................",
"............................................................",
"............................................................",
"............................................................",
"............................................................",
"...................@@@@@@@XXXXXXXXXXXXXXX...................",
"...................@@.@.@@XXXXXXXXXXXXXXX...................",
"...................@@@@@@@XXXXXXXXXXXXXXX...................",
"..........................XXXXXXXXXXXXXXX...................",
"..........................ooooooooooooooo...................",
"............................................................",
"............................................................",
"............................................................",
"............................................................",
"............................................................",
"............................................................",
"............................................................",
"............................................................",
"............................................................",
"............................................................",
"............................................................",
"............................................................",
"............................................................",
"............................................................",
"............................................................",
"............................................................",
"............................................................",
"............................................................",
"............................................................",
"............................................................",
".......................................................... .",
"........................................................ ...",
".. ....................................................  .+.",
"........................................................+...",
".+. ...................................................+..+.",
"+ +......................................................+++",
"+++.....................................................++++"
};
