/* XPM */
static char *result[] = {
/* columns rows colors chars-per-pixel */
"91 60 206 2 ",
"   c #010101",
".  c #070809",
"X  c #0B0C0E",
"o  c #0C0A07",
"O  c #1F1005",
"+  c #0E0F11",
"@  c #151619",
"#  c #141517",
"$  c #190E0B",
"%  c #280408",
"&  c #271A0E",
"*  c #391B0E",
"=  c #28211F",
"-  c #372715",
";  c #191E24",
":  c #222223",
">  c #3D2D21",
",  c #283039",
"<  c #780914",
"1  c #54321B",
"2  c #622E1A",
"3  c #4C1722",
"4  c #4A3024",
"5  c #7A3B24",
"6  c #764E28",
"7  c #78543C",
"8  c #313944",
"9  c #5A5B5C",
"0  c #565859",
"q  c #454A51",
"w  c #7F6E5F",
"e  c #5B5D64",
"r  c #605E61",
"t  c #6E5E61",
"y  c #636365",
"u  c #6A6B6C",
"i  c #656869",
"p  c #666B77",
"a  c #6F7174",
"s  c #727374",
"d  c #7A7B7B",
"f  c #9C0618",
"g  c #AC031B",
"h  c #A50A1B",
"j  c #B2191E",
"k  c #B21519",
"l  c #B9061D",
"z  c #B5211F",
"x  c #901023",
"c  c #A9172B",
"v  c #BD1323",
"b  c #852938",
"n  c #B82624",
"m  c #B02F32",
"M  c #AB2235",
"N  c #C0061E",
"B  c #D3031E",
"V  c #C90920",
"C  c #D40922",
"Z  c #D90B23",
"A  c #D41D33",
"S  c #CE172E",
"D  c #DB292D",
"F  c #C83F3F",
"G  c #CB2431",
"H  c #E23936",
"J  c #87512B",
"K  c #B9682D",
"L  c #CA7C18",
"P  c #C45025",
"I  c #E44032",
"U  c #CB6C2C",
"Y  c #CE742C",
"T  c #D2772D",
"R  c #CD7731",
"E  c #C87C3D",
"W  c #D77D32",
"Q  c #843844",
"!  c #8B4E58",
"~  c #A64655",
"^  c #92634C",
"/  c #B47D50",
"(  c #B46C4A",
")  c #A85767",
"_  c #BC707C",
"`  c #B2667C",
"'  c #DD6F5B",
"]  c #D17046",
"[  c #CD706A",
"{  c #DA833B",
"}  c #E3893C",
"|  c #A48476",
" . c #BB9573",
".. c #B5957C",
"X. c #B79479",
"o. c #B68E6A",
"O. c #D78847",
"+. c #C8864C",
"@. c #FA9D4E",
"#. c #F59C52",
"$. c #EC944E",
"%. c #FEA352",
"&. c #FEA85B",
"*. c #C59061",
"=. c #C79B78",
"-. c #EEA567",
";. c #F7AA67",
":. c #FEB366",
">. c #FDB86D",
",. c #E3AC7E",
"<. c #7C7F87",
"1. c #6F7684",
"2. c #A87E8C",
"3. c #DC7E8E",
"4. c #7D828D",
"5. c #8C8C8D",
"6. c #848688",
"7. c #998A8B",
"8. c #8D8F95",
"9. c #8D929B",
"0. c #9A9B9B",
"q. c #959799",
"w. c #978995",
"e. c #AC9D90",
"r. c #B6AE9F",
"t. c #A9A098",
"y. c #9A9DA2",
"u. c #9499A8",
"i. c #969EB1",
"p. c #9FA0A2",
"a. c #9DA2B1",
"s. c #9FA7BC",
"d. c #A9AAAC",
"f. c #A2A2A3",
"g. c #B5A5A3",
"h. c #BCAFA3",
"j. c #A6AAB3",
"k. c #A8A7BB",
"l. c #AEB3BB",
"z. c #AFB0B0",
"x. c #B3B4B4",
"c. c #BABBBC",
"v. c #B8B7BA",
"b. c #BEB1A7",
"n. c #DE909F",
"m. c #DB8392",
"M. c #C4A388",
"N. c #D3AD8E",
"B. c #E4AE80",
"V. c #EDB788",
"C. c #F2BC8F",
"Z. c #F3BE90",
"A. c #D89AA4",
"S. c #C6B2A3",
"D. c #C7BDB8",
"F. c #D1AAB0",
"G. c #E3B4BB",
"H. c #FCCF8E",
"J. c #FFD68D",
"K. c #EEC19A",
"L. c #CAC2BD",
"P. c #E9C7A9",
"I. c #F4CAA5",
"U. c #F9E4AC",
"Y. c #ABB6CC",
"T. c #ABB6C9",
"R. c #B5BAC4",
"E. c #ACB8D1",
"W. c #A5AFC3",
"Q. c #C5BEC2",
"!. c #BFC1C7",
"~. c #BEC4CE",
"^. c #BEC7D9",
"/. c #BCC5D7",
"(. c #C4C3C2",
"). c #C2C5CA",
"_. c #CBCCCD",
"`. c #CBC3C3",
"'. c #D3C7C8",
"]. c #DCD8CF",
"[. c #CBCED1",
"{. c #C5CCDA",
"}. c #CFD0D4",
"|. c #D5D5D5",
" X c #D2D5DB",
".X c #D7D8DA",
"XX c #DCDCDC",
"oX c #DAD6D4",
"OX c #E1D7D7",
"+X c #EBE2DA",
"@X c #D7DAE3",
"#X c #DBDEE2",
"$X c #DBDEE9",
"%X c #E1DFE1",
"&X c #DFE0E1",
"*X c #DDE2EC",
"=X c #E4E4E4",
"-X c #E5E6E9",
";X c #E6EAED",
":X c #EBEBEB",
">X c #F1EBE7",
",X c #E8EBF1",
"<X c #EEF1F3",
"1X c #F3F3F3",
"2X c #FAFAFA",
"3X c #F5F6F9",
/* pixels */
"2X-X|.3X<X}.2X1X}.1X1X}.1X1X}.>X2X}.:X2X|.=X2X}.=X2X.X+X2X.X&X2X.XXX2XXX.X2X+X|.2X=X|.2X=X|.2X:X}.2X:X}.3X<X}.1X1X_.<X1X}.:X2X}.:X2X}.:X2X}.=X2X.X&X2X.X&X2X.X&X2X&XoX2X=X.X2X=X.X2X:X",
":X:X=X:X=X=X=X=X>X=X=X=X=X:X=X:X=X:X:X=X=X:X:X=X>X=X=X-X:X=X=X:X=X:X:X=X:X:X;X=X:X=X=X:X:X=X:X=X=X:X:X+X=X:X=X:X:X=X=X>X=X:X>X=X=X:X=X:X:X=X=X:X=X:X=X:X=X;X:X=X=X:X=X:X=X:X:X=X=X:X=X",
"|.-X2XoX=X3X.X+X2XXXXX2X&XXX2X+X.X2X+XXX2X=X.X2X:X.X3X:X|.1X:X|.1X<X|.<X1X|.:X3X.X:X3X].=X2X.X=X2XXX=X3X.X+X2XXXXX2X&XXX3X+XXX2X=X.X2X=X].3X:X].1X:X.X1X:X|.<X1X|.:X1X|.:X1X|.:X3XoX=X",
"2X;XoX1X:X.X1X<X|.1X:XXX:X<X.X;X<X|.:X1X.X=X1XXX=X3X.X=X3X#X+X2XXX+X3X&XXX3X=X.X2X=X.X1X=XXX1X:X|.1X:X|.1X:X.X<X1X|.:X1X.X:X1X|.:X1X|.:X3X.X=X1XXX=X3XXX+X2XXX&X2X&XXX2X=XXX3X=X.X1X:X",
":X=X=X:X;X=X:X=X=X:X:X=X:X:X=X:X:X=X=X:X=X:X:X=X=X:X=X-X:X=X=X:X=X=X:X=X=X:X=X=X:X=X=X:X:X=X:X=X=X:X:X=X:X=X=X:X:X=X=X:X=X:X:X&X:X:X+X;X:X=X:X:X=X:X:X=X=X:X=X=X:X=X=X:X=X=X:X=X+X;X=X",
"|.=X2XoX=X2X.X&X2XXXXX2XXXXX2X+X.X2X=X.X2X=X|.2X:X|.2X;X|.1X:X|.1X<X|.<X1X|.:X2X|.:X1X.X=X1XXX=X2X.X=X2XXX&X2X#XXX2X&XXX2X&X.X2X=X.X3X=X|.1X:X|.1X:X|.1X>X|.<X<X].<X1X|.>X3X.X:X2X.X=X",
"3X:XoX1X:XoX1X:XXX:X:X.X:X<X.X:X<X.X:X1XXX=X1X.X=X1XXX=X2XXX=X2X&X&X1X+X&X3X+X#X2X=X.X3X:XXX3X:XXX<X:X.X<X:X|.:X:XXX:X<X.X:X1X.X:X<XXX=X1X.X=X3XXX=X2XXX=X3X&X+X3X+X&X1X=XXX1X=XXX1X:X",
":X=X=X:X=X=X:X:X+X:X:X&X:X:X&X:X:X+X:X:X=X=X:X&X:X:X+X=X:X&X=X:X=X=X:X=X=X:X=X=X:X=X=X;X=X+X:X=X+X:X=X&X:X:X+X:X:X+X:X:X=X:X;X+X:X;X+X:X:X=X=X:X=X=X:X=X=X:X=X=X:X&X=X:X=X=X:X:X=X:X=X",
"}.=X2X|.+X2X.X&X2X#X&X2X&X.X2X+XXX2X=X|.2X=X.X2X:X|.2X:X|.1X<X|.1X<X}.<X1X|.:X1X|.:X2X|.:X2X.X=X2X.X=X2X.X+X2X#X#X2X&XXX2X+X.X2X=X|.2X=X.X3X:X|.3X:X|.1X:X|.1X1X|.<X1X|.:X3X|.:X2X.X=X",
"1X:XXX1X:XXX<X:X.X<X:X.X:X<X.X;X<XXX:X1XXX=X1XXX=X1XXX=X1X#X+X1X&X+X3X+X&X1X=X&X1X=XXX1X=X.X1X=XXX<X:XoX<X<X.X:X:X.X:X<XXX:X<X.X:X1X.X:X1XXX=X3XXX=X1X&X=X1XXX&X1X&X&X1X+X&X1X=X.X1X:X",
"1X=X&X:X;X#X:X:X&X:X:X+X:X:X=X:X:X&X:X:X+X-X:X&X=X:X&X=X:X&X+X:X=X=X:X=X=X:X=X&X:X:X+X:X=X=X:X:X&X:X:X&X:X:X+X:X:X&X:X:X&X:X:X+X:X;X&X:X:X+X=X:X+X&X:X=X=X:X=X=X:X=X=X:X=X=X:X-X+X<X=X",
"}.=X2X.X=X2X.X+X2XXXXX2X&X.X2X&X.X2X+X|.2X-X|.2X:X|.2X:X|.3X1X}.1X<X|.<X1X|.:X2X.X,X2X.X:X2X|.=X2XoX=X2X.X&X2XXX&X2XXXXX2X&X.X2X+X|.2X=X|.2X:X|.2X:X].1X<X|.1X<X|.<X1X|.:X3X|.:X3X|.=X",
"1X=XXX1X:X.X1X:X.X<X:X.X:X<XXX:X1XXX:X<XXX:X<XXX=X1XXX+X<X&X=X1X&X&X1X=X&X1X.Xz.p.0.0.p.p.|.<X:XXX1X:X.X<X:X.X<X:XXX:X>XXX:X<XXX:X:XXX:X1XXX=X1X&X=X<X&X=X1X+X&X1X=XOX1X=X&X<X+XXX<X;X",
"1X>X&X:X:XXX:X:X+X:X:X+X:X:XXX:X:X&X:X:XXX=X<X&X:X<X&X=X<X+X=X<X&X+X<X=X+X=Xp.8 # X .   + 5.&X:X&X:X;X+X:X:X&X:X:X&X:X<X#X:X:XXX:X<X&X=X<X&X=X<X&X=X,X+X=X:X&X=X:X=X=X:X=X&X<X-X+X<X:X",
"}.=X2X].=X2XXX&X2XXX&X2X&X.X2X+X.X2X+X|.2X=X|.2X=X|.3X:X}.1X1X}.3X1X|.,X3X6.+ X , 8 ;     # 6.+X2XoX&X2XXX&X2XXX&X2XXX.X2X+XXX2X&X.X2X=X|.2X:X}.3X:X|.3X<X}.1X<X|.<X1X|.<X3X].:X3X|.=X",
"1X:XXX<X:XXX:X:X#X,X:XXX:X:X#X:X:X#X:X1XXX:X<X+X=X<X&X-X<X&X+X1X&X&X<X+X&X5.    X + .       # d XX<X=X&X:X:X+X:X:X&X:X<X#X:X:XXX:X:X+X=X1XXX:X:X+X=X<X&X=X1X&X&X<X=X+X<X=X&X:X-X&X<X=X",
"1X=XXX1X:X#X:X:XXX:X:XXX:X1X.X:X<XXX:X<XXX:X<XXX=X<XXX=X1X&X=X1X=X=X1X=X=X5.        # 3 < 2 O 0 .X<X:XXX<X:XXX:X:XXX:X<X.X:X<XXX:X:XXX=X1XXX=X1XXX=X1X&X+X<X&X+X<X+X&X1X=X&X1X=X#X<X:X",
"}.=X2X.X+X2X.X&X2XXX&X2XXXXX2X&X.X2X=X.X2X=X].2X:X].2X:X}.1X:X}.1X:X|.:X3Xd         4 ( ' *.- e 1X.X+X2X.X&X2XXX+X2X&XXX2X=XoX2X=X.X2X:X|.2X:X|.2X:X}.1X1X}.1X<X}.1X1X}.:X1X|.:X1X|.+X",
"1X=X+X:X:X&X:X:XXX:X:XXX:X:X+X:X<X+X=X:X+X=X:X&X=X<X&X-X1X+X=X<X=X=X<X=X-X5.        6 >.J.V.4 0 XX:X;X&X:X:X&X:X:X&X:X:X&X;X:X+X=X:X&X:X:X&X=X:X&X=X1X+X=X<X=X=X<X+X=X<X=X+X<X=X+X,X:X",
"1X:XXX<X:XXX<X:XXX1X:XXX:X1X.X:X<XXX:X1X.X:X1XXX=X1X&X=X1XXX&X3X=XXX<X+X=X5.        6 #.O.z % 9 |.<X:X.X<X:XXX:X:XXX:X<XoX:X<XXX>X<XXX=X1XXX:X1XXX=X1X#X=X1X&X&X1X&X&X3X&X&X1X=X#X1X:X",
"}.=X2X|.+X2X.X&X2X#X#X2XXXXX2X&XoX2X=XoX2X-X|.3X:X|.1X;X|.1X<X|.<X<X|.>X3Xd   . .   1 J & $   y <XoX=X2X.X+X2XXX&X2X+X.X2X+X.X2X=X.X2X=X|.2X:X|.2X:X|.1X<X|.1X<X|.<X1X|.<X3X|.:X2X|.=X",
"<X-X+X:X;X&X:X:X+X:X:X&X:X:X&X:X:X&X:X:X&X;X:X+X:X:X+X=X:X=X=X:X=X=X:X-X-X6.: y.d.0 = O X e ; 0 .X:X=X&X:X:X+X:X:X&X;X:X=X;X:X&X:X:X&X:X:X&X=X<X=X=X:X=X=X>X=X&X:X=X=X:X=X+X:X=X&X:X:X",
"1X:XXX<X:XoX<X:XXX:X:XXX:X1X.X:X1X.X:X<X.X;X1XXX=X1XXX=X1X&X+X3X&X&X3X+X&Xq.q ;X3Xl.4.a p a.p d |.1X:XXX<X;X.X<X<X|.:X<XoX:X<X.X:X1X.X:X1XXX-X1XXX=X2XXX=X1X&X+X3X+X&X1X=X&X1X=X#X<X:X",
"}.=X2X.X=X2XXX&X2XXX&X2XXXXX2X&X.X2X=X.X2X=X|.2X:X.X1X:X|.1X:X}.1X:X|.<X3Xe.w y.y./.*X*X{./.W.j.|.|.=X3X.X+X2X#XXX2X&XXX2X=X.X2X&X].2X=X|.2X:X].1X:X|.1X:X|.1X<X}.<X1X|.:X1X|.:X3X|.+X",
">X=X=X:X:X&X:X:X=X:X:X+X:X:X+X:X:X+X;X:X+X:X:X=X=X:X=X=X:X=X=X:X-X=X:X=X=XP.O.- o 4.^.*X<X;X*Xl.y..X-X+X:X:X+X:X:X=X:X:X=X:X:X+X=X:X=X:X:X+X=X:X=X*X:X=X=X:X-X+X:X=X=X:X=X&X:X:X=X:X:X",
"2X:X.X1X:X.X<X:X.X:X:X.X:X<X.X:X1X.X:X1X|.:X1X.X=X2X#X=X3X.X=X2XOXXX1X&XXXI.@.+.& 1.E.^.$X*X/.a.9.#X:XXX<X:X|.1X:X.X:X1X|.:X<X.X:X1XXX=X<XXX=X3XXX+X3XXX&X3X&X&X2X&XXX2X+X#X2X&XXX1X=X",
"}.=X2X].=X2XXXXX2X.X#X2X#X.X2X+X.X2X&X.X2X=XXX1X:X|.1X:X|.3X:X|.1X1X|.<XI.&.O.- . # p T.a.a.u.9.c.}.=X3X.X&X2X&X+X2X&X.X2X=X.X2X=X.X2X-X.X3X:X|.3X:X|.1X<X|.1X<X|.:X1X|.:X1X|.:X3X.X=X",
":X:X=X-X=X+X:X:X=X:X:X=X:X:X&X:X:X=X:X=X=X=X:X=X=X:X=X:X:X=X:X:X;X=X:X&XV.%.O.0 u r 4.T.s.s.u.u..X=X:X=X=X:X=X=X;X=X=X:X=X=X:X=X=X:X=X=X:X=X=X:X=X:X:X>X=X=X=X-X:X=X=X:X=X=X:X-X=X:X=X",
"2X:X|.1X:X|.1X<X.X<X1X|.:X1X|.:X1X|.:X1X.X=X1XXX=X2X.X=X2X.X&X2XXX&X2XP.-.$...!.<X#X~.^.E.T.7.5.}.3X:X.X1X:X.X1X<X.X>X1X.X:X1X.X:X1X].:X3X.X+X2XXX+X3XXX+X3X&XXX2X&XXX3X=XXX2X=XXX1X:X",
"}.=X1XXX+X2X.X&X2XXXXX2X+XXX2X&XXX2X=XoX2X=XXX3X:X|.3X;X.X1X:X|.<X<X[.-.$. .(.G.A.oX}.x.r.8.^ | :X.X+X2X#X+X2XXXXX2X&XXX2X&XoX2X=XXX3X-X|.3X;X|.1X:X.X1X:X|.1X<X|.<X1X|.:X1X|.:X1X.X=X",
"=X=X:X:X:X=X:X:X=X=X:X=X-X=X:X:X=X:X=X:X=X:X=X=X=X=X:X=X:X=X=X=X:X=X].;. .L.F.S C n.7.7 { * 5 | &X=X-X=X=X=X=X=X:X=X=X=X:X=X=X:X-X=X:X=X=X:X=X:X:X=X-X=X:X=X=X-X=X=X-X:X:X=X=X:X=X:X=X",
"2X:X|.1X:X|.<X:X|.1X1X|.<X<X|.:X1X|.:X1XXX=X2X.X=X2XXX+X2XXX+X2XXX].U.:.M.n.G C C A G k k f h ) _.3X:X.X1X<XoX1X<X|.<X1X|.:X1X.X:X3X].=X2X.X=X2X.X=X2XXX&X2XXX&X2X+XXX3X+X.X2X=XoX2X:X",
"|.=X1XXX=X3XXX+X2X&X&X3XXX#X2X=XXX1X=XXX2X=X.X1X=XXX3X:X.X<X:X.X<X+X>.&.] A C Z Z C C V g g g c _ }.=X2X&X=X3X&XXX2X+XXX2X=X.X3X+X.X3X:X|.3X:X.X1X:X|.<X:X|.<X<X.X:X1X|.:X1XXX:X1XoX=X",
"=X=X:X=X=X;X&X-X:X=X=X:X=X=X:X=X=X:X:X=X:X=X=X:X=X=X:X=X=X:X:X&X:XOXN. .F B C Z C C V l g g g g m =..X:X=X=X:X=X=X:X=X=X;X=X=X:X:X=X:X=X=X:X-X+X:X:X+X:X:X&X:X=X=X:X:X=X:X=X=X=X:X=X;X",
"2X:X|.2X<X|.<X<X].<X<X|.1X1X|.:X1X|.:X2X|.=X2X.X=X2XoX=X2XXX+X2XXX.X<X}.[ H H Z B V V g g g n n P E L.|.1X,X|.1X<X|.<X1X|.:X1X.X:X3X|.:X2X.X=X2X.X=X2X.X+X2XXXXX2X+X.X2X&XXX2X=X.X2X:X",
"|.:X1XXX=X1XXX+X3XXX&X3X+XXX3X+XXX1X=XXX1X=X.X3X:X.X1X:X|.<X:X.X1X>XoX:XZ.@.#.H D D G j j j P T Y E S.<XXX+X3XXX+X3XXX&X2X=XXX1X=XXX1X=X.X1X:X.X1X:X.X<X<X.X>X<X.X:X<X.X:X1X.X:X1X.X=X",
"+X=X:X=X=X:X=X:X:X=X=X:X=X=X:X=X=X:X:X+X:X=X=X:X:X+X:X;X=X:X=X=X:X;X=X=XC.%.:.H.&.$.W U U U Y Y { $.{ D.&X=X:X=X=X:X=X=X:X=X=X>X=X=X:X=X=X:X:X=X:X:X+X;X:X&X:X:X+X:X:X=X=X:X=X:X:X+X=X",
"2X;X.X3X:X|.3X:X|.<X<X|.:X1X|.<X1X|.:X3X|.:X2X|.=X2X.X&X2XoX=X2X.X&X2XXX,.>.J.:.%.o.e...Y Y Y Y T W Y e.1X<X|.1X<X|.1X1X}.:X1X.X:X2X|.:X2X|.=X2X.X&X2X.X&X2XXXXX2XXXXX2X+X.X2X&X.X2X;X",
"oX=X1X.X=X1XXX+X1XXX+X1X&X&X3X=XXX2X=X#X3X=XXX1X:X.X1X:XXX<X:X.X<X>X.X;XZ.&.>.%.{ r.;XL. .X.E T Y Y Y +.S.&X1XXX+X<X&X&X1X=X&X1X=XXX1X:X.X1X=X.X1X:X].<X:X.X1X:X.X:X<XoX:X1X.X:X1XXX=X",
"&X:X:X=X-X<X&X=X<X=X=X<X=X=X<X=X+X:X=X&X:X=X+X:X:X=X:X=X=X:X:X&X:X:X+X:XV.%.@.O.+.r.;X+X&X#XM.( K T Y Y X.&X<X=X=X<X=X+X<X=X=X:X=X=X:X=X=X:X:X&X:X:X&X:X:X&X:X:X&X;X:X&X:X:X&X:X:X=X=X",
"2X:X|.1X:X|.1X<X|.1X<X}.>X1X|.:X<X|.:X2X|.:X2X|.=X2X.X=X2X.X&X2X&XXX2X.XB.%.@.{ b..X|.2X:X.X;XX.K Y Y Y e.-X}.<X<X|.<X1X|.:X3X|.:X3X|.:X2X|.=X2X.X+X2XXX+X2XXXXX2X&X.X2X+X.X2X&X.X2X:X",
".X=X1XXX=X1X&X+X1X&X&X1X+X=X<X+X#X3X+XXX<X=XXX<X:X.X>X:X.X1X:XXX:X<X.X&XK.;.;.-.h.:X1XXX=X1X.X=.U Y Y Y  .&X1X&X&X1X&X&X1X=XXX1X=X#X1X=XXX<X:X.X:X:XXX1X:XXX<X<XXX:X1XXX:X<XXX:X<XXX=X",
"+X-X<X&X-X:X&X=X<X+X=X<X&X&X<X=X&X<X=X&X<X=X&X:X:X&X:X:X+X:X:X&X:X:X.X@X=X+X+X|.v.-X:X&X:X>X&X=.Y R Y R X.&X<X+X=X>X=X+X<X=X+X,X=X+X1X=X&X:X:X+X:X:XXX:X:X#X:X:X&X:X:X&X:X:XXX:X<X&X=X",
"2X:X|.3X:X|.1X<X}.1X<X|.<X1X|.<X1X|.:X2X|.:X2X].=X2XoX=X2X.X&X2XXX&X1X*X*X,X1X$X}.=X|.2X=X|.3X`.g.g.g.r.v.=X|.<X<X}.1X1X|.:X3X|.:X1X|.:X2X|.=X2X.X=X2XXX&X2XXXXX2XXXXX2X=XoX2X=X|.2X:X",
"OX=X<X&X=X<X+X=X1X&X=X1X+X&X1X=X+X<X=X&X<X=X+X<X:XXX<X=X&X>X:XXX:X:XXX_. X;X1X$Xv.:X>X&X=X<X&X).W.E.E.Y.j.&X1X&X=X1X&X&X<X&X&X1X=X&X1X=XXX<X=X&X<X:X.X:X:XXX<X:XXX:X<XXX:X:XXX:X<XXX=X",
"XX=X<XXX=X1X&X&X1X&X+X,X&X=X<X+X&X<X=X&X<X=XXX<X=X#X<X:X&X<X:X.X<X:X.X#X@X;X,X@Xc.=X<XXX=X<X.X&X[.Y.E.Y.j.XX1X+X&X1X&X+X1X+X&X<X=X#X1X=X+X<X:XXX<X:XXX1X:XXX:X:XXX:X:X&X:X<XXX;X:X+X=X",
"2X:X|.3X:X|.3X:X|.1X<X|.<X1X|.:X1X|.:X3X|.=X2X|.=X2X|.+X2XXX&X2XXXOX2X#X_.@X*X@X}.=XoX2X=X|.2X:XR.W.Y.Y.R.=X|.<X<X|.<X1X|.:X1X|.:X3X|.:X3X|.=X2X.X&X2XXX#X2XXX&X2X&X.X2X+XoX2X=X.X2X:X",
"XX:X<X&X+X<X=X=X,X+X=X<X=X&X<X=X&X<X=X+X<X:XXX<X:X&X:X:X&X:X:X&X:X:X+X;X.X!.*X$XR.=X<X&X:X1X+X=X=Xl.Y.Y.j.&X<X&X+X<X=X&X<X=X+X<X=X+X<X=XXX<X:X&X:X:X+X:X:X+X:X:X+X:X:X&X;X:X&X:X<X&X=X",
"oX=X1X&X=X1X&X=X1X&X+X<X&X&X1X=X+X1X=X#X1X=XXX<X:X.X<X:X.X1X:X.X<X:XXX<X:X X*X*X.X}.:XXX-X<XXX+X1X[.T.Y.j.OX3X%X=X1X=XXX1X-XXX1X=XXX1X=XXX1X:X.X<X:X.X<X:X.X<X:XXX:X<X.X:X<XXX:X1X.X=X",
"2X:X|.3X:X|.1X:X|.1X<X|.<X1X|.:X1X}.:X3X|.:X2X].=X2X.X+X2XXX+X2XXX.X2X&X.X=X!.*X*X9.5.t.q.5.p.q.5.7.) k.E.Q._.1X<X|.<X1X|.:X3X|.:X3X|.:X2X|.=X2XXX+X2X.X#X2XXXXX2X&X.X2X&X.X2X&X.X2X:X",
"+X=X:X=X=X<X&X&X:X&X=X<X=X&X:X=X&X<X:X&X:X:X&X:X=X&X;X:XXX:X:X=X:X:X+X;X:X&X'.m.m.~ t u s s u s s t b ) ` 7..X=X=X<X=X=X:X-X+X:X:X&X:X=X+X:X:X&X:X>X&X:X:X+X:X:X+X;X:X+X:X:X+X:X:X+X:X",
"|.:X1XXX=X3X&X+X1X+X&X3X&X+X1X=X#X<X+X#X1X=XXX1X:XXX<X:XXX<X:X.X1X>X.X:X1X.XF.M c c b i s d u s d a t b x ! =X&XOX3X+XXX3X=X@X1X=XXX3X:X.X1X:X.X<X:XXX<X:XXX:X:X.X:X<X.X:X1X.X:X<XXX=X",
"2X;X.X3X:X|.3X<X|.1X<X|.<X3X|.<X1X|.:X3X|.:X2X|.=X2X|.+X2X.X&X2X.X&X2XXX.X2X_.u u r y d s u d s u d s r u 7._.1X<X].<X1X|.>X3X|.;X2X|.=X2X|.=X2X.X+X2X.X&X2XXXXX2X&X.X2X=X.X2X=X.X2X:X",
"=X=X;X+X=X:X=X=X:X+X=X:X=X=X:X=X=X:X:X+X:X=X=X:X;X+X:X:X&X:X;X&X:X:X+X:X:X=X=X).d s s a s s s s s a s s q._.:X=X=X:X=X=X:X=X=X:X&X+X:X:X&X:X;X+X;X=X+X:X:X&X:X:X=X:X:X=X=X:X=X=X:X=X=X",
".X-X1XXX=X1XXX+X3X&X&X3X+XXX1X=XXX1X=XXX1X=X.X3X:X.X1X:X.X<X:X.X<X:X.X:X1XoX:X<Xx.x.v.d.x.c.d.z.c.d.z.c.(.=X3XOX+X3X&XXX3X+XXX3X=XXX1X=X.X1X:XXX1X:X.X1X:X.X1X<X.X,X<XoX:X<X.X:X1X.X=X",
"2X:X|.3X:X|.1X<X|.<X<X|.<X1X|.:X1X.X:X1X|.:X3X|.&X2X.X=X2XXX+X2XXX&X2X&X.X2X&X.X2X+X|.2X=X|.1X:XoX1X:X}.1X:X|.<X<X|.<X1X|.<X1X|.:X2X|.:X2X.X=X2X.X=X2X.X&X2XXX&X2X+X.X2X+XXX3X=XXX3X:X",
"+X:X:X=X-X:X=X=X:X=X=X:X=X=X:X=X=X:X=X=X:X=X+X:X=X=X=X;X=X:X;X=X:X=X=X=X:X=X:X:X=X:X=X=X=X:X=X=X:X=X=X:X&X-X:X=X=X:X-X=X;X-X=X:X:X=X:X:X=X:X=X=X:X=X=X=X:X=X:X=X=X:X:X+X-X:X=X=X:X=X=X",
"|.=X3X.X=X2XXX=X2XXX&X2X&XXX2X=XXX2X=XXX3X=XXX1X:XXX3X:X.X1X:X|.<X<X|.<X<X|.:X1X.X:X1XXX:X1X.X=X2X.X=X3X#X+X2X&X&X3X+X.X3X=X.X1X=X.X1X=X.X1X:X|.1X:XXX1X:X.X>X<X|.<X1X.X:X1X.X:X1X.X=X",
"2X:XoX3X:X|.1X:X|.<X:X|.>X<X|.:X1X.X:X1XoX=X3XXX=X2XXX+X3XXX=X2XXX+X2X&XXX2X+X.X2X=XoX2X=X|.1X:X|.1X:X.X1X:X}.<X<X|.:X1X.X:X1XoX:X3X|.:X1XXX=X2XXX+X2XXX&X2XXX&X2XXXXX2X=X.X2X=X.X2X:X",
":X=X=X=X:X=X:X=X=X:X:X+X:X;X=X:X=X=X:X:X=X:X:X=X=X:X=X=X:X=X=X:X=X=X:X=X=X:X=X=X:X=X=X:X:X=X:X:X=X:X=X=X:X:X+X:X:X+X;X:X=X:X:X=X=X:X=X;X:X=X=X:X=X=X:X=X=X:X=X:X:X=X=X:X=X=X:X=X=X:X=X"
};
