/* XPM */
static char *result[] = {
/* columns rows colors chars-per-pixel */
"60 60 232 2 ",
"   c #000000",
".  c #0A0406",
"X  c #0D0907",
"o  c #0B040A",
"O  c #0D0A0B",
"+  c #120201",
"@  c #1D0303",
"#  c #170B04",
"$  c #13030D",
"%  c #1C040D",
"&  c #130D0D",
"*  c #1B0B0C",
"=  c #17100C",
"-  c #0E0516",
";  c #0F0810",
":  c #0B061C",
">  c #0E0A1C",
",  c #140413",
"<  c #170516",
"1  c #140C13",
"2  c #1B0B12",
"3  c #150B1B",
"4  c #1B0D1C",
"5  c #191317",
"6  c #1A1515",
"7  c #240A01",
"8  c #240B09",
"9  c #27170C",
"0  c #33170F",
"q  c #260B17",
"w  c #230C14",
"e  c #28151A",
"r  c #23191D",
"t  c #311A18",
"y  c #0B0A23",
"u  c #130D23",
"i  c #1F0C21",
"p  c #171323",
"a  c #231A21",
"s  c #2D1A27",
"d  c #361B2B",
"f  c #2C2428",
"g  c #362328",
"h  c #392736",
"j  c #3F303D",
"k  c #55331E",
"l  c #48272B",
"z  c #59362B",
"x  c #462938",
"c  c #542E38",
"v  c #493538",
"b  c #4D3C3B",
"n  c #573738",
"m  c #5B353B",
"M  c #623D38",
"N  c #5B4133",
"B  c #664739",
"V  c #6A5132",
"C  c #472C40",
"Z  c #493543",
"A  c #593845",
"S  c #5E3A54",
"D  c #643C4B",
"F  c #4D4048",
"G  c #5D4245",
"H  c #554349",
"J  c #554451",
"K  c #684747",
"L  c #775749",
"P  c #735A4B",
"I  c #654656",
"U  c #714E5E",
"Y  c #685758",
"T  c #785657",
"R  c #7C655D",
"E  c #754E66",
"W  c #6B5B60",
"Q  c #765864",
"!  c #7C6765",
"~  c #7B6E72",
"^  c #991217",
"/  c #A81319",
"(  c #ED1C24",
")  c #835D59",
"_  c #886C4A",
"`  c #856457",
"'  c #976D58",
"]  c #8E725F",
"[  c #97755C",
"{  c #A67B5C",
"}  c #8B5E65",
"|  c #886865",
" . c #9B6D6C",
".. c #8C7468",
"X. c #937564",
"o. c #967768",
"O. c #9B7A6C",
"+. c #896C79",
"@. c #976C77",
"#. c #8C787A",
"$. c #927474",
"%. c #9C7376",
"&. c #95727C",
"*. c #997878",
"=. c #A47967",
"-. c #A2746C",
";. c #A06F7E",
":. c #A1727C",
">. c #A47978",
",. c #B3895C",
"<. c #9D816D",
"1. c #9A8478",
"2. c #9C857B",
"3. c #A6846C",
"4. c #A38375",
"5. c #A4867C",
"6. c #AA8978",
"7. c #B48975",
"8. c #B19075",
"9. c #B79479",
"0. c #C29276",
"q. c #D0AA7E",
"w. c #D7BB7D",
"e. c #DAC87F",
"r. c #8B6E81",
"t. c #9D6D82",
"y. c #947282",
"u. c #997886",
"i. c #9A7491",
"p. c #A36E86",
"a. c #A47684",
"s. c #A27D93",
"d. c #9D8787",
"f. c #9A8792",
"g. c #AA8885",
"h. c #B18D85",
"j. c #B68A89",
"k. c #B49482",
"l. c #B79683",
"z. c #A59191",
"x. c #B89B99",
"c. c #B9A498",
"v. c #BB9BA7",
"b. c #C59986",
"n. c #C49490",
"m. c #C8A68A",
"M. c #D3AA8A",
"N. c #CEB48B",
"B. c #D5B485",
"V. c #DCBA83",
"C. c #D7B38C",
"Z. c #DEB58A",
"A. c #D6BB8E",
"S. c #DCBA8D",
"D. c #CBAB98",
"F. c #D6AB98",
"G. c #CCB596",
"H. c #D5B394",
"J. c #D9B793",
"K. c #DCBC94",
"L. c #D4B49C",
"P. c #DCB59B",
"I. c #D5BB9B",
"U. c #DCBC9B",
"Y. c #E2B584",
"T. c #E3BC84",
"R. c #E4BA8C",
"E. c #EABD8D",
"W. c #E3BB94",
"Q. c #E6BA98",
"!. c #E3BB9C",
"~. c #CCABA6",
"^. c #D7ADA7",
"/. c #CAB3A8",
"(. c #D3B4A1",
"). c #D4B9A3",
"_. c #DCBCA3",
"`. c #D5B7A9",
"'. c #DCB5AB",
"]. c #DBBBAC",
"[. c #C9B7B3",
"{. c #D7B8B5",
"}. c #DBBBB1",
"|. c #E2BDA3",
" X c #E3B4A8",
".X c #E2BBAC",
"XX c #E4B8B6",
"oX c #D7C18B",
"OX c #DDC495",
"+X c #DCC19D",
"@X c #E6C488",
"#X c #E3C18D",
"$X c #E4C393",
"%X c #E4C19B",
"&X c #E9C699",
"*X c #F1C497",
"=X c #DDC2A4",
"-X c #DAC0A8",
";X c #DBC4B8",
":X c #E4C4A4",
">X c #E9C4A3",
",X c #E5C8A6",
"<X c #E9C6A9",
"1X c #F1C5A6",
"2X c #F1D2AD",
"3X c #E3C3B4",
"4X c #ECCBB4",
"5X c #E7CABC",
"6X c #F2CBB8",
"7X c #F2D4B4",
"8X c #F7D9BA",
"9X c #D0B3C0",
"0X c #E8CBC5",
"qX c #F0CFC5",
"wX c #EDD5CA",
"eX c #F8DAC4",
"rX c #FBDECA",
"tX c #EED6D6",
"yX c #FBDED6",
"uX c #FDE4C4",
"iX c #FCE7C6",
"pX c #FDE4CC",
"aX c #FEEACC",
"sX c #FEE4D2",
"dX c #FFEBD4",
"fX c #FEE4DD",
"gX c #FFEADB",
"hX c #FADDE2",
"jX c #FDE5E2",
"kX c #FAE3E7",
"lX c #FFECE2",
"zX c #FFE5F0",
/* pixels */
"( ( ( ^                                                                                                         ( ( ( ( ",
"( (                                                                                                           @   ( ( ( ",
"(   @                                                                                                       ^       (   ",
"/                                                                                                               ^ ^ /   ",
"@   ^ ^                                                                                                             @   ",
"                                                  X Q 1       .                                                         ",
"                                        4               & X.o.3.9.m.<.X                                                 ",
"                                              T &.~.qXqXqXqX4X4X<X:XU.6.$.Y                                             ",
"                                            ~.0XqXyXfXrXsXsXsXrX4X:X).6.>. .T                                           ",
"                                        6 L.L.6XpXsXdXdXsXsXsXpXpXwXrXeX.XD.n.g.5                                       ",
"                                      & [ N.,X=X8XpXpXaXaXsXdXdXpXsXdXsX1X X.Xg.*.&                                     ",
"                                o   & l.N.I.+X+X7XaXiXaXaXpXaXpXdXpXaXaX<XP.|.F.m.6 =                                   ",
"                              O   & n.F.K.+XI.+X8XiXuXuXuXuXdXiXaXuXiXaX,XC.OX&X%X>X6   .                               ",
"                                  = b.P.K.K.A.$X2X8X7X,X,X,X8XuXuXaXdXaX2XJ.C.A.S.K.8.&                                 ",
"                                %  .b.Q.R.R.S.S.&X&X!.U.U.L.7XdXdXpXeXeX4X:XK.W.S.W.M.L.6                               ",
"                              1 ^.F.Q.Q.E.#XT.R.#X#XK.&X:XL.7XpXeX4X4X_.L.:XW.$X#X#X$X!.6 6                             ",
"                            X O. X<X XY.T.E.E.R.R.Q.W.J.9.=.3.7.6.6.D.3X'._.J.S.T.V.T.W.U.6 6                           ",
"                            X B 3.H.Q.Q.R.E.Q.W.Q.Q.|.|.l.-.O.o.O.$.x.}.D._.%X$XT.w.T.$XQ..X& &                         ",
"                          1 ..] l.U.U.W.W.W.W.K.!._.P.].5.X.*.*.&.A b K L 9.I.$XT.w.T.T.Q. Xh.1 O                       ",
"                          O #.o.k._.=X_.P.U.P.I._.(.L 0 8 t e s s q h A c 9.).A.#XT.@XE.Q.!.>.* 1                       ",
"                        . Y $.2.c.-X).-X9.X.<.<.2.B 7 w e w , - < u h Z v c.-XoXV.T.T.,.{ 7.-.:.6                       ",
"                        . g w 8 9 t 9 P <.........v # + + , 3 u u : u < 9 ../.,X$X$XE.7.{ =. .;.& X                     ",
"                        F b * % # # X B ] ..1.d.*.b 6 w 4 3 u u y y y < & t 5.oXU.C.W.M.7.-.-. .= 1                     ",
"                        J h , , 1 O 1 b /.pX0X0XtXkXW 2 , ; 3 : : y p 1 * + 1.-XL.9.3.7. . .:.;.a.1                     ",
"                        O C i i > > p e 5.yXlXjXfXtXY = 5 > > 3 > u : o & * 1.;X].k.'  . . .;.;.a.X                     ",
"                          3 - u p y y + 4.gXfXfXjXkX! I ~ Z 1 > > > 3 5 6 = <./.(.7.-.-.a.a.a.p.a..                     ",
"                          3 < : : : > * B 5.O.].lXgXc.#.#.v $ 1 2 1 $ # # + 5.;X`.R z D } ;.p.i.Q   .                   ",
"                          1 < 2 & ! [.{.h.o.X.L.dXdXc.#.r.b % 8 # 7 ..N.B.A.+XI.:XL z D } t.s.i.J   5                   ",
"                          & w + @ ] (.D.g.O.X.L.aXaXc./.kXtXtXsX3Xm.,X&XV.Z.R.Q.H.` z l D +.r.Z                         ",
"                          & * + @ ] ].`.T 7 7 K 1.1.;XlXlXlXlXsXpX2XH.%XY.E.1XQ.F.'.) M D A S d   .                     ",
"                          . ! ;X).P.L.].{.L @ @ H $.*.[.sXsXaXeXuX<X0.{ M.Q.M. X XXX} m A x d .                         ",
"                          ~ ;X(.L.%XQ._.{.T q e U +.$.c.-X=X+X+X1X0.' ' 0.|.XX X X^.) m D C s                           ",
"                          d.1.).|.Q.R.P.3XT + w d S D 6.+XA.q.B.S.3.=.=.F. XF. XXXa.a.a.r.h                             ",
"                          6 ..m.W.Y.Y.Z.I.L 8 q d A l =.oXOX$X&X&X9.-.-.-.-.>.:.:.p.y.i.J .                             ",
"                            P 9.E.R.E.$XoXV 7 8 d D B 8.B.V.@XB.K.j.:. .>.%.%.u.%.u.y.A J                               ",
"                            X.9.Q.E.w.w.e.oX_.{.{.{.'._.&XB.w.%XP.j.p.%.$.| &.u.+.x < o                                 ",
"                          O ..c.>X*X*X@Xe.oXN.L.{.XX.XJ.S.W.$XM..X{.D q q 7 % % w , -                                   ",
"                          N 1.[ 8.C.Y.B.w.OX+X4X3X(.L.>X+XJ.,Xk.%.s.x % % % 2 $ < 4                                     ",
"                          . ! o.b.>X$XoXN._ 3.G.'.[ z k =.).(.g.*.y.C q % w w 3 3 p                                     ",
"                          X #.N ` _.!.<.k N 4.}.'.` z z k.5X/.g.d.+.h $ w I r.f.Z .                                     ",
"                          X & @ | }.'.| A m >.^.^.| z m c l c d , 2 q 2 w W r.u.j                                       ",
"                          1 < 2 | [.'.@.S E K D M ) %.u.U S J s o $ 2 w q W r.u.X                                       ",
"                          3 o x n n m E i.s.E n z ) o.$.T G H g t 9 9 T @.u.y.Y X                                       ",
"                          . 5 Z A m m } @.+.>.) M B _ [ m.I.L.+XG.=XI.j.p.@.u.Y                                         ",
"                            6 v c A K K | 5.;X5XL._.=XOXOX,XA.J.2X#X+Xj.t.y.#..                                         ",
"                            o a S v.zXyXfXsXpXqXL.I.U.H.%X!.K.K.C.m.P.| S Z o                                           ",
"                              p Z x.hXlXfXgXpX5X,X_.=X<X8X<X>X<Xb.P K l d 5 .                                           ",
"                              Z s v.zXfXwXsXdXdXgXpXpXsXpX4X.XR K B T v a 1                                             ",
"                              . f Q 9X9XpXdXdXdXpXsXsXfXlXz.H v H X O .                                                 ",
"                                p h f.;X;XlXwX;X0XwXwXx.Y r &                                                           ",
"                                  f f W 2.z.Y v f r a 6 6 .     .                                                       ",
"                                    O 5 r a a p 5 a a .                                                                 ",
"7                                         .   .                                                                     @   ",
"                                                                                                                7       ",
"^     @                                                                                                       @ @   ^   ",
"                                                                                                                ^       ",
"(   ^   @                                                                                                     ^     (   ",
"( (   ^                                                                                                           ( ( ( ",
"( ( ( ^                                                                                                         ( ( ( ( ",
"( (                                                                                   X =                     @   ( ( ( "
};
