/* XPM */
static char *result[] = {
/* columns rows colors chars-per-pixel */
"60 60 226 2 ",
"   c #000000",
".  c #090307",
"X  c #07040A",
"o  c #0A060A",
"O  c #0C090C",
"+  c #1F0304",
"@  c #15050D",
"#  c #0C0513",
"$  c #0D0B15",
"%  c #060A1B",
"&  c #130516",
"*  c #1D0313",
"=  c #140B14",
"-  c #14031B",
";  c #19041B",
":  c #130B1A",
">  c #1B0C1E",
",  c #14111C",
"<  c #1D141D",
"1  c #270A19",
"2  c #0D0F20",
"3  c #180822",
"4  c #1C0C23",
"5  c #151725",
"6  c #1C1322",
"7  c #2F0C27",
"8  c #271A27",
"9  c #371B26",
"0  c #291330",
"q  c #2C1B32",
"w  c #361C36",
"e  c #29212E",
"r  c #33232D",
"t  c #3B272B",
"y  c #2A2531",
"u  c #3B2635",
"i  c #35243C",
"p  c #382938",
"a  c #401D2A",
"s  c #422333",
"d  c #492835",
"f  c #432A3B",
"g  c #4F3B34",
"h  c #44323A",
"j  c #55353B",
"k  c #533A3A",
"l  c #5E3C3D",
"z  c #62472E",
"x  c #3D2741",
"c  c #3B2A44",
"v  c #3F374B",
"b  c #442C46",
"n  c #4C2E43",
"m  c #562E48",
"M  c #433242",
"N  c #4A3145",
"B  c #493A46",
"V  c #47344C",
"C  c #4B344B",
"Z  c #4C3A4D",
"A  c #523544",
"S  c #5C3444",
"D  c #54354B",
"F  c #5D3449",
"G  c #573B49",
"H  c #4C3A53",
"J  c #543754",
"K  c #543C53",
"L  c #5D3B53",
"P  c #643748",
"I  c #643C53",
"U  c #673D57",
"Y  c #544548",
"T  c #5A434C",
"R  c #5C425A",
"E  c #594A58",
"W  c #6B454C",
"Q  c #754F4D",
"!  c #6C4452",
"~  c #674959",
"^  c #77495A",
"/  c #69565B",
"(  c #765658",
")  c #74605C",
"_  c #534364",
"`  c #774D65",
"'  c #6C536A",
"]  c #745262",
"[  c #7E5B64",
"{  c #795769",
"}  c #7C5D6C",
"|  c #7D5D78",
" . c #7B6464",
".. c #7B6579",
"X. c #991217",
"o. c #A81319",
"O. c #ED1C24",
"+. c #825C58",
"@. c #88605D",
"#. c #976D5A",
"$. c #9C745B",
"%. c #A16F5F",
"&. c #85556A",
"*. c #825A6C",
"=. c #8C5D75",
"-. c #8A6468",
";. c #976B65",
":. c #946B6E",
">. c #9C6D6C",
",. c #9C7464",
"<. c #97766A",
"1. c #9E746B",
"2. c #856372",
"3. c #8D6878",
"4. c #946374",
"5. c #996C73",
"6. c #946E7B",
"7. c #8E7773",
"8. c #957275",
"9. c #9C7473",
"0. c #9C7A73",
"q. c #94727C",
"w. c #9B737B",
"e. c #977979",
"r. c #9C7A7E",
"t. c #A16F63",
"y. c #A77966",
"u. c #A2756A",
"i. c #A47B6C",
"p. c #A26A78",
"a. c #A27473",
"s. c #AA7776",
"d. c #A47C74",
"f. c #A3737B",
"g. c #A37B7B",
"h. c #9D807B",
"j. c #AA8366",
"k. c #B18A6D",
"l. c #A4817B",
"z. c #AC8778",
"x. c #B38876",
"c. c #BA9377",
"v. c #C69E7C",
"b. c #866183",
"n. c #916981",
"m. c #9B6C85",
"M. c #947383",
"N. c #967585",
"B. c #9D7584",
"V. c #9C7B82",
"C. c #9D738A",
"Z. c #A37383",
"A. c #A37B81",
"S. c #A57788",
"D. c #A67996",
"F. c #AA848F",
"G. c #B88E83",
"H. c #BC9783",
"J. c #C79F86",
"K. c #C49992",
"L. c #CAA68A",
"P. c #D4A78C",
"I. c #D4AE8C",
"U. c #CEB58E",
"Y. c #DEBA84",
"T. c #D5B28B",
"R. c #DAB58B",
"E. c #D8B88B",
"W. c #DDBC8D",
"Q. c #C5A498",
"!. c #D4AD93",
"~. c #D8AC99",
"^. c #DBB493",
"/. c #D4B896",
"(. c #DDBB93",
"). c #DBB49B",
"_. c #DDBC9A",
"`. c #E2BD86",
"'. c #E2BC8C",
"]. c #E2BD93",
"[. c #E0B69A",
"{. c #E3BD9B",
"}. c #CBAAA6",
"|. c #D3ABA6",
" X c #CDB4A2",
".X c #D7B6A6",
"XX c #DBB5A4",
"oX c #DCB6AA",
"OX c #DDBBAB",
"+X c #DCB6B1",
"@X c #E3BBA3",
"#X c #E5B8A3",
"$X c #E3BBAB",
"%X c #E3BEB3",
"&X c #DBC19A",
"*X c #E3C08D",
"=X c #E8C18E",
"-X c #E4C193",
";X c #E4C19A",
":X c #E8C49A",
">X c #D8C1A7",
",X c #E4C2A2",
"<X c #E9C5A3",
"1X c #E8C7A8",
"2X c #EBC5AC",
"3X c #EBCCAC",
"4X c #F5D2AD",
"5X c #E3C1B4",
"6X c #E3CBB7",
"7X c #F1CCB4",
"8X c #ECD2B5",
"9X c #F9D8BA",
"0X c #F9E1BE",
"qX c #FEDEC4",
"wX c #F6E0C3",
"eX c #FEE3C5",
"rX c #FEE9C6",
"tX c #F5E1CB",
"yX c #FEE4CC",
"uX c #FEEBCB",
"iX c #F7E5D1",
"pX c #FCE5D2",
"aX c #FFEAD3",
"sX c #FEEBD9",
"dX c #FFF2D4",
"fX c #FFF2DA",
/* pixels */
"O.O.O.X.    X     .                                                                                             O.O.O.O.",
"O.O.          o .                                                                                             +   O.O.O.",
"O.  +                                                                                                       X.      O.  ",
"o.                                                                                                              X.X.o.  ",
"+   X.X.                                                                                                            +   ",
"                                                                                                                        ",
"                                          y o       .                                                                   ",
"                                                Z Z B Z B A A D Z Z H H                                                 ",
"                                            o d k Y k g g z z.U.oXF.7.q.~                                               ",
"                            $ _ K h h h k l l Q e.Q. X.XU.U.:X>X@Xx.,.w.W O                                             ",
"                          O ' R T -.}.+X|..X|.}.oX5X5X>X>XE.&XE.P.x.u.a.W &.O                           O               ",
"                          # J ] -.7.Q.oXoX5X%X%XOXOX.X/.&XE.(.<X4X#X[.XXz.0.q.o                             ,           ",
"                          G j [ l.j.Q.XX$XXX~.oX7XyXeX1X{.(.T.^.^.^.^.[.z.0.l.~   o                       X             ",
"                        o P l Q ,.H.7XuXsXaXyXpXaXaXeX3X<X,X;X{.'.[.].{.k.L.oX}./                           o           ",
"                      X O 5.a.Q.2X2X3XeXqXqXpXsXpXqXuXeX,X^.{.].].'.'.].(.;XOX6X-.  o                                   ",
"                      o O ( 1.j.c.).3X9XeXyXpXaXyXpXdXuX3X#X{.R.'.`.'.`.=X^.).OXQ d o                                   ",
"                        o +.0.,.H.3XeXuXiXaXaXsXiXaXuXuX1X_.(.].*X`.`.`.=X*X/.$Xz.V.= o X                               ",
"                    o o T 0..X5XeXdXuXwXtXiXiXsXsXaXiXwX3X&X{.'.*X=X`.`.v.`.;X,Xd.;.0.O X                               ",
"                    o V k l.OX>X8XwXuXfXfXsXsXsXiX6X>X>X_.(.].'.*Xv.Y.*X=X*X*X_.c.z.d.o D .                             ",
"                    X J k l..XXX8X0XuXuXiXqXiXsXiX6XU.&X(.{.'.W.*XY.*XY.=X=X*X(.~.XX~.@.o                               ",
"                    o | 3.K.2X,X9XuXdXrXrXuXaXfXdX8X&X&X&XW.*X*X*X*X*X*X].-X{.{.[.#X2X$XO o                             ",
"                    p b.B.J.!./.4X0X0X0XeXrXqXeX0X<X*X*XW.*X*XW.E.*XE.&XE.;X:X{._.P.I.).`                               ",
"                    x b.f.y.J._.3X4X3X&X_._.XX,X;X;X=X=X*XU.*XE.&XW.(.&X(._.{.^.{.c.y.y.! o                             ",
"                    L D.oX[.{.-XE.Y.*XE.&X;X&X{.(.].=Xv.*X*X*X*X*XW.*X(._.;X^.^.[.k.$.%.P O o                           ",
"                    L D.%X].-XW.W.-XW.].-X-X{.{.{.(.(.(.].{.W.].T.`.'.'.R.].{.~.#Xz.s.a.P o X                           ",
"                    m C.oX].-X'.*X-X].(._.&X_.].;X;X;X{.{.:X].].W.W.'.'.R.].c.j.t.>.>.:.Q o X                           ",
"                    J D.oXR.R.R.W.W.W.E.W.W.'.W.W.(.W.W.W._.(.].W.*X*X*XR.[.k.,.;.a.A.A.3.$ X                           ",
"                    f F.%X:X].:X;X(.-X'.].*X=X'.'.*X*X*XW.(.E.{.&X*XW.&X<X2X~.x.1.5.:.2.2.O H                           ",
"                    f 6.K.^.P.].-XR.{.-X'.'.'.'.Y.Y.`.'.].(.(.&X&XT.L.L.U.L.G.d.9.-.Q P R # J                           ",
"                    r L -.y.j.J.).!.;X{.].].].'.'.Y.Y.`.].(.(.(.E.c.j.j.<.,.;.0.w.B.! n m o c                           ",
"                    8 n ( t.t.K.$X#X2X[.I.R.T.R.'.].=X=X].^.).{.^.k.#.#.,.1.a.>.-.4.^ I ~ X                             ",
"                    8 f [ 5.4.K.+X|.|.G.y.$.$.y.v.].].'.{.[.{.#X).x.y.1.a.9.A.P P U &.m.C.u                             ",
"                    o r G S S &.Z.w.5.f.a.u.u.,.L.#X!.~.^.P.[.~.x.t.t.p.p.f.Z.&.S F &.C.{ .                             ",
"                      p L F S &.S.S.w.5.5.a.d.d.G.x.i.i.y.t.t.t.t.s.s.p.Z.Z.4.&.` P U 6.h                               ",
"                      E U m I &.3.=.4.B.A.w.f.w.g.9.9.1.,.t.t.1.a.p.4.5.&.m.n.d 4.m.` f O                               ",
"                      p R &.n.m.` F F &.6.B.6.w.w.8.B.8.;.d.d.d.p.5.U P m 7 1 * ` J R T   O                             ",
"                      y x { S.C.` F ! ] *.*.2.q.3.6.S.q.:.<.:.8.g.N.~ m D w 7 > T B O   O                               ",
"                      y 8 ` M.6.( G A 9 1 1 s S S [ M.N.V.h.h.r.2.} K V C 0 3 H :                                       ",
"                        = t q.w.r.q.q.j + + a S S 2.2.2. .(  ./ u 8 - 3 3 c _ v                                         ",
"                          p / e.r.M.M.S 1 7 s f N ~ u * = = = , # & - 3 3 q H H o                                       ",
"                          = p E { ....R C J w ; > & & : % 2 5 2 % : : 4 4 8 v J p                                       ",
"                            o o > & ; w V K V q 4 : # $ 2 % % 2 % : < f D C b L .                                       ",
"                              X X - - 4 x C V q > 4 ; = 2 # $ = ; @ * s D K n X X                                       ",
"                                O 4 3 - i J R K Z Z r * = ; 1 * * 9 d P I U I .                                         ",
"                                5 = & 3 x b C C N G f 9 9 9 t 9 a +.4.Z.S.m.&.U                                         ",
"                                  , X 3 c D J ~ ~ ~ } 3.r.8.<.:.>.f.p.Z.S.m.U .                                         ",
"                                    X # i C K | M.6.C.S.0.7.0.0.s.Z.p.p.4.4.U O 6                                       ",
"                                    X X i V J ' M.M.M.M.8.<.0.0.p.s.Z.p.! F D                                           ",
"                                      X # q c N ' 2.} q.0.<.<.0.a.p.w.Z.~ r <                                           ",
"                                        , 6 O ; f D G } 7.7. .) ( W T T r < =                                           ",
"                                        X   # # e M T ' / Y Y Y Y r O o o                                               ",
"                                              $ < 8 8 =   .                                                             ",
"+                                             X , $ # # o         $ .   $                                           +   ",
"                                                                                                                +       ",
"X.    +                                             . o $                                                     + +   X.  ",
"                                                                                                                X.      ",
"O.  X.  +                                                                                                     X.    O.  ",
"O.O.  X.                                                                                                          O.O.O.",
"O.O.O.X.                                                                                                        O.O.O.O.",
"O.O.                                                                                                          +   O.O.O."
};
