/* XPM */
static char *result[] = {
/* columns rows colors chars-per-pixel */
"60 60 226 2 ",
"   c #000000",
".  c #090606",
"X  c #070509",
"o  c #0A050B",
"O  c #0B090A",
"+  c #1E0304",
"@  c #13040D",
"#  c #1A070A",
"$  c #120D0D",
"%  c #1E110D",
"&  c #0C0513",
"*  c #070A16",
"=  c #0C0915",
"-  c #0F031C",
";  c #140513",
":  c #1B0412",
">  c #140A15",
",  c #1B0914",
"<  c #13051A",
"1  c #1A051D",
"2  c #150C1B",
"3  c #1A0A1A",
"4  c #141011",
"5  c #1C1514",
"6  c #19101C",
"7  c #20070B",
"8  c #220B12",
"9  c #220D1C",
"0  c #2B0E1E",
"q  c #28121A",
"w  c #34181C",
"e  c #3D2514",
"r  c #190523",
"t  c #190A24",
"y  c #1D1722",
"u  c #230C26",
"i  c #241422",
"p  c #281728",
"a  c #341A29",
"s  c #2C1835",
"d  c #311B35",
"f  c #36262C",
"g  c #2D2832",
"h  c #332434",
"j  c #3B2434",
"k  c #39263C",
"l  c #52312F",
"z  c #432938",
"x  c #47343A",
"c  c #4A333D",
"v  c #583838",
"b  c #664A3D",
"n  c #3D2844",
"m  c #3C3F49",
"M  c #422A46",
"N  c #4C2E42",
"B  c #463344",
"V  c #4E3645",
"C  c #4A324A",
"Z  c #4B3848",
"A  c #533443",
"S  c #553A45",
"D  c #5B3C45",
"F  c #53364C",
"G  c #553B4D",
"H  c #5C394A",
"J  c #4A3854",
"K  c #533A52",
"L  c #633849",
"P  c #4A424F",
"I  c #5B4242",
"U  c #5D414C",
"Y  c #584355",
"T  c #64444B",
"R  c #684749",
"E  c #6D524B",
"W  c #674A55",
"Q  c #794E55",
"!  c #6B545B",
"~  c #74535B",
"^  c #775458",
"/  c #7C6054",
"(  c #624B64",
")  c #6D5467",
"_  c #785767",
"`  c #7C5C6B",
"'  c #735D70",
"]  c #7D656C",
"[  c #7C6576",
"{  c #991217",
"}  c #A81319",
"|  c #ED1C24",
" . c #855C5E",
".. c #8D665C",
"X. c #896858",
"o. c #976C5C",
"O. c #8D775C",
"+. c #9D715E",
"@. c #A1745E",
"#. c #815A69",
"$. c #805E70",
"%. c #896967",
"&. c #86646A",
"*. c #946C68",
"=. c #9D6D6C",
"-. c #89716D",
";. c #9C7363",
":. c #9C776A",
">. c #876776",
",. c #8C6B72",
"<. c #966C75",
"1. c #9A6E72",
"2. c #89747C",
"3. c #947473",
"4. c #9C7475",
"5. c #977977",
"6. c #95737C",
"7. c #9C747A",
"8. c #9B7A7C",
"9. c #A16F6C",
"0. c #A17463",
"q. c #A27A63",
"w. c #A2746A",
"e. c #A3796D",
"r. c #AA7B6B",
"t. c #A46D75",
"y. c #A86C74",
"u. c #A47374",
"i. c #A37C73",
"p. c #AA7877",
"a. c #A3747B",
"s. c #A27C7B",
"d. c #9D817D",
"f. c #A9836B",
"g. c #A28274",
"h. c #A9867C",
"j. c #B48976",
"k. c #BC967B",
"l. c #BDA47A",
"z. c #C09D7B",
"x. c #D7B67F",
"c. c #DBBD7E",
"v. c #8D7882",
"b. c #937683",
"n. c #9B7582",
"m. c #9A7A84",
"M. c #A57C84",
"N. c #AB8C84",
"B. c #B48D83",
"V. c #A79387",
"C. c #BB9A89",
"Z. c #BB9794",
"A. c #BDA58C",
"S. c #BFA897",
"D. c #BFA5A3",
"F. c #C39A87",
"G. c #C49C84",
"H. c #C6A38B",
"J. c #CDA38B",
"K. c #D2AA8C",
"L. c #CCB385",
"P. c #D4B585",
"I. c #D7B987",
"U. c #DCBC84",
"Y. c #D3B58B",
"T. c #DAB48A",
"R. c #DCBB8C",
"E. c #CAA894",
"W. c #D6AC98",
"Q. c #CDB799",
"!. c #D4B295",
"~. c #DCB494",
"^. c #D6BA92",
"/. c #DDBB93",
"(. c #DAB49A",
"). c #D5BB9E",
"_. c #DBBB9B",
"`. c #E1BD85",
"'. c #E2BC8C",
"]. c #E2BE93",
"[. c #E6BC96",
"{. c #E1B79D",
"}. c #E3BC9B",
"|. c #D1ADA4",
" X c #CFB6AD",
".X c #DBBBA2",
"XX c #D8B7A8",
"oX c #D8BEB3",
"OX c #E4BBA3",
"+X c #E0BAAA",
"@X c #E0BFB1",
"#X c #DDC188",
"$X c #DDC194",
"%X c #D6C19B",
"&X c #DDC19B",
"*X c #E5C488",
"=X c #E2C18C",
"-X c #E3C294",
";X c #E7C697",
":X c #E3C29A",
">X c #EAC39C",
",X c #DEC4A4",
"<X c #DFC0AF",
"1X c #DDC4B8",
"2X c #E7C6A5",
"3X c #E4C4AC",
"4X c #F1C9AC",
"5X c #F2D1AB",
"6X c #E4C2B4",
"7X c #E9C7B8",
"8X c #F5D7B7",
"9X c #FEE4BC",
"0X c #DEC2C5",
"qX c #F0CCC7",
"wX c #F9DCC2",
"eX c #F8DCC6",
"rX c #FDDDD8",
"tX c #FEE4C4",
"yX c #F7E8C7",
"uX c #FAE7CA",
"iX c #FEE4CD",
"pX c #FFE6D5",
"aX c #FEEBD4",
"sX c #FFE7DA",
"dX c #FFF0D7",
"fX c #FFF2D8",
/* pixels */
"| | | {                                                                                                         | | | | ",
"| |                                                                                                           7   | | | ",
"|   +                                                                                                       {       |   ",
"}                                                                                                               { { }   ",
"+   { {                                                                                                             +   ",
"                                                                                                                        ",
"                                                                                                                        ",
"                                      f O                                                                               ",
"                                          $ 0.w.;...E h.%                                                               ",
"                                          5 OX{.}.T.~.[.{.{.~.J.o.=.*.#.R T c B ) O                                     ",
"                                        q 4X}.T.>X[.[.'.`.'.;X[.K.F.7XqXrXrX0Xb.2.' O o                                 ",
"                              O $   $ *.k.!.[.T.'.'.*X`.`.`.P.;X!.K.XX7XsXsX X6.5.] . o o                               ",
"                            X     . g.g.S.eXyX8X:X#XU.*X`.`.[.;X>X3X+X7XrXpX6Xg.N.Z.b.4 .                               ",
"                                5 3XeX8XrXfXyXyX^.^.P.#Xx.`.R.Y._.8XiXeXsXaXwXXXXXE.*.$ $ .                             ",
"                      X       5 _.7XfXfXyXyXyXeXQ.%X$X:X-X&X:X%X,XaXiXaXtXiX5X^.$Xz.f.;.$ .                             ",
"                          4 j.>X:X<XuXyXyXfXfXyX%X%X%X#XR.#X^._.5XtXiXtXtX9X5X-X>Xk.O.:.4 O X                           ",
"                        = N.F.iXpXiXsXpXaXaXaXyX&XY.R.-X'.`.[.R.].2X5X[.;Xx.U.#X$X%XC.:.3.O X                           ",
"                        D.oXXXaXaXpXpXiXeXeXtX8X8X:X'.=X;X'.T.R.[.[.'.`.U.*X*XU.Y.&XA.-.-.O O X                         ",
"                      I &.|..X7XiXaXaXfXaXtX).,X:X$XR.T.'.'.:X>X[.[.~.'.-XR.U.$X%X%X/ 7 q h X .                         ",
"                    . z b <X).,XtXiXwXtXtX8X%X^.^./.-X'.'.[.}.K.J.~.{.{.[.-X]./._.3X-.+ @ s X n                         ",
"                      I / ,X&X:XtXdX9XyXtX9X2X&X/./.-X].'.].J.q.r.z.{.{.(./.:X/.!.XX-.$ 9 h . u X                       ",
"                    O l b !./.-X9X9X9X9X9X8X^./././.R./.[.[.J.+.0.j.OX{.}.~.^.&X%X Xd.p ; t . .   o                     ",
"                    I b X.4X-XR.#X;X$XR.$XY.^.:X;X:X-X[.~.T.G.r.r.j.W.OX}.[.&X_.%X1X1X] , 1 1   .                       ",
"                  X  X1X.X!.$X-XP.#X-X/.;X/.$X/._./.:X}.z.r.0.+.0.0.z.{.}.}./.$X%X.X1X] # 9 9 u . X                     ",
"                  O D.6X!./.$X/.R.'./.R./.]./.~._._.2X_.G.;.q.;.0.o.j.[.[.'.R.#X#X%X%X] + 7 a H o o                     ",
"                    E 6X.X4X>X/./.].}.}.}.~.~.(.(.!.+X4XH.;.+.;.j.j.z.~.].].U.c.#X%X,X/ + 7 a c H o                     ",
"                  X R XXOX/.{.~.~.{.[.}.}.(.{.OX.XE.F.J.B.g.:.j.+XW.~.}.'.=X*X#X#X#XL.g.e e v I ~ A                     ",
"                  f I 6X{.OX+X(.W.W.W.W.W.F.o.o.*...v v E -.:.N.@X+XOX{.K.x.x.c.#X#X;X&XQ.Q.C.g.3.W .                   ",
"                  . l |.W.W.k.h.e.w.0.0.0.0.r.i.w.%.v l E &.*.N.|.|.XX3X>X#X*X*X#X#XL.#X).3XH.4.g.3.U                   ",
"                    w :.@.;.p.4.=.=.=.w.9.9.9.u.u. .R L R T D T %.1.h.K./.T.c.*Xc.#X#X%X.X2X_.j.:.3.T                   ",
"                    q ..+.w.=.<.1.t.u.t.u.u.9.1.u.<.7.n.n.` A A ! ,.4.C.).].U.`.c.#X;X%X^._./.C.g.4.v                   ",
"                    @ w X.=.<.a.a.u.a.w.y.u.u.1.a.7.n.>.b.) N N U ,.*.j.(.~.=X=X*X#X$X#X_.}.OXH.:.:.D .                 ",
"                    * < K V R 7.p.*.y.u.9.9.=.u.7.<.m.>.' n r u 0 v l ..OX~.].[.'.-X'.R.I.K.W.Z.7.3.U   >               ",
"                    * 2 J Y L <.7.1.t.1.9.p.u.1.7.n.` N F n r : a H v #.W.!.W.[.].R.$XY.l.:.4.6.3.6.x   X               ",
"                    X y k c L M.n.s.s.=.=.u.4.7.M.n.>.F J n s s k W L Q =.;.j..XOX).3X,XA.g.8.8.,.] f                   ",
"                      g 2 3 a 6.,.7.7.3.4.7.7.&.$.` ) M s s J J ( >.m.8.4.s.B.Q.@XXXS.V.V.3.^ _ ! U .                   ",
"                      g X & j 6.>.>.&.,.,.&.~ S F K C u r u J J J ( b.>.! _ ^ -.V.V.! % % 8 9 q j B                     ",
"        X             X = O p Y Y S c S S c A V F F C n u r t n M K ' V 8 7 7 7 8 q % $ $ # : @ d Z                     ",
"        .               m X & a B B x V G V C B B k n d r - r t r < t 9 : , 8 9 ; @ > 6 > 3 u 3 k J X                   ",
"                          X o & i g g g g k h ; ; 1 < < - < - - t = , ; 9 f j i @ ; ; < 2 ; 1 1 d O                     ",
"            X                 2 X = = t & & & - = < & < r < 2 & < < , > k v.v.! ; > = > 6 3 t r s X X                   ",
"                                      X   * * & & 2   X   X y & o , 2 ; x v.v.Y # , w j f f s p h                       ",
"              .                   .   =   . X o X       y X . 2 . o > , k [ b.! f z R 2.b.m.[ K C X                     ",
"                                          X                     . o 6 5 f ! b.n.7.3.5.8.,.b.) K K .                     ",
"                                                                  y i i F ~ b.n.M.<.7.a.a.n.` F F .                     ",
"                                                                      k u F #.#.,.t.a.y.y.7.#.A V                       ",
"                                                                        u z z L #.t.y.y.y.a._ H H o                     ",
"                                                                        ; 0 d F ~ n.n.&.^ ) K j k                       ",
"                                                                            i p k P P g = * * * *                       ",
"                                                                              o & & = < & = * *                         ",
"O                                                                                       .   X   .                       ",
"                                                                                X   . X X . . X . X                     ",
"+                                                                                                                   +   ",
"                                                                                                                +       ",
"{   + +                                                                                                       + +   {   ",
"                                                                                                                {       ",
"| { { + +                                                                                                     {     |   ",
"| | { {                                                                                                           | | | ",
"| | | {                                                                                                         | | | | ",
"| |                                                                                                           +   | | | "
};
