/* XPM */
static char *result[] = {
/* columns rows colors chars-per-pixel */
"60 60 239 2 ",
"   c #000000",
".  c #080508",
"X  c #090609",
"o  c #0B090C",
"O  c #140401",
"+  c #1E0304",
"@  c #1A0B02",
"#  c #14010D",
"$  c #1B020B",
"%  c #180D0E",
"&  c #0A0516",
"*  c #0C051B",
"=  c #140414",
"-  c #1B0213",
";  c #1C0914",
":  c #140519",
">  c #1B061B",
",  c #140C1C",
"<  c #1D0C1A",
"1  c #1A1418",
"2  c #23060B",
"3  c #250816",
"4  c #2C1710",
"5  c #261618",
"6  c #3E3014",
"7  c #0E0A21",
"8  c #150B24",
"9  c #160A27",
"0  c #1C0A22",
"q  c #1A1727",
"w  c #190630",
"e  c #260B23",
"r  c #2A1929",
"t  c #351826",
"y  c #251733",
"u  c #1E2024",
"i  c #372727",
"p  c #32232B",
"a  c #2B2635",
"s  c #3B2A38",
"d  c #4B3519",
"f  c #4A2B2D",
"g  c #532B28",
"h  c #4A392D",
"j  c #593629",
"k  c #492B37",
"l  c #422C3D",
"z  c #4A3438",
"x  c #563638",
"c  c #633B3B",
"v  c #52413A",
"b  c #694539",
"n  c #755639",
"m  c #372B44",
"M  c #353542",
"N  c #4A2A49",
"B  c #532F4B",
"V  c #4B3345",
"C  c #483548",
"Z  c #4C344B",
"A  c #543545",
"S  c #5A3543",
"D  c #5B3C44",
"F  c #52354C",
"G  c #5A334E",
"H  c #533B4A",
"J  c #583C48",
"K  c #562E54",
"L  c #4A395A",
"P  c #5A3656",
"I  c #533C53",
"U  c #643C46",
"Y  c #623A5B",
"T  c #563A61",
"R  c #613961",
"E  c #4D4444",
"W  c #5A444B",
"Q  c #4D4253",
"!  c #5B4858",
"~  c #674648",
"^  c #725349",
"/  c #664757",
"(  c #66515A",
")  c #765657",
"_  c #7D625B",
"`  c #5C506A",
"'  c #694A65",
"]  c #645361",
"[  c #6C5E65",
"{  c #755A66",
"}  c #7B5A63",
"|  c #7C5F76",
" . c #7C6169",
".. c #7D6874",
"X. c #991217",
"o. c #A81319",
"O. c #ED1C24",
"+. c #84513A",
"@. c #845D5B",
"#. c #866658",
"$. c #926954",
"%. c #97745A",
"&. c #9C7A5D",
"*. c #825E67",
"=. c #836365",
"-. c #87666C",
";. c #8B6C6D",
":. c #936C68",
">. c #967463",
",. c #9B7464",
"<. c #9C7B65",
"1. c #94736B",
"2. c #9A746B",
"3. c #9C7B6C",
"4. c #886876",
"5. c #8D6C74",
"6. c #916E72",
"7. c #956D79",
"8. c #8A7377",
"9. c #957474",
"0. c #9B7473",
"q. c #987B75",
"w. c #93767B",
"e. c #9A737C",
"r. c #9D7A7D",
"t. c #A37E62",
"y. c #A07769",
"u. c #A27C6B",
"i. c #A37C74",
"p. c #A27A78",
"a. c #978474",
"s. c #A78468",
"d. c #B28B6F",
"f. c #AA8472",
"g. c #A3827B",
"h. c #A88778",
"j. c #C09B7D",
"k. c #D1A87A",
"l. c #DAB37E",
"z. c #936C84",
"x. c #8F7481",
"c. c #9A7382",
"v. c #967884",
"b. c #A57D83",
"n. c #9D8586",
"m. c #A88788",
"M. c #B28E82",
"N. c #B58F8A",
"B. c #AD918F",
"V. c #B69485",
"C. c #B5928B",
"Z. c #BC9B8A",
"A. c #A78894",
"S. c #BE9A96",
"D. c #BEA294",
"F. c #BB9EA3",
"G. c #B9A0A1",
"H. c #C49F92",
"J. c #C9A589",
"K. c #D1AE87",
"L. c #D2AB8D",
"P. c #C9B48A",
"I. c #D8B587",
"U. c #DDB984",
"Y. c #D5B48D",
"T. c #DCB48D",
"R. c #DDBB8B",
"E. c #CAA797",
"W. c #D3AC95",
"Q. c #D2AC9B",
"!. c #CEB79B",
"~. c #D4B394",
"^. c #DBB593",
"/. c #D4BC94",
"(. c #DCBA93",
"). c #D4B39B",
"_. c #DBB59C",
"`. c #D6BF98",
"'. c #DCBB9B",
"]. c #E3BC84",
"[. c #E4B789",
"{. c #E3BB8B",
"}. c #E0AE93",
"|. c #E4B795",
" X c #E3BD93",
".X c #E2BC9C",
"XX c #C7A9A5",
"oX c #D2ADA6",
"OX c #D8B5A5",
"+X c #DBBAA4",
"@X c #D6B3AB",
"#X c #D6BCAD",
"$X c #DCBCAC",
"%X c #C3A7BA",
"&X c #D9BAB5",
"*X c #E3BDA3",
"=X c #E4BDAA",
"-X c #E3BEB3",
";X c #D5C08F",
":X c #DBC29A",
">X c #EBC286",
",X c #E5C18C",
"<X c #E4C194",
"1X c #ECC594",
"2X c #E4C29B",
"3X c #EAC49B",
"4X c #ECC998",
"5X c #F2C698",
"6X c #DCC2A8",
"7X c #DEC1BA",
"8X c #E4C3A4",
"9X c #EAC6A3",
"0X c #E5C7A8",
"qX c #ECCAAD",
"wX c #F3D1AF",
"eX c #E8C5B6",
"rX c #F0CEB1",
"tX c #EDD3B6",
"yX c #F6D4BC",
"uX c #FDDABA",
"iX c #E2BEC3",
"pX c #E6D0CC",
"aX c #FCDEC3",
"sX c #F9D9C7",
"dX c #E8D3D3",
"fX c #FBDAD5",
"gX c #FEE4C5",
"hX c #FAE4C8",
"jX c #FEE4CB",
"kX c #FFE9CD",
"lX c #EDE0DB",
"zX c #FFE4D3",
"xX c #FEEBD3",
"cX c #FBE7D9",
"vX c #FFF4D6",
"bX c #FFF1D9",
"nX c #FCEBE3",
"mX c #F8E9E6",
"MX c #FFF3EC",
/* pixels */
"O.O.O.X.                                                                                                        O.O.O.O.",
"O.O.                                                                                                          +   O.O.O.",
"O.  +                                                                                                       X.      O.  ",
"o.                                                                                                              X.X.o.  ",
"+   X.X.                                                                                                            +   ",
"                                                                                                                        ",
"                                                                                                                        ",
"                                                            o [ ( ! ] ] Q s .                                           ",
"                                                      = [ [ ..n.9.w.w...W z k o                                         ",
"                                              X . o { z.x.x.w.1.1.q.g.q.=.( ( /  .                                      ",
"                                                X G ' z.z.z.m.g.u.,.2.f.C.XXXXXXB.H                                     ",
"                                            o A ~ U U :.m.A.@XfXzXbXzXfXsXeXeX&XiXz                                     ",
"                                .   o ' ' / w.i.W.8X:X6X).!.#XmXmXnXlXcXfX$XOXeX7Xf o                                   ",
"                            . o ` T T K P *.1.u.Y.:XR.:X/./.6XnXlXcXcXbXbXaXjXzXsXu.g.% o                               ",
"                            Q m C N F A A b.%.d.T.:XR.2XtXtXsXbXmXlXcXjXgXjXkXaXyXH.;.=.J X                             ",
"                          ` Q ! F ' Y ~ ~ 2.d.j.(.,X;XwXkXkXkXlXcXhXbXjXgXvXvXuXzXqXh.g.6.J A . X                       ",
"                      o   Q J 8.x.XXiX@X@XqX^. X1X(./.0XkXkXhXxXvXhXkXgXuXkXjX8X^._.OX=XE.U S U o o                     ",
"                    o     W J -.r.r.-XE.W.|.|.<XR.R.Y.8XkXgXaXkXkXgXgXgXgXuXuX|.*X=XrX-XoXc x j A o                     ",
"                  o     H z x 6.h.y.*X^.^.3XU.].l.,X/.'.jXjXxXhXgXkXgXvXvXqXqX_.}.H.Q.Q.E.i.i.i.w.o . .                 ",
"                .     ! Q ~ b oX=X^..X{.{.R.].,XR.4X'.`.jXgXjXgXgXkXyXyX0Xf.f.>.i.,.i.p.i.y.2.i.9.X o                   ",
"                    C V z.p.y.}..XT.1Xl.l.,XU.4XU.<X'..XaXaXuX'.*X).OX<.>.2.0.0.p.:.e.0.p.2.p.p.5.P .                   ",
"                  ! V V 4.2.y.L.|.}.1Xl.l.].{.1XK.(.'.'.9X0X(.'..X).+Xh.1.6.8.5.4.*.5.-.*.@.0.0.;./ X   X               ",
"                  l A B b.m.d.^. X{.1XU.U.R.{.2X.X.X2X~.'. X(.L.9X9XQ.g.;.|  .J - $ 3 $ 2 t :.;.c.-.H o                 ",
"                  A Y / N.oXL. X X].,XR.]. X(.L.L.L..X^.<X2X X4XT.L.eXE.W A J H : 0 e > - 3 m.g.B.A.N H                 ",
"                  / k k U =X'.<X,XU.,X<X<X|..Xf.<.u._. X<X1Xl.{.I.T.eX@Xx C V m 0 8 : & o i dXpXmXdXU G . o             ",
"                  ' S S c W.T.(.;XR.R.:X:X'.+X<.,.,.^. X{.,Xl.l.1X3XW.E.z l l , 7 9 9 , 1 u lXlXmXfXS k k o .           ",
"              o   4.c.c.b.W.}.R.<X;XR.:X2X).#X3.i.2..X|.].>X>X>X].I.'.#X@ ; , , 7 9 * X o 5 mXmXmXiX/ *.( .   .         ",
"                  5.e.e.7.Q..X X3XR./.~.~.W.oX<.,.%.*X X{.].l.>XR.(.:X!.@ ; % = * 9 , a i s pXpXmXmX@X-XG.(   .         ",
"            o     v.e.e.0.L.L.L.'.*X).&.<.<.%.<.s.$.9XT.<X<X<X8X~.:X:XP.6 @ @ % = , 0 | w.w.a.s.xXxXzX!.#Xm.            ",
"          . o     6.e.e.y.y.t.y.J.-X0Xh.M.1.<.3.f.s.0X^. X(.T.'.'.:XP.0X:X@ O @ # ; - t r.r.V.V.tXsXtXD.g.2             ",
"          . o     *.p.p.0.y.i.$.p.H.S.C.B.p.1.g.!.).qX_.2X2X2X2X(.Y.2XP.:X  . h k k J J m.Z.yXyXeX7XS.$ 2 3       o .   ",
"            .       7.7.7.:.i.p.0.c f Y U 7.6.b.@X-X).).|.^. X|. X1X:X/.`.d d #X&XdXMXmXfXzXkXkX+XXX&X$ 3               ",
"            1       -.-.2.p.0.p.e.U G G G z.z.c.S.oXH.}. X|.(.[.5X[. XI.I.6X8X6X6XMXcXfXfXxXwXwXZ.G.A.- e               ",
"                    [ { *.7.b.c.z.Y R R K K Y G G g c =X^.T.[.[.[.l.5X3XT.J.J.s.h.OXOX'.~.(.K.K.n v h 5 $               ",
"            .       Z Z G S -.c.v.P K R R K K G ) c c k.{.(.1X].[.[.[.T.*Xt.s.%.%.~./.8X'.'.2X2X!.^ ^ _ x J %X          ",
"                &     Z B U *.c.c.F R N K K N k @.y.t.$.3X3X{.[.[.|.|..X^..X'.,.%.s.6X^.^.^.2X8X!.:X:X!.#X-XF.          ",
"                      L N t S } 4.P ! K K P e 2 2 :.<.$.;XR.K. X X X*XW.J.E.J.%.s.%.'._.rX~.*X.X:X:X;X/.$X@XB.          ",
"                        y # 3 k I H F N N F - O f #.>.s.(.`.8X2X.X_.).3.2.i.i.,.<.u.~.*X_.).Q.W.Z.;XP.4Xd.h.c           ",
"                        9 > > V I I N l s V a z ;.q.3.3.Q.).OX`.0X6X#Xw.6.0.0.q.>.>.0X0XE.H.M.M.b :X:XL.j j             ",
"                        q 8 : N Z m < = = < ..n.8.q.q.1.$X$X$X!.M.g.n.) *.*. .:.1.<.).oX=Xj f g b 6X~.W.n .             ",
"                          9 9 L ` m q = = = 8.x.n.~ ) ) m.m.9.a.4 O 5 - - t e ) ;.M.J.@X#X) x c ) H.H.M.                ",
"                    . u   * w L L m 0 : = < ] ( [ 3 $ $ 2 2 2 4   5 ; > e 3 3 $ ~ _ ^ C.S.v.*.} 7.0.g                   ",
"                      X   , y L m q * & & , = < = 1   - - - ; ; O p r e - > > 3 2 @ 2 b f ~ 7.c.p.y.j                   ",
"                          q a M 7 7 * q q * ,             r           l < - = ; % 3 2 z D D w.w.b.j.+.$.@.*.            ",
"                            u q ,                                 I Z V ; $ $ @ x W ~ #.#.#.C.C.=X}.}.=XJ.x     o       ",
"                                  a                                   ( k f f v 7X#X6X+X+X_.'.'.^.|.*X*XXXx H           ",
"                                                9 a                   n.w.8.6.g.#X6XqXL. X1X<X<X{.|.^.).!.=.z           ",
"                                                      & *     I P | v.v.r.1.q.3.E.j.k.k.{.l.>X>X].3X^.!.@XXX.           ",
"                                        o             *     m       ! / } 9.9.1.<.$.&.d.].l.4X1XR..X6X6Xn.Q o           ",
"                                                          q a     > # < 3 6.;.q.3.u.&.t.|.T.<X2Xs.f.h.v v E             ",
"                                                .             X   ,       8.8.v.8.=.) #.M.M.h.s.v 6 5 i o               ",
"                                                                                    s p r i p r % 1 1     X             ",
"+                                                                 .                                                 +   ",
"                                                                        .                                       +       ",
"X.    +                                                                       .                               @ +   X.  ",
"                                                                                                                X.      ",
"O.  X.  +                                                                                                     X.    O.  ",
"O.O.  X.                                                                                                          O.O.O.",
"O.O.O.X.                                                                                                        O.O.O.O.",
"O.O.                                                                                                          2   O.O.O."
};
