/* XPM */
static char *result[] = {
/* columns rows colors chars-per-pixel */
"60 60 240 2 ",
"   c #000000",
".  c #0A0506",
"X  c #0B050B",
"o  c #0B090C",
"O  c #180703",
"+  c #1E0304",
"@  c #14060A",
"#  c #1D040D",
"$  c #140B0D",
"%  c #1B0A0C",
"&  c #19120E",
"*  c #0D0414",
"=  c #0B0919",
"-  c #120513",
";  c #1A0312",
":  c #130B13",
">  c #1A0C14",
",  c #12041C",
"<  c #1B031A",
"1  c #120B1C",
"2  c #1B0D1A",
"3  c #0F1418",
"4  c #191419",
"5  c #1D141D",
"6  c #240907",
"7  c #230A17",
"8  c #261517",
"9  c #301810",
"0  c #3C3515",
"q  c #0B0627",
"w  c #0B042C",
"e  c #1B0C24",
"r  c #150928",
"t  c #1B1624",
"y  c #1E1428",
"u  c #150C37",
"i  c #120E3C",
"p  c #260C2C",
"a  c #27182B",
"s  c #341A28",
"d  c #2A1A34",
"f  c #341B32",
"g  c #1B2127",
"h  c #2A212E",
"j  c #352625",
"k  c #2C2433",
"l  c #3A2838",
"z  c #412F1B",
"x  c #411D2F",
"c  c #492A29",
"v  c #48362B",
"b  c #58362A",
"n  c #442737",
"m  c #5C2A3A",
"M  c #493738",
"N  c #57393B",
"B  c #623532",
"V  c #633438",
"C  c #4B4128",
"Z  c #5D422B",
"A  c #5B4536",
"S  c #704D2E",
"D  c #654C36",
"F  c #68553C",
"G  c #3D2B4E",
"H  c #482D46",
"J  c #572B49",
"K  c #4A3549",
"L  c #573646",
"P  c #5C334C",
"I  c #4D2D50",
"U  c #572E51",
"Y  c #4D3553",
"T  c #4A365B",
"R  c #543452",
"E  c #5B3354",
"W  c #573A57",
"Q  c #633946",
"!  c #6B3852",
"~  c #5B4749",
"^  c #5A4658",
"/  c #66494A",
"(  c #6A534A",
")  c #77514C",
"_  c #624B53",
"`  c #674658",
"'  c #754957",
"]  c #6B5453",
"[  c #6B595A",
"{  c #7B5B54",
"}  c #775758",
"|  c #7E6243",
" . c #6C605D",
".. c #7A6759",
"X. c #5B4565",
"o. c #754D67",
"O. c #6A5367",
"+. c #735564",
"@. c #7A5767",
"#. c #73576F",
"$. c #7A6568",
"%. c #7B6276",
"&. c #991217",
"*. c #A81319",
"=. c #ED1C24",
"-. c #86564F",
";. c #855B5C",
":. c #8C6D56",
">. c #896959",
",. c #987659",
"<. c #A2755C",
"1. c #825D66",
"2. c #835C73",
"3. c #845E7B",
"4. c #876669",
"5. c #946A68",
"6. c #8E726A",
"7. c #927464",
"8. c #9C7562",
"9. c #977867",
"0. c #9B736D",
"q. c #947B6D",
"w. c #9A7B6C",
"e. c #896876",
"r. c #946C75",
"t. c #966E7C",
"y. c #8B7578",
"u. c #937573",
"i. c #9D7375",
"p. c #947B73",
"a. c #9D7C75",
"s. c #94737D",
"d. c #9C747A",
"f. c #997C7C",
"g. c #A47866",
"h. c #A2756C",
"j. c #A27672",
"k. c #A47976",
"l. c #A9777E",
"z. c #A17B7B",
"x. c #A7885F",
"c. c #9B887A",
"v. c #A7836A",
"b. c #B3976F",
"n. c #A7877A",
"m. c #B5877A",
"M. c #A8937C",
"N. c #B69777",
"B. c #C68B7C",
"V. c #C59C7A",
"C. c #C9A77D",
"Z. c #D5B67E",
"A. c #916E81",
"S. c #9A7587",
"D. c #A17A86",
"F. c #A57C90",
"G. c #A78686",
"H. c #B38984",
"J. c #AB9483",
"K. c #B89889",
"L. c #B18E99",
"P. c #B79B99",
"I. c #BCA58A",
"U. c #B6A29C",
"Y. c #B496A2",
"T. c #BDA8A3",
"R. c #C29D83",
"E. c #C79B8A",
"W. c #C49E95",
"Q. c #C9A68A",
"!. c #D4A98C",
"~. c #C4B685",
"^. c #DBBA84",
"/. c #D4B48D",
"(. c #D9B58C",
"). c #D5BB8C",
"_. c #DDBC8C",
"`. c #C8A796",
"'. c #D3AB97",
"]. c #CAB99B",
"[. c #D3B394",
"{. c #DBB394",
"}. c #D6BD94",
"|. c #DCBB93",
" X c #D7B69C",
".X c #D4BB9B",
"XX c #DBBD9D",
"oX c #E2BE85",
"OX c #E1BD8C",
"+X c #E3B696",
"@X c #E2BC94",
"#X c #E3B69D",
"$X c #EBB699",
"%X c #E3BB9C",
"&X c #C6A7A3",
"*X c #D5AEA9",
"=X c #C8B3A5",
"-X c #D5BCA4",
";X c #DCBCA4",
":X c #D7B5A8",
">X c #DABAAB",
",X c #D8BBB8",
"<X c #E0AEA5",
"1X c #E2B5A4",
"2X c #E4BBA3",
"3X c #E2BCAC",
"4X c #EABCAA",
"5X c #E5BCB4",
"6X c #CCC18A",
"7X c #D9C48C",
"8X c #DCC193",
"9X c #D9C499",
"0X c #E4C289",
"qX c #E4C195",
"wX c #E2C29A",
"eX c #E6C69C",
"rX c #DAC4A5",
"tX c #D9C4B3",
"yX c #E6C6A6",
"uX c #F2CBAC",
"iX c #E9C8B6",
"pX c #EFD2B0",
"aX c #EAD3B7",
"sX c #F5D7B7",
"dX c #FCE5BC",
"fX c #DCC7C0",
"gX c #EDCDC3",
"hX c #F6D8C7",
"jX c #FDDCCC",
"kX c #FDDCD4",
"lX c #FBE1C3",
"zX c #FDEAC5",
"xX c #FEE4CC",
"cX c #FFEACB",
"vX c #FFF2CC",
"bX c #FEE3D2",
"nX c #FFEBD4",
"mX c #FDE6DA",
"MX c #FFF2D7",
"NX c #FFEBE7",
/* pixels */
"=.=.=.&.                                                                                                        =.=.=.=.",
"=.=.                                                                                                          +   =.=.=.",
"=.  +                                                                                                       &.      =.  ",
"*.                                                                                                              &.&.*.  ",
"+   &.&.                                                                                                            +   ",
"                                                                                                                        ",
"                                                                                                                        ",
"                                                                                                                        ",
"                                                                                                                        ",
"                                                      o o .                                                             ",
"                                                        & z.} V Q / $.s.O.k                                             ",
"                                              & a.n.G.H.5XkXgXiX*XK.f.f.+.M K ^                                         ",
"                                    3 u.G.>XbXNXmXbXbXjXnXbXyX>XiX'.n.k.i.;.! E o o . .                                 ",
"                                : p.y.`.>X>XgXbXxXjXbXnXnXlXxXyX X2XH.`.5XF.t.S.` o                                     ",
"                              o +.6.q.K.:X4XhXbXbXxXxXlXzXzXcXyX|.yX{.2X4Xk.l.S.! ! o                                   ",
"                            . L 6.M.v.`.iXhXxXbXbXxXcXzXvXvXzXyX}.wXwX#X+Xm.B.H.! m P o .                               ",
"                          ` _ } J.-X[.iXxXbXbXxXxXcXvXcXcXdXpX9XOX@XOX@X+X#X<X<X-.m ! ` o                               ",
"                        E 2.u.7.Q.9XwXlXnXbXbXbXxXjXlXsXtXrX9X7XOXoXoXoXOX@X2X1X5.m Q +.X.o                             ",
"                      Y P 1.0.v.Q.(.|.sXxXbXbXbXlXaXrXrX X%XeX7XZ.oX0X0XOX(.wX2X'.4.4.s.` ^ o                           ",
"                    . O.! ;.0.Q.@XqXeXuXjXbXnXbXbXaX].-XQ.{.eX@XoXoXoXZ.^.Z.}..XrXc.u.f.` K K o                         ",
"                  o o e.k.g.Q.2XOX@X|.%XsXxXkXhXhXaX-X'.m.R.XX+X@X@XoXOX0X9X9X.XtXG.$.$._ ~ ^ O.o .                     ",
"                o   o } ,.,.C.{.@X@X@X+XuXjXuXH.a.0.u.q.7.I.3X>X1X#X#X{.!.!.`.M.U.$.8 O $.p.y.~ K o o .                 ",
"                  . Y >.v.x.C.OX(.@X@X+X#X2X3XH.0.d.d.6.c.n.P.H.W.:X'.m.8.:.9 6 $ 4 2 % [ y.y.^ R o o o                 ",
"                * 5 t c.|.(.@XeXOX@X@X+X#X;X`.k.@.} $.$. .j 8 + { a.0.7.v.w.z & o $ * 2 [ %.#.^ Y Y o o                 ",
"              . X.U U z.%X|.@XOXOXqXqXwX[.K.{ 9 # 7 < - - 2 - # $.p.w.6.M.J.F & : 4 = * p < r d ^ T . X                 ",
"              k X.W ` G.wX%X(._.^.OX_.).| Z A s 7 d r q q = e 2 ~ p.n.J.gXmXNXG : * r , r r r p G G T o                 ",
"              h Y #.A.H.#X2X@X@XOX0X7X}.,.A v M y q w w q u 1 @ @ U.NXmXmXNXNX~ X : 1 a , , , r d u r o                 ",
"              . R e.D.k.R.{.+X_.OX8X7X7X9X..& - r u i i i w r 2 & U.bXnXhXfXtX[ l M 2 X . 2 2 = u w u X                 ",
"                H @.t.0.H.!.!.(._.)._.).].D $ 4 q w w u w r a h j -XbXkXP.p.u.T.tXtXl & . $ $ : 2 q = o                 ",
"                l @.d.0.g.g.,.V.wX|.8X}.].F O $ t w w w r e O.6.p.tXxXbXK.a.6.&X,X=Xv z 0 C C v > - = o                 ",
"                s o.d.j.k.g.8.Q.|.Q.}.XX9XF O @ 3 * r e , ; [ c.7.iXbXjXn.{ ) `.rX].F C.6X9XrXT.[ 8 3 X                 ",
"                f @.i.j.j.h.h.m.v.v.K.[.rXD 6 8 $ X - 7 7 v p.N.m.iXsXgX) 6 6 6.K.pX7X7X6X~.9XrX].j X .                 ",
"                k L 4.l.d.k.r.0.5.;.;.E.1X3X:.v.>XrXrX>XhXMXcXdXpXbXK.e.2.x 7 6 M.).7X7X7XpXx.9.p.8 X                   ",
"                . l ;.d.d.D.j.r.-.V B l.3X1X:X+XuX[..XrXiXcXdXsXsXhXn.@.o.s # + M.9X6X7X+XXXg.w.u.8 :                   ",
"                  n { t.t.A.D.d.' m V R.5X<X2XyXOXC.C.~.pXpX9XyX-X-X@.L I p p % M.6X7X8X1X;Xm.i.r.s .                   ",
"                  : } e.2.A.S.S.;.m m l.4X#X$X+X$XV.<.:.[.9X/.XX.X;X-.N ' / / N I.].9X9X{.2Xv.0.6.$ .                   ",
"                  G O.%.#.e.A.3.o.J m m.4X+X@X$X$XB.g.<.E.2X%X+X%X#X<.-.!.;X2X X;XrX9X9X7X8Xb.,.c.v j                   ",
"                    t t H H I I E U Q D.2X+X$X!.V.l.h.g.N.{.%X%X+X%X+X{.yX%X[.wXXX-X}.b.}.}..X7.} N                     ",
"                      t e E E E E ' ' k.Q.Q.Q.n.g.h.j.8.<.C.|.|.|.|.+XqX@XV./.yX|.N.b.D `.:X>Xc # @ .                   ",
"                        7 E U U J 2.S.D.w.7.v.:.8.a.6.9.,.Q.Q.Q.{.{.@XQ.v.S N.|.;X| b b P.,X,Xn X X .                   ",
"                      K P E E E E #.A.s.p.p.q...( ] ] ( D n.n.w.E.1X2X:.Z b K.3X-X>.b / S.Y.F.H d d                     ",
"                    o h l J I R W ` ` ] ] ] / j % O # 6 + ] 6.u.&X>X>X) b ) j.G.G.} ] e.^ L U J R I   .                 ",
"                      5 5 K H f l p 2 - 4 % @ % 7 % # < < O.@.+.S.L.D.@./ r./ Q P 2.S.F.` L J U R G                     ",
"                        o 5 d = 1 = , * 2 2 ; ; l n s e < H f # j L Q 1.d.l.@.L Q o.t.s.r.s.s.S.` l                     ",
"                          o 3   q 3 = = a d a s +.S.' s ; ; 7 7 s b N ' i.G.L.r.e.e.L.P.gXNXkXNX+.                      ",
"                            3 . 3 g 3 1 y H R L 2.F.t.n 7 % M ( / :.:.:.n.`.>X:X,X,XkXbXMXmXkXNX~   .                   ",
"                                g o 3 = q d G W 2.A.S./ M Z n.-X X9X9X|.).9XXX9X X-XxXcXcXgXgXkX~                       ",
"                                        t t p p 2.S.z.z.6.p.I.;X.X|.wXwX8XeXpXpXaXiXlXnXxXiX,X*X.                       ",
"                                        . .   * l  .a.d.u.7.W.'.Q./.}.).eXdXdXdXvXcXxXnXhXgXfX*X. .                     ",
"                                                4 l v ] 4.4.H.n.,.K.2XyXsXcXxXxXmXbXNXmXT.G.G.S.                        ",
"                                                  . . s J Q 3.d.i.K.*X5XiXkX:XP.P.P.Y.Y.@.K L H                         ",
"                                                    . : p l W M N M ~ _ [ $.~ n l l l l l l h .                         ",
"+                                                     5 y a d : : X * * = y d k k k k k k h t                       +   ",
"                                                                          . . .   .   .         .               +       ",
"&.    +                                                       .   . . . .         .                           + +   &.  ",
"                                                                                                                &.      ",
"=.  &.  +                                                                                                     &.    =.  ",
"=.=.  &.                                                                                                          =.=.=.",
"=.=.=.&.                                                                                                        =.=.=.=.",
"=.=.                                                                                                          +   =.=.=."
};
