/* XPM */
static char *result[] = {
/* columns rows colors chars-per-pixel */
"60 60 241 2 ",
"   c #000000",
".  c #0C0204",
"X  c #06050A",
"o  c #0B070A",
"O  c #0B090C",
"+  c #140404",
"@  c #1E0304",
"#  c #18070B",
"$  c #120C0D",
"%  c #1B0C0B",
"&  c #090716",
"*  c #0D061D",
"=  c #0C0A1C",
"-  c #150513",
";  c #1A0517",
":  c #140B13",
">  c #1A0914",
",  c #12061C",
"<  c #140A1B",
"1  c #1A0A1D",
"2  c #0E101A",
"3  c #1B131A",
"4  c #200C02",
"5  c #21080A",
"6  c #210A19",
"7  c #281818",
"8  c #341D1C",
"9  c #0C0626",
"0  c #0D0B23",
"q  c #0D092B",
"w  c #130D23",
"e  c #160924",
"r  c #150D2C",
"t  c #0F1223",
"y  c #191526",
"u  c #140D32",
"i  c #271727",
"p  c #2B1D2D",
"a  c #2A2227",
"s  c #392629",
"d  c #28263A",
"f  c #392634",
"g  c #42291C",
"h  c #49332C",
"j  c #57382B",
"k  c #472D3A",
"l  c #5C2F38",
"z  c #473539",
"x  c #533B34",
"c  c #583738",
"v  c #653532",
"b  c #4F4330",
"n  c #594538",
"m  c #74523D",
"M  c #372840",
"N  c #4E2F43",
"B  c #5A2F49",
"V  c #443744",
"C  c #4B3544",
"Z  c #4D3945",
"A  c #4C354C",
"S  c #4B3B4D",
"D  c #553645",
"F  c #5A3B45",
"G  c #573948",
"H  c #533C49",
"J  c #493851",
"K  c #4C3E53",
"L  c #513B53",
"P  c #63384F",
"I  c #3F4150",
"U  c #584548",
"Y  c #54494F",
"T  c #4F4356",
"R  c #544454",
"E  c #594958",
"W  c #69484A",
"Q  c #744B4D",
"!  c #64534E",
"~  c #6A524D",
"^  c #785747",
"/  c #654B56",
"(  c #774C54",
")  c #675356",
"_  c #6E535B",
"`  c #735454",
"'  c #765957",
"]  c #72545C",
"[  c #7B5D5B",
"{  c #5A4E6B",
"}  c #5F5062",
"|  c #685A66",
" . c #735C64",
".. c #785A67",
"X. c #695B73",
"o. c #6B6268",
"O. c #7B6564",
"+. c #786469",
"@. c #766473",
"#. c #991217",
"$. c #A81319",
"%. c #ED1C24",
"&. c #825949",
"*. c #8C4E56",
"=. c #885D56",
"-. c #87675A",
";. c #986C58",
":. c #8D725D",
">. c #94725B",
",. c #AC7D5F",
"<. c #865C66",
"1. c #885B71",
"2. c #866967",
"3. c #926D66",
"4. c #8C746C",
"5. c #9C7564",
"6. c #93756A",
"7. c #9B746C",
"8. c #96786C",
"9. c #9B7B6C",
"0. c #886974",
"q. c #946D75",
"w. c #8B7777",
"e. c #937574",
"r. c #9B7473",
"t. c #947A74",
"y. c #9D7D74",
"u. c #92767C",
"i. c #9B767E",
"p. c #937A7B",
"a. c #9B7B7A",
"s. c #A37766",
"d. c #A37A6D",
"f. c #AA6D75",
"g. c #A37B74",
"h. c #A47878",
"j. c #99816E",
"k. c #9D8275",
"l. c #A9836B",
"z. c #B88A6E",
"x. c #A48474",
"c. c #A68978",
"v. c #B48979",
"b. c #AF937C",
"n. c #B5937E",
"m. c #B89879",
"M. c #C99B7A",
"N. c #C9A47E",
"B. c #9C6F84",
"V. c #897883",
"C. c #947C84",
"Z. c #A27B8B",
"A. c #9B8387",
"S. c #AC8D83",
"D. c #A88987",
"F. c #A48B8B",
"G. c #B78B84",
"H. c #AC9689",
"J. c #B29482",
"K. c #BC9C84",
"L. c #B8968A",
"P. c #AC9490",
"I. c #B49998",
"U. c #BFAD9F",
"Y. c #B89CA3",
"T. c #BAA5A9",
"R. c #C48F88",
"E. c #C59B88",
"W. c #C69C97",
"Q. c #C8A588",
"!. c #D3A78A",
"~. c #DAB48B",
"^. c #DABB88",
"/. c #DDBC8B",
"(. c #C9A697",
"). c #CEAB94",
"_. c #D5AA98",
"`. c #CDBC99",
"'. c #D8B796",
"]. c #DDBB93",
"[. c #D6B39C",
"{. c #DCB39B",
"}. c #DDBB9C",
"|. c #E1BD8C",
" X c #E5AE96",
".X c #E7B896",
"XX c #E4BC95",
"oX c #E3B499",
"OX c #E2BB9C",
"+X c #C6ABA5",
"@X c #C7B1A7",
"#X c #D5B6A4",
"$X c #DAB4A4",
"%X c #DCBBA4",
"&X c #D4B6AA",
"*X c #DCB6A9",
"=X c #D6B8AB",
"-X c #DCBBAA",
";X c #D6BAB6",
":X c #DCBCB3",
">X c #E2BCA3",
",X c #E7B9A8",
"<X c #E2BCAC",
"1X c #E6BBB5",
"2X c #E3BEB4",
"3X c #D7C38C",
"4X c #CDC396",
"5X c #DDC193",
"6X c #D9C39E",
"7X c #E2C18C",
"8X c #E4C399",
"9X c #F1CD9C",
"0X c #DAC3A8",
"qX c #DCC2B3",
"wX c #E4C2A3",
"eX c #E9C6A7",
"rX c #E4CCA4",
"tX c #EDD2AF",
"yX c #E2C2B3",
"uX c #E6C7B9",
"iX c #EFD2B6",
"pX c #F8D9B6",
"aX c #FDE4BD",
"sX c #D9BAC1",
"dX c #DDC2C1",
"fX c #E3CAC3",
"gX c #EAD3CB",
"hX c #F8D7CA",
"jX c #FCDCD7",
"kX c #F5E1C2",
"lX c #FEE4C3",
"zX c #FFE9C5",
"xX c #FFE5CC",
"cX c #FFEACC",
"vX c #FFE2D3",
"bX c #FEE7D8",
"nX c #EDDDE4",
"mX c #F5DEE1",
"MX c #FFE9E4",
"NX c #FAE8EA",
"BX c #F6E8F3",
/* pixels */
"%.%.%.#.                                                                                                        %.%.%.%.",
"%.%.                                                                                                          @   %.%.%.",
"%.  @                                                                                                       #.      %.  ",
"$.                                                                                                              #.#.$.  ",
"@   #.#.                                                                                                            @   ",
"                                                                                                                        ",
"                                                                                                                        ",
"                                                    X   O o.E z X                                                       ",
"                                            O ] +.A.A.w.w.0.w.p...F F D o                                               ",
"                                        $ u.a.r.e.4.4.4.k.k.y.k.-.Q ( Q P ..O                                           ",
"                                    : p.t.r.7.7.g.S.S.D.c.l.n.%X1X1X*XW.r.B.+.k f V                                     ",
"                                O +.F.D.S.G.v.n.[.hXvXvXxXpX8XwX_. X,X_.h.h.q.W ) E T                                   ",
"                      X       | o.w.@X-XuXjXjXjXcXbXbXcXxXpX].].XX.X8XE.d.L.L.h.u. .A A                                 ",
"                            X.C.w.k.0X}.rXxXzXxXcXcXcXkXpXiX8X~.|.7X|.|.XXXX!.g.e.<.G B E     X                         ",
"                          } @.w.4.j.0XrXtXcXcXcXxXkXpX0X6X}.'.~.7X7X|.|.7X8X'.Q.v.G.1.B D     $ X X                     ",
"                          | +.e.H.U.pXcXlXlXlXxXcXcXzXiX8X5X5X5X7X7XN.|.|.|.,X,X$X1XD.l h U                             ",
"                        o.C.e.c.0X}.rXlXzXzXcXcXlXlXpXrX6X/././././././.'.XXOX'._.*Xg.j W ) Y   O O                     ",
"                    O   o.e.3.x.wX8XeXpXpXpXpXpXtXeX8X5X/.3X^./.7X7X5XXX5X}.'._.eX<Xv.&.x.t.Z   O O O                   ",
"                    O   o.t.l.n.OX~.|.7X~..X8X>XOX'.].].5X7X^.5X8X'.Q.Q.).).J.n.[.>X'.[.>Xk.k     O X                   ",
"                         .6.;.z..X|..X8XXXOX,XOX}.}.}./././.^./.'.K.l.7.9.9.6.J.<X0X%XwX%XJ.` A     O X                 ",
"                        ..d.;.z..XXX~.N.N.!.).).).}.rX8X].XX5XwX<XW.y.4.p.p.4.e.H.J.b.Q.`.%Xk.L J   O                   ",
"                        +.l.z.M.~.9X!.l.>.>.9.9.c.Q.0X8X'.}.%X).S.D.u. .....Z 5 8 x x :.}.}.h.G J                       ",
"                        C.oX X8X.X{.OXQ.l.x.8.6.6.t.j.c.K.).(.-.4 5 6 6 ; 1 1 ; s F x 4.$X'.g.B J   X                   ",
"                        C.l.oX>X>X>X[.j.[ ` ) ] ] n 7 + g 8.y.` 5 6 ; , e e e < i s s 2.2XOXd.D L                       ",
"                      V.C.d.,X>X).b.j.x @ ; - ; 1 # + + h k.y.W > - - w * 9 0 0 , - : _ *XXX5.B L                       ",
"                      X._ ^ [.<XJ.j b s > - 9 9 * < : O z P.I.+.+ $ 3 w w 0 & 0 & - y | =X.Xg.F L                       ",
"                      E G ^ yX=XL.n x i , r u q 9 0 0 2 } MXbXY.3 : & & = t 2 0 * * y L L..XL.] o                       ",
"                      L k W 2X&XP.h i < e 9 q q q q 0 = z @XMXT.! Y Y T y y t t = * = = [ XX$XB.o                       ",
"                      T D ' 2X#XI.h % : < q q u r e M ) ! 9.uXuXgXNXNXT.f T d : O : 3 $ ` (.I.0.L                       ",
"                        C W W.*X%Xc.4 + : 0 * r i f q.jXbX,X5.5.W.bXmXY.U x s s ! n b b O.@.A E                         ",
"                        Z c ~ :XqXb.% % $ = , d L D <.jXbXyX7.7.P.dXdXY.p.w.O.D.bXgX0X0Xy.D C E                         ",
"                        K U ` ;X&Xc.4 + # , e y K / P.1X1XI._ _ ..C.B.Y.mXbXMXMXbXiX#X}.y.D _ o.R                       ",
"                        S A  .@X;XJ.@ 7 U ) { @.V.Y.dX4.u.} ; ; k V.C.+XNXMXjXhX1X*X,X,XG.-.D.C.U                       ",
"                          T @.A.D.x.n -.fXbXnXBXnXNXqX4.V.{ e r f @.@.F.jXhXhX_.;.v. X,X,X<X*XP.O O                     ",
"                          X.R Z x m >X[.uXMXMXjXNXNXfXj.+.{ r , 6 k D ' L.#XyXE.d.s.v.1X{.%X-X=X$                       ",
"                          X.E c x m M.oXeXgXyX;XuXgXqXb.x J M 1 > 7 x x -.%X%Xn.=.=.f.W.E.~.[.#X$                       ",
"                          E E ] =.;.,..X X_.5.y.H.#X#Xm.h Z f # 5 g 3.-.l.0X#Xx.j x ` i.7.m.wXyXO.                      ",
"                    O     J C  .*XoX X.X X!.;.s.b.`.>XN.-.2.[ ~ m :.}.}.}.6X0Xc.x x _ C.t.n.K.9.~                       ",
"                          S H [ <XoX X X!.z.&.&.5.%XeXXX}.-X&X*X-X>X[.6X}.}.qXk.g s Z } ) ^ n % a                       ",
"                          S H ' ,X,X Xz.s.=.v c =.>XOXXX].%X>X{.}.!.l.z.K.%X&X4.% - < w O 4 % + 7                       ",
"                          S H ] ;X#X(.d.7.2.l c [ -XOXQ.l.l.K.<X{.E.&.j &.L.sXF.k > 1 w < : 3 p                         ",
"                            S o.;X;X+Xt.0.U s s U S.}.Q.m j ^ L.$X,Xh.v l 3.sXsXV.f p e * t d                           ",
"                            T | F.0.+./ C 1 e , 7 c =X0Xm.b j -.:X+Xq.( ( 0.Z.F.0.A N f q & 2                           ",
"                      X       | R : : < e 9 e r 1 Z +Xl.6.! ~ ..Z.0.( Z.B.1.P B B A A M & & X                           ",
"                                  = = w 9 9 u d p C 0.c W r.Z.2.v l Q f.7.=.l c W _ _ f X                               ",
"                                    d d 9 9 p K A L C N ( f.f.*.v *.f.R.R.v.;.:.6.k.w.z     X                           ",
"                                      I w w e H H D F W g.K.n.J.3.v.,X$X}.>X>X%XL.k.a.o   *                             ",
"                                        & < f | ] ( h.R.0X4X4X4X`.`.0X[.6X].%X%X(.a.U X X                               ",
"                                          & s ] e.h._.,X,X^.3X4X].6XtXtXtXtXwX0XqXA.a                                   ",
"                                            . 8 g.d.v. X.X3X9XrX8XaXzXzXzXzXiXqXH.z                                     ",
"                                              s [ ^ 5.<XOXrXzXaXzXbXzXbXcXcXw.O.U V                                     ",
"                                                a s ! D.c.H.`.U.U.+XP.2.U s a f o                                       ",
"  5             +                                 3 ! w. .+.0.) E ) z 3 $ 3       X                   +             5   ",
"                                                                X   X                                           @       ",
"  #.    @     .                                   X o       X                                                 5 @   #.  ",
"                +                                                                                               #.      ",
"  %.  #.  @                                                                                                   #.    %.  ",
"%.%.%.  #.                                                                                                        %.%.%.",
"%.%.%.%.#.                                                                                                      %.%.%.%.",
"%.%.%.                                                                                                        @   %.%.%."
};
