/* XPM */
static char *result[] = {
/* columns rows colors chars-per-pixel */
"60 60 238 2 ",
"   c #000000",
".  c #0B0404",
"X  c #050409",
"o  c #0A050B",
"O  c #0B090B",
"+  c #160704",
"@  c #1F0304",
"#  c #12020B",
"$  c #120D0D",
"%  c #19120D",
"&  c #0C0314",
"*  c #090716",
"=  c #0C021A",
"-  c #140314",
";  c #1B0713",
":  c #140B12",
">  c #12041A",
",  c #1A031B",
"<  c #130B1B",
"1  c #1B0C1C",
"2  c #0E131B",
"3  c #181316",
"4  c #1C131B",
"5  c #220605",
"6  c #23120E",
"7  c #270917",
"8  c #350F19",
"9  c #261618",
"0  c #342315",
"q  c #0E0920",
"w  c #140322",
"e  c #1B0623",
"r  c #140A22",
"t  c #1C0B23",
"y  c #190A2B",
"u  c #1A1326",
"i  c #1E132A",
"p  c #220C23",
"a  c #260929",
"s  c #300B2A",
"d  c #281626",
"f  c #241A25",
"g  c #241B2B",
"h  c #2E1D2D",
"j  c #351928",
"k  c #271733",
"l  c #351D33",
"z  c #2A2227",
"x  c #2D273C",
"c  c #312433",
"v  c #35253C",
"b  c #332A3A",
"n  c #3D2839",
"m  c #461F36",
"M  c #4D2F29",
"N  c #582D2E",
"B  c #472B3B",
"V  c #562E37",
"C  c #493236",
"Z  c #58363C",
"A  c #633B3F",
"S  c #69423E",
"D  c #3B2845",
"F  c #3B304A",
"G  c #462745",
"H  c #442C44",
"J  c #4C2C43",
"K  c #4C2E4A",
"L  c #542D47",
"P  c #45334A",
"I  c #483748",
"U  c #4B344C",
"Y  c #593644",
"T  c #53354D",
"R  c #5B344C",
"E  c #54394C",
"W  c #593B4C",
"Q  c #512C52",
"!  c #4B3553",
"~  c #4D3A53",
"^  c #483A59",
"/  c #523A53",
"(  c #573857",
")  c #5B3B53",
"_  c #643B49",
"`  c #623C58",
"'  c #563761",
"]  c #5B4249",
"[  c #514154",
"{  c #55415A",
"}  c #6B4647",
"|  c #66455A",
" . c #714D52",
".. c #785557",
"X. c #7D6A5A",
"o. c #5B4663",
"O. c #70566F",
"+. c #7E5869",
"@. c #7E6760",
"#. c #7C6774",
"$. c #991217",
"%. c #A81319",
"&. c #ED1C24",
"*. c #82565A",
"=. c #8C6856",
"-. c #966A57",
";. c #956B5C",
":. c #98755D",
">. c #9D745E",
",. c #A2765C",
"<. c #855B6B",
"1. c #886769",
"2. c #8B6B6A",
"3. c #956D62",
"4. c #966C6C",
"5. c #986A6B",
"6. c #8B7467",
"7. c #967467",
"8. c #9D7364",
"9. c #9C736C",
"0. c #9C7D6C",
"q. c #876576",
"w. c #856B74",
"e. c #8C6C74",
"r. c #946B73",
"t. c #9B6E73",
"y. c #976A7A",
"u. c #946D7B",
"i. c #8B737D",
"p. c #947574",
"a. c #9B7273",
"s. c #94737C",
"d. c #9B7579",
"f. c #9B7B79",
"g. c #A36C69",
"h. c #A27663",
"j. c #A2756D",
"k. c #A67C6C",
"l. c #A97D69",
"z. c #A16F7C",
"x. c #A47373",
"c. c #A37B74",
"v. c #AB7977",
"b. c #A2737B",
"n. c #A47B7B",
"m. c #B17B77",
"M. c #9E8372",
"N. c #A68267",
"B. c #B18467",
"V. c #AB8373",
"C. c #A78378",
"Z. c #B28775",
"A. c #BB927E",
"S. c #CAAB7B",
"D. c #8A6A82",
"F. c #936B83",
"G. c #8B7884",
"H. c #957785",
"J. c #9B7B82",
"K. c #9B7691",
"L. c #A57A84",
"P. c #98808E",
"I. c #AE8B8C",
"U. c #A48597",
"Y. c #ADA088",
"T. c #BAA28B",
"R. c #B9A996",
"E. c #BBAFA5",
"W. c #C49B84",
"Q. c #C79A94",
"!. c #CCA58C",
"~. c #D5AB8A",
"^. c #CDB28C",
"/. c #D3B385",
"(. c #DCB586",
"). c #D7BE87",
"_. c #DCB985",
"`. c #D5B48C",
"'. c #DBB58B",
"]. c #D6BB8C",
"[. c #DDBC8C",
"{. c #CAA899",
"}. c #D3AB94",
"|. c #D6AB99",
" X c #CDB89A",
".X c #D5B593",
"XX c #DBB593",
"oX c #DDBC93",
"OX c #DCB59C",
"+X c #D6B898",
"@X c #DCBC9A",
"#X c #E1BC87",
"$X c #E2BC8D",
"%X c #E1B696",
"&X c #E1BC93",
"*X c #E2BC9B",
"=X c #E9BD9B",
"-X c #C9A9A8",
";X c #D6ACA8",
":X c #CFB5AD",
">X c #DCB3A3",
",X c #DCBDA5",
"<X c #D7B8A8",
"1X c #D9B6B1",
"2X c #E4BCA3",
"3X c #E5BAA4",
"4X c #E7BCB0",
"5X c #D9C18E",
"6X c #DDC294",
"7X c #DCC19A",
"8X c #E3C295",
"9X c #EAC396",
"0X c #E5C29C",
"qX c #EAC29B",
"wX c #E6CA9C",
"eX c #EDCA9B",
"rX c #DBC3A5",
"tX c #E5C4A3",
"yX c #EAC4A3",
"uX c #E8CBA6",
"iX c #E3C5AB",
"pX c #ECC4AC",
"aX c #F1CCA8",
"sX c #ECD5A8",
"dX c #F2D4AE",
"fX c #EAC4B6",
"gX c #F9DAB6",
"hX c #FAE7BA",
"jX c #FDE2BE",
"kX c #F4CCC0",
"lX c #FCDBC7",
"zX c #FFE4C3",
"xX c #FBE3C7",
"cX c #FEEBC4",
"vX c #FFECCC",
"bX c #FFF0C8",
"nX c #FFECD2",
"mX c #FFF7D3",
/* pixels */
"&.&.&.$.                                                                                X   X                   &.&.&.&.",
"&.&.                                                                                                          @   &.&.&.",
"&.  @                                                                                                       $.      &.  ",
"%.                                                                                                              $.$.%.  ",
"@   $.$.                                                                                                            @   ",
"                                                                                                                        ",
"                                                                    X                                                   ",
"                                                    O W I n B X                                                         ",
"                                                    . . . Z V R Y | { F                                                 ",
"                                              o V } N  .Q.1X;X-X1.1.#.n O O   X                                         ",
"                                    X X O e.r.1X1XQ.;XQ.4X<X1X4XM.p.f.] Z ]                                             ",
"                                    4 ] ..r.c.-X4X3X4X3XOX>XiX,XT.M.M.<X X-X:X:                                         ",
"                                o K E C } 2.0.V.!.2X*X0X.XtXgXzXnXxXuXmXiXOX>X9.9.                                      ",
"                            * ' ( ) ] M M C.fXxX*X%XXX].&XuXgXbXcXhXbXhXXX2X.X,.8.c.$ X O                               ",
"                          O.O.q.i.s.-X:X-XlXxXvX@X8XeX/.wX5XsXmXhXcXhX#X#XqXXX%X2X{.C.$ $                               ",
"                        X T Y 2.n.f.:X:X<XvXvXjX6X8X5X6X5X7XhXhXvX7X*X&X*X*X%X*X@X.X:.N.$ . X                           ",
"                        # ` _ x.8.=.2XiXrXlXjXhX8X5X6X5X^.7XvXvXnX@X@X%X&X*X*X@X&XoXoX^.T.O X .                         ",
"                        O L V Q.>XpXzXlXgXcXcXcXsX6X7X6X5X7XcXjXzX+XoXoX&X&X&X&XoX&XuXuXrX3 O O X                       ",
"                        $ H.L.>X3XXXgXnXmXvXcXzXsX@X].6XtXoXtX7XuX@XoX[.&X&X&XoX$XoX`.7XiX<XZ                           ",
"                      o ` y.4.v.>X*X0XgXjXdXyXtXyXoX.X.XwX^.`./.8X8X[.8XoX$X&X$X$X[.8X`.@X,X2.: $ X                     ",
"                      X J y.x.3.3X=X`.8XaXoXXXXXyX*XpXOXtX`.*XoX[.[.[.#X5X$XoX$X$X$X=X$X%X+X0.I.$ o                     ",
"                      o W y.a.8.OXXX[.8XqX`.*X*X2X}.OX}.yX@XyX8X_.[.[.5X5X[.&X$X$X$X#X9X*XOX3.t.y.O X                   ",
"                      H W q.4.k.OXoX&X_.$X`.aX3X|.Z.h.N.OXXXqXoX(.9X5X[.$X$X&X$X&X$X#X=X~.3Xj.b.r.O n                   ",
"                    X P E q.d.j.|.0X[.#X$X$X%XpX}.h.;.h.fX3X~.qX(.[.S.wX8XoX%XoX=X$X$X=X=X~.>Xx.b.O v X                 ",
"                    O [ J 8 5 5 {..X[.[.$X&XXX=XOXA.8.V.W.>.,.!.dX3X%XwXXXoXyX*X%X%X~.(.%X3X;X5.y.: r                   ",
"                    X D / l 8 5 Y.rX8X_.8X&XXX*X2X|.8.8.k.j.k.k.|.}.*X@X!.OXpXOX%XXXB.l.,.Z.x.r.F.q.X                   ",
"                    * o./ v 7 6 5 T.oX_.#X9XoXXX2X2XN.8.3.c.x.Z.{.kX2XOXV.3.:.;.l.m.,.-.-.;.4.L.I.+.X                   ",
"                    x k = 7 # 9 . :X0X(.[.8X8XoX*X*X:.8.k.n.*.d.N N M =.0.0.v.x.j.;.j.h.m.t.L.q.F.( q X                 ",
"                    x y > k - . 0 R.7X`.[.8X$XoX8X.XN.:.9.a.t.I.L _ A j.n.9.5.5.v.9.j.3.n.a.r.V ) D g                   ",
"                    ^ k w e 1 < I E.@X].oX&X[.oX8XoX:.;.9.a.L.q.R R A 5.a.d.b.z.L.t.x.t.a.d.s.Y ) ~ * X                 ",
"                    ^ y e a I ] b :XrX].6X6X].oX0X+X:.V.t.V ` R F.K.r.n.a.t.z.t.x.x.t.n.4.f.L.1.W n 2 O                 ",
"                X & F v , # V M  .{.7X5X).].].`.7X>X7.c.d.u.L ` ( F.d.x.9.x.g.x.v.g.5.v.4.f.s.e.+ # 2 X                 ",
"                X X ^ w d 8 8 S Q.,X[.).5X).8X0X*XyXfXn.1.H.R K G K.y.r.L.v.x.x.m.x.x.b.5.n.p.w.; $ 2 X                 ",
"                  X a , q.d.n.|.yX@X[.'.8X(.=X=XW.}.<Xd.d.y.a 7 - ` Y Y d.r.b.b.z.z.z.5.q.y.w.#.7 O 2                   ",
"                  X r - w.6.3.}.%X8X[.#XeXS.&X%X,.l.j.N _ Y ; s a J L J K.q.F.y.y.y.q.` W W J E , < X                   ",
"                  u & . p.C.8..X8X(.(.#XeX(.=X=X,.h.j.N _ _ 7 , a Q ( H D.) ) Y _ ` ` L T / ! P = *                     ",
"                  . o ; 1.=.:.`.'.8X#X$XqX'.=X*Xl.;.9.} Z _ Y ` K a r e ( P K K K K K B ! ~ ^ D w *                     ",
"                    & 9 2.6.V.0X[.S.&X8X&XXX*X@XA.8.p.C.H.q.O.! G w = y F ! ~ ! ( K D k y = y y * X                     ",
"                      . ..f.7.!.oXN.^.7X.X@X@X,X|.C.6.f.e.P.#.P ^ ^ r y w r & & r > r < = * q X X                       ",
"                      : X 2.p.p.6.M.7.rX XrX<X XR.6.@.1.w.#.& q r w i = r = r < & t : & r r * X                         ",
"                      - - w.i.s.J.1.X.Y.R.R.R.Y.0 + 6 . 3 9 & g u r & > u u i 4 X X X X . X X                           ",
"                        1 B q.D.q.8 + . % % . 0 + 9 % . 4 & * * * q i 4 i c [ z O       O X                             ",
"                        X h / U l - 3 $ + 3 % . . 6 9 z : o t & r i P ~ [ [ b 4                                         ",
"            O             v v G p p o z $   9 O 9 G.G.i.d 1 4 > < & / / I I f     .                                     ",
"                          X I { t p & * f & : ; ; | P.G.h # - t l t a U ( c     .                                       ",
"                            b P p > k = r g 1 1 n 9 G.G.q.c l B ~ T K ( h 4                                             ",
"                            g { ! g y a k B j 7 i.J.H.w.U.H I / I E B d 1                                               ",
"                            g v D ! ' ' D.K.t.9.x.9.f.K.G.I ~ b f d 1 d                                                 ",
"                            X & e ! ' Q F.F.m.g.l.g.5.r.| z c h O o                                                     ",
"                              & w v G m <.*.*.} *...j j d h c .       X *                                               ",
"                              & & g l B  .*.*.*...] 9 j X         .                                             O       ",
"                              X & X X . o . . # . X X     X X                                                           ",
"  @                                   . o O o O                                                             X       @   ",
"                                X                                                                               @       ",
"  $.    @                                                                                                     @ @   $.  ",
"                                                                                                                $.      ",
"  &.  $.  @                                                                                                   $.    &.  ",
"&.&.&.  $.                                                                                                        &.&.&.",
"&.&.&.&.$.                                                                                                      &.&.&.&.",
"&.&.&.                                                                                                        @   &.&.&."
};
