/* XPM */
static char *result[] = {
/* columns rows colors chars-per-pixel */
"60 60 224 2 ",
"   c #000000",
".  c #0B0305",
"X  c #06040B",
"o  c #0A050B",
"O  c #0C090B",
"+  c #170707",
"@  c #1F0304",
"#  c #11020E",
"$  c #1B040C",
"%  c #120C0E",
"&  c #17140B",
"*  c #0D0513",
"=  c #0E0B13",
"-  c #0E071A",
";  c #120313",
":  c #1C0214",
">  c #130B14",
",  c #1A0B13",
"<  c #13031B",
"1  c #1E071C",
"2  c #150C1B",
"3  c #1B0B1B",
"4  c #181515",
"5  c #15111A",
"6  c #1C121C",
"7  c #230506",
"8  c #29140D",
"9  c #240619",
"0  c #2C191A",
"q  c #252414",
"w  c #190723",
"e  c #1C0B22",
"r  c #1D1423",
"t  c #1C1825",
"y  c #250F27",
"u  c #251B24",
"i  c #281829",
"p  c #341A28",
"a  c #2C1D32",
"s  c #351A34",
"d  c #1C202A",
"f  c #292329",
"g  c #372428",
"h  c #2F2932",
"j  c #392536",
"k  c #47331F",
"l  c #4D3426",
"z  c #422A33",
"x  c #492B3B",
"c  c #552C38",
"v  c #4B3139",
"b  c #56383A",
"n  c #643935",
"m  c #674837",
"M  c #70403E",
"N  c #3F2D47",
"B  c #3E3147",
"V  c #492C47",
"C  c #562D47",
"Z  c #4C3344",
"A  c #473548",
"S  c #4A3B4E",
"D  c #543543",
"F  c #5B3543",
"G  c #553B43",
"H  c #55344D",
"J  c #583A4A",
"K  c #532E53",
"L  c #4A3652",
"P  c #533C53",
"I  c #5C3D55",
"U  c #5A3759",
"Y  c #623747",
"T  c #653C57",
"R  c #5A4349",
"E  c #594458",
"W  c #694447",
"Q  c #6C4F4D",
"!  c #78544E",
"~  c #674A56",
"^  c #764C56",
"/  c #6B565B",
"(  c #78585B",
")  c #78615A",
"_  c #584361",
"`  c #634965",
"'  c #764C67",
"]  c #785A66",
"[  c #7A5472",
"{  c #6E6266",
"}  c #786166",
"|  c #796376",
" . c #991217",
".. c #A71319",
"X. c #ED1C24",
"o. c #83574A",
"O. c #88665C",
"+. c #976C59",
"@. c #907254",
"#. c #987159",
"$. c #A57A5D",
"%. c #835B69",
"&. c #825772",
"*. c #84656E",
"=. c #896969",
"-. c #946C62",
";. c #926A6A",
":. c #947162",
">. c #9B7266",
",. c #9D7963",
"<. c #95726A",
"1. c #9B756C",
"2. c #987A6E",
"3. c #876776",
"4. c #956C78",
"5. c #887579",
"6. c #937472",
"7. c #9B7374",
"8. c #9C7A73",
"9. c #947579",
"0. c #9C747A",
"q. c #997B7C",
"w. c #A37563",
"e. c #A2756B",
"r. c #A37B6B",
"t. c #A97B69",
"y. c #A57A76",
"u. c #A37B7B",
"i. c #978377",
"p. c #AB856D",
"a. c #B0856E",
"s. c #A98678",
"d. c #B38977",
"f. c #B4927A",
"g. c #B9957B",
"h. c #C69D7E",
"j. c #DCC27D",
"k. c #916C83",
"l. c #997685",
"z. c #A47B85",
"x. c #A37C92",
"c. c #9B8B87",
"v. c #B89687",
"b. c #B18F90",
"n. c #B6AD96",
"m. c #B89CA5",
"M. c #BDACB0",
"N. c #C59D83",
"B. c #C69D8A",
"V. c #C29994",
"C. c #CAA68A",
"Z. c #D4A987",
"A. c #CEB68C",
"S. c #D9B78C",
"D. c #DCBC8D",
"F. c #C7A696",
"G. c #D3AC97",
"H. c #CBB498",
"J. c #D5B594",
"K. c #DBB593",
"L. c #D6BC93",
"P. c #DDBB93",
"I. c #D3B49D",
"U. c #DBB59C",
"Y. c #D5BD9D",
"T. c #DCBB9C",
"R. c #E0BE86",
"E. c #E4B88D",
"W. c #E1BC8C",
"Q. c #E3BB93",
"!. c #E6B893",
"~. c #E3BC9B",
"^. c #C39CA9",
"/. c #C7A7A6",
"(. c #D8ADA6",
"). c #CAB4A7",
"_. c #D4B4A3",
"`. c #D8B7A6",
"'. c #DCBBA3",
"]. c #D4BBAC",
"[. c #DDBEAC",
"{. c #C7A7B5",
"}. c #D6B4B6",
"|. c #E5B8A7",
" X c #E3BDA4",
".X c #E5BCAB",
"XX c #E3BBB2",
"oX c #E9BFB2",
"OX c #DDC083",
"+X c #D9C18B",
"@X c #D7C397",
"#X c #DBC293",
"$X c #DCC39C",
"%X c #E7C297",
"&X c #E3C29B",
"*X c #DBC3A2",
"=X c #DFC8A9",
"-X c #DCC3B8",
";X c #E2C3A4",
":X c #E6C8A7",
">X c #E4C2AB",
",X c #E6C8B8",
"<X c #ECD5B7",
"1X c #F0D2B7",
"2X c #F5E1BD",
"3X c #DEBACA",
"4X c #DFC2C8",
"5X c #E4CAC1",
"6X c #EED3C0",
"7X c #F4DCC2",
"8X c #F9D9C6",
"9X c #FDDDCD",
"0X c #F6DCD4",
"qX c #F7E2C7",
"wX c #FBE4C4",
"eX c #FEE3CC",
"rX c #FFE9CD",
"tX c #FDE6D3",
"yX c #FFECD4",
"uX c #FFEBDA",
"iX c #FFF4D8",
"pX c #FAD4ED",
"aX c #FDEDE2",
"sX c #FFE8F5",
/* pixels */
"X.X.X. .                                                                                                        X.X.X.X.",
"X.X.                                                                                                          @   X.X.X.",
"X.  7                                                                                                        .      X.  ",
"..                                                                                                               . ...  ",
"@    . .                                                                                                            @   ",
"                                                                                                                        ",
"                                                          o F F ~ 3.| E E _ _ X                                         ",
"                                    . O     & <.>.v.|.(.(.V.(.b.7.l.} Z x Z L P `                                       ",
"                                        6 8X9X9X8X,X|.G.|..XoXV.-.r.O.G b G v ~ ~ S O                                   ",
"                              .     4 H.iXtX9XtX8X8XU.(..X|.G.C.f.Y.I.F.F.v.6.q.*.Z A O                                 ",
"                                  6 $X*XyXrXeXtXtXuXtX9X1X'.%XQ.Z.#X X~.>XC.-.1.=.b R E O                               ",
"                                  -X*X$XrXeXtXtX0X9X9XtX1XJ.&X#XD.Q.P.K.~.N.#.v.v.;.*./ E                               ",
"                                4 tXqX2XyX7XqXtXuXtXtXtX2X$XA.#X#X+XW.E.E.K.K.U.`.v.i.l.{ E                             ",
"                              & v.7XwX7XiXiXiXaXaXtXtXyXeX<XL.+X+XD.E.%X!.!.!.~. XB.<.q.] Z o O                         ",
"                            O 7.<.C.yX7X6XqX0XtXtXuXuXiXiX2X*X@X#X+XE.E.%XE.Q.~.~.U._.`.l.G H O                         ",
"                          O ( }.(.'.'.I.=XyXuXuXtX0XyXwX2X<X@XL.#X&XQ.Q.E.Q.!.Q.Q.&X>XXXs.c P O O                       ",
"                      O H J Y (.|..X,X.XoXtXeXyXrXeX<X:X;X$XL.S.P.&X~.~.Q.!.!.Q.Q.Q.J.I.s.b Q O O                       ",
"                      O V F O.XX|.|.|.B.t.a.r.f.Y.;X*XS.L.&XP.D.P.K.K.J.T.~.Q.D.D.Q.~..XF.;.;.*.O                       ",
"                      O I ~ ;.d.w.+.t.t.+.w.w.d.~.~.P.S.Q.Q.!.!.!.Z.f.g.Z.~.&XP.D.Q.K.K.I.v.y.4.O .                     ",
"                      ` k.4.q.-.w.t.e.y.e.>.,.p.~.P.#XW.%XR.E.E.!.N.+.r.v.K.~.Q.Q.%X~.~. XV.y.0.O o X                   ",
"                    . E 4.0.7.2.+.6.9./ p 0 Z b ) [.P.+Xj.R.R.E.!.B.e.t.d.|.|.|.:X!.h.$.,.2.0.0.% .                     ",
"                    . C ' z.l.) q & , 6 < s U I / H.#XOXj.j.R.!.~.G.t.>.e.t.+.d.U.|.N.#.w.1.z.l.[ .                     ",
"                    . I C l.3.{ . % % 3 < y L P ] >X@X+Xj.j.R.Q.~.B.+.e.e.e.y.V.`..XN.r.r.<.0.4.Y                       ",
"                    X I T k.x.k.. O 5 3 w < w w b ).P.+Xj.D.R.W.~.C.r.r.>.u.;.y.z.n o.-.-.7.u.z.' : .                   ",
"                    j V ' x.pXM.u 6 > > w w ; # R *X@XL.OXOXR.!.~.~.(.(.F.=.4.z.Y c ^ y.y.z.4.4.F 9   e                 ",
"                    i K &.pXsX4Xo , * > - r e 1 R n.Y.+XOX+XW.W.~.T.'.[.5X/.3.l.%.c c ^ 0.y.4.%.^ s   X                 ",
"                    u T &.pXsX}.$ . > t X e 3 o + Q @X@XD.D.W.Q.Q.~.'._.}.{.x.3.[ T T ' l.4.%.F c i   o                 ",
"                    u D C ' sX0X4Xi.5.{ 6 ; > $ @ l _.@X+X#XW.W.Q.&Xf.l c b C T T K T ' k.k.%.F C i                     ",
"                    f 5X}.-XqXyX<Xi.| { o , + 8 8 l '.P.&X%XD.D.Q.T.f.l b F C K U K U [ l.l.| s : .                     ",
"                    f i.5X,XyXrX:X@.i.) Q aX0X-X).6X*XY.P.Q.D.Q.Q.S.p.m b F C T U K V K H V z : #                       ",
"                    . c.).H.7X=X@XiXiXuX5XuX8X]._.I.'.T.T.P.P.P.W.P.C.r.1.Q 9 9 s U _ U P Z j o o                       ",
"                      + + g ,XH.*XqX7XuXeXtX,X'.[.=X`.;X X~.Q.P.D.&XC.@.:.%.9 9 s V V V P _ N 2                         ",
"                      > + k ).].[.uX9X2X9X&XK.+.+.#.A.;X XT.&XQ.P.L.P. X8.=.W 9 c ~ 9 1 f S i                           ",
"                      > ; j m.G ( [.|.:XK.E.S.!.a.p.N.G.F.A.~.$XD.&X~.N.-.<.c.z.l./ , , a h X                           ",
"                      B r < w A H Q ~.S.E.~.%Xh.#.#.p.g.s.g.K.$XD.Q.~.C.p.:.<.6.9.R + % 5 5   O                         ",
"                      S * , p R F O.!.Q.~.E.E.Z.$.#.w.r.:.p.Y.$XH.Y.I.v.<.6.=.3.5.E , O O                               ",
"                    X j 0 0 k :X+X@X$XD.%X!.Z.Z.$.+.w.w.-.i.).n.n.M.5., . , 2 * - 2 = =                                 ",
"                      { ).].*XA.%XA.A.L. X~.|.C.w.$.t.W 7 8 + & 4 4 2 * r 2 - * - - X                                   ",
"                      ~ }.].I.$X$X$XI.`._._.XXV.y.y.^ 7 @ , % > O = 5 < * * e t - X   .                                 ",
"                    X / /.).F.*XP.g.n b Q /.3X}.4.4.%.9 9 ; < 6 5 5 * 3 a S B h X X   X                                 ",
"                    5 f v b m m |.|.^.c F ' {.m.M.k.3.I w y y L L N e 1 i S S 5 X                                       ",
"                      6 z c M ! G.G.x.^ J W G H V ; 1 y - - s _ L s ; e a B f O                                         ",
"                      6 s z W ;.n n T ;.4.*.G D j : $ 9 9 y V I K V y h h - X                                           ",
"                        j J ] ;.n n n y.y.O.m Q b 0 g g z l.4.0.l.3.L A r X                                             ",
"                          E R ;.^ n o.t.a.g.U.[.'.].].F.6.2.6.1.7.*.S r O                                               ",
"                            Z ] 3XoX!.!.K.K.&XT.$X*XH.F.f.#.8.2.O.G u >                                                 ",
"                            X G ^.XX%X!.!.%XQ.P.J.L.I.I.v.,.,.m 7 . 6     X                                             ",
"                              z *.G.Z.R.!.E.Q.&X~.C.,.,.:.2.2.) +                                                       ",
"                              v Q -X&X&X&XT.K.T. XF.1.8.9.=.{ R     =                                                   ",
"                              h ~ -XY.L.Y.>X_.B.B.V.4.=.~ O = t X                                                       ",
"                              f { n.n.n.v.v.8.W c Y x g f X X =                                                         ",
"                              > f f f j j z x z j u t = 2                                                               ",
"@                             . f d t a h s s u t t d                                                               @   ",
"                                  X   X .   .                                                                   @       ",
" .    @                                                                                 .                     @ 7    .  ",
"                                                                                                                 .      ",
"X.   .  @                                                                                                      .    X.@ ",
"X.X.   .                                                                                                          X.X.X.",
"X.X.X...                                                                                                        X.X.X.X.",
"X.X.                                                                                                          @   X.X.X."
};
