/* XPM */
static char *result[] = {
/* columns rows colors chars-per-pixel */
"60 60 145 2 ",
"   c black",
".  c #020202",
"X  c #0C0C0C",
"o  c #140006",
"O  c #101010",
"+  c gray8",
"@  c #151515",
"#  c gray9",
"$  c #181818",
"%  c #1B1B1B",
"&  c #2B190B",
"*  c #271C14",
"=  c #241C17",
"-  c #25221F",
";  c #28221E",
":  c #2B231E",
">  c #2C231E",
",  c #36281B",
"<  c #202020",
"1  c gray13",
"2  c #232323",
"3  c gray14",
"4  c #252525",
"5  c #2C2723",
"6  c #27292A",
"7  c #282828",
"8  c gray16",
"9  c #2A2A2A",
"0  c #2B2B2C",
"q  c #2B2C2C",
"w  c #2C2C2D",
"e  c #2D2D2D",
"r  c gray18",
"t  c #36302B",
"y  c #3C342B",
"u  c #39322C",
"i  c gray19",
"p  c #323232",
"a  c #353637",
"s  c gray21",
"d  c #383939",
"f  c #393939",
"g  c #38393A",
"h  c #39393A",
"j  c #3A3C3C",
"k  c #3C3C3C",
"l  c gray24",
"z  c #411E04",
"x  c #401F06",
"c  c #63001F",
"v  c #402006",
"b  c #492103",
"n  c #4C2506",
"m  c #522504",
"M  c #5C2803",
"N  c #5C2B06",
"B  c #522909",
"V  c #542A09",
"C  c #562C0A",
"Z  c #572C0A",
"A  c #562C0B",
"S  c #572C0B",
"D  c #572D0B",
"F  c #502B0C",
"G  c #542D0E",
"H  c #582D0B",
"J  c #462D17",
"K  c #692E03",
"L  c #683106",
"P  c #693106",
"I  c #693206",
"U  c #60310B",
"Y  c #6B350A",
"T  c #743405",
"R  c #793706",
"E  c #7B3806",
"W  c #7B3906",
"Q  c #7C3806",
"!  c #7C3906",
"~  c #7D3906",
"^  c #6D3910",
"/  c #703F15",
"(  c #6C0022",
")  c #4F3823",
"_  c #794113",
"`  c #73431A",
"'  c #73441B",
"]  c #75441A",
"[  c gray26",
"{  c #434445",
"}  c #484949",
"|  c gray29",
" . c #515151",
".. c #515253",
"X. c gray32",
"o. c #525253",
"O. c #535353",
"+. c #535454",
"@. c #535455",
"#. c #5B5C5C",
"$. c #5D5D5D",
"%. c #626363",
"&. c #626364",
"*. c #656565",
"=. c #666767",
"-. c #6D6D6D",
";. c #823F0A",
":. c #990030",
">. c #89410A",
",. c #8C420A",
"<. c #8C430A",
"1. c #8E430A",
"2. c #8C440C",
"3. c #8D440C",
"4. c #8F450C",
"5. c #864915",
"6. c #8F4911",
"7. c #914A12",
"8. c #904D17",
"9. c #924F19",
"0. c #935019",
"q. c #945019",
"w. c #945119",
"e. c #895020",
"r. c #885323",
"t. c #955621",
"y. c #985721",
"u. c #945824",
"i. c #955824",
"p. c #945A25",
"a. c #955A25",
"s. c #975A24",
"d. c #965B25",
"f. c #975B27",
"g. c #985C27",
"h. c #9A5D27",
"j. c #9B5D27",
"k. c #9C5E27",
"l. c #9D5E27",
"z. c #995D28",
"x. c #9A5E28",
"c. c #9A5E29",
"v. c #9B5F29",
"b. c #9D5F28",
"n. c #9E5F28",
/* pixels */
":.:.:.c                                                                                                         :.:.:.:.",
":.:.                                                                                                          o   :.:.:.",
":.  o                                                                                                       c       :.  ",
"(                                                                                                               c c (   ",
"o   c c                                                                                                             o   ",
"                                                                                                                        ",
"                                                                                                                        ",
"                                                                                                                        ",
"                                                                                                                        ",
"                                                                                                                        ",
"                                                                                                                        ",
"                                                      X 4 1 s % 3 .                                                     ",
"                                                  4 8 [ %.{ a @.$.p 9 %                                                 ",
"                                                2 *.=.q     z.>.>.z.-.} @                                               ",
"                                              7 k |       B r.>.>.I ) j  .+                                             ",
"                                               .+.        3.x.2.2.7.p.K &.#                                             ",
"                                            O #.        _ 2.z.z.2.6.g.1.l p                                             ",
"                                            p 0       z 0.2.z.2.z.6.g.<.y $.1                                           ",
"                                            X.t       T 0.2.z.2.2.6.g.,.G +.r                                           ",
"                                            f >       ! 0.2.z.2.2.6.g.j.C d <                                           ",
"                                            e =       ! 0.2.z.2.2.6.g.j.C w $                                           ",
"                                            o.u       E 0.2.z.2.2.6.g.s.V ..i                                           ",
"                                            f :       Q 0.2.z.2.z.6.a., * f <                                           ",
"                                            e =       ! 0.2.z.2.2.6.i.5 - e $                                           ",
"                                            o.u       E 0.2.z.2.z.6.g.e.n o.i                                           ",
"                                            f :       Q q.3.z.z.2.6.g.k.S d <                                           ",
"                                            e =       ! 5.;.z.z.9.6.g.j.C w $                                           ",
"                                            o.u       E b N c.9.9.6.g.j.D ..i                                           ",
"                                            f :       R F m c.9.9.6.g.j.A d <                                           ",
"                                            e =       W U L x.9.9.6.g.j.C w $                                           ",
"                                            o.u       E 8.2.z.9.9.6.g.j.D ..i                                           ",
"                                            f :       Q 0.2.z.9.9.6.g.j.A d <                                           ",
"                                            e =       ! 0.2.z.9.9.6.g.j.C w $                                           ",
"                                            o.u       E t.2.z.9.9.6.g.j.D ..i                                           ",
"                                            f :       Q t.2.z.9.9.6.g.l.Z d <                                           ",
"                                            e =       ! t.2.z.9.9.6.d.J & e $                                           ",
"                                            o.u       E t.2.z.9.9.6.u.6 7 O.i                                           ",
"                                            f :       Q t.2.z.9.9.6.f.] x g <                                           ",
"                                            e =       ! t.2.z.9.9.6.g.n.D w $                                           ",
"                                            o.u       ~ y.4.v.w.w.7.h.b.H ..i                                           ",
"                                            h ;       M / P ' ^ ^ Y ` ] v h <                                           ",
"                                                                                                                        ",
"                                                                                                                        ",
"                                                                                                                        ",
"                                                                                                                        ",
"                                                                                                                        ",
"                                                                                                                        ",
"                                                                                                                        ",
"                                                                                                                        ",
"                                                                                                                        ",
"                                                                                                                        ",
"                                                                                                                        ",
"o                                                                                                                   o   ",
"                                                                                                                o       ",
"c     o                                                                                                       o o   c   ",
"                                                                                                                c       ",
":.  c   o                                                                                                     c     :.  ",
":.:.  c                                                                                                           :.:.:.",
":.:.:.c                                                                                                         :.:.:.:.",
":.:.                                                                                                          o   :.:.:."
};
