/* XPM */
static char *c61a9a8173ae4594ace25ea08b7f34f4YDHJQkbzMVy4rQbc[] = {
/* columns rows colors chars-per-pixel */
"60 60 15 1 ",
"  c black",
". c #1F0304",
"X c #63321D",
"o c #70371E",
"O c #464646",
"+ c #991217",
"@ c #A81319",
"# c #990030",
"$ c #C21922",
"% c #ED1C24",
"& c #9C5A3C",
"* c #2F3699",
"= c #546D8E",
"- c #709AD1",
"; c white",
/* pixels */
"%%%+                                                    %%%%",
"%%                                                     . %%%",
"% .                                                   +   % ",
"@                                                       ++@ ",
". ++                                                      . ",
"                                                            ",
"                                                            ",
"                                                            ",
"                                                            ",
"                                                            ",
"                                                            ",
"                                                            ",
"                                                            ",
"                                                            ",
"                              %;                            ",
"                             ;;%;                           ",
"                            ;;;;;;                          ",
"                            OO;OO;                          ",
"                            ;;;;;;                          ",
"                            %;;;;#                          ",
"                             %;#;                           ",
"                        *************                       ",
"                       ***************                      ",
"                       **$-*******=***                      ",
"                       **$-*******=***                      ",
"                       $$*-*******=**$                      ",
"                       ***-%$*****=*$*                      ",
"                       $**-*******=**$                      ",
"                       **  **$****$ **                      ",
"                      %$$  *****$%* $$$                     ",
"                       $$  ******** %$                      ",
"                          &ooo&ooo&                         ",
"                          &oXXXoXX&                         ",
"                         &ooXXX&XX&                         ",
"                         &ooXXooooo                         ",
"                         ooXXXoooo&                         ",
"                         ooXXX &oX&                         ",
"                         &oXX& &ooo&                        ",
"                          &XXo  &oX&                        ",
"                          &XXX  ooX&                        ",
"                           XX&   oX&                        ",
"                           ##     ##                        ",
"                           ##     #&                        ",
"                         ###&   ##X#                        ",
"                         #&XX   &X#X                        ",
"                                                            ",
"                                                            ",
"                                                            ",
"                                                            ",
"                                                            ",
"                                                            ",
"                                                            ",
".                                                         . ",
"                                                        .   ",
"+  .                                                   .. + ",
"                                                        +   ",
"% + .                                                  +  % ",
"%% +                                                     %%%",
"%%%+                                                    %%%%",
"%%                                                     . %%%"
};
