/* XPM */
static char *e712aa3ad1fd495aa3aa9aee94edab0cV2s24W30KS7VxCSA[] = {
/* columns rows colors chars-per-pixel */
"60 60 15 1 ",
"  c black",
". c #1F0304",
"X c #63321D",
"o c #70371E",
"O c #464646",
"+ c #991217",
"@ c #A81319",
"# c #990030",
"$ c #C21922",
"% c #ED1C24",
"& c #9C5A3C",
"* c #2F3699",
"= c #546D8E",
"- c #709AD1",
"; c white",
/* pixels */
"%%%+                                                    %%%%",
"%%                                                     . %%%",
"% .                                                   +   % ",
"@                                                       ++@ ",
". ++                                                      . ",
"                                                            ",
"                                                            ",
"                                                            ",
"                                                            ",
"                                                            ",
"                                                            ",
"                            %;                              ",
"                           ;;%;                             ",
"                          ;;;;;;                            ",
"                          OO;OO;                            ",
"                          ;;;;;;                            ",
"                          %;;;;#                            ",
"                           %;#;                             ",
"                      *************                         ",
"                     ***************                        ",
"                     **$-*******=***                        ",
"                     **$-*******=***                        ",
"                     $$*-*******=**$                        ",
"                     ***-%$*****=*$*                        ",
"                     $**-*******=**$                        ",
"                     **  **$****$ **                        ",
"                    %$$  *****$%* $$$                       ",
"                     $$  ******** %$                        ",
"                         &XXXXXX&                           ",
"                        &&XXXoXXo&                          ",
"                        &oXXXoXXo&                          ",
"                        &oXXXoXXoo                          ",
"                        &oXXX&XX&&                          ",
"                        &XXXo&XXXo                          ",
"                        &XXXoo&XX&                          ",
"                        &XXX&&&XX&                          ",
"                        &XX&& &oo&                          ",
"                        &XXo  ooX&                          ",
"                        &XXX  ooX&                          ",
"                         XX    oX&                          ",
"                         ##     ##                          ",
"                         ##     #&                          ",
"                       ###&   ##X#                          ",
"                       #&XX   &X#X                          ",
"                                                            ",
"                                                            ",
"                                                            ",
"                                                            ",
"                                                            ",
"                                                            ",
"                                                            ",
"                                                            ",
".                                                         . ",
"                                                        .   ",
"+  .                                                   .. + ",
"                                                        +   ",
"% + .                                                  +  % ",
"%% +                                                     %%%",
"%%%+                                                    %%%%",
"%%                                                     . %%%"
};
