/* XPM */
static char *result[] = {
/* columns rows colors chars-per-pixel */
"60 60 53 1 ",
"  c black",
". c #140006",
"X c #0F0F10",
"o c #191B1E",
"O c #391B0E",
"+ c #63001F",
"@ c #6C0022",
"# c #7A3B24",
"$ c #50555B",
"% c #575D67",
"& c #616672",
"* c #676D79",
"= c #990030",
"- c #B72127",
"; c #D30921",
": c #D50921",
"> c #D40A22",
", c #CA7C18",
"< c #F49E52",
"1 c #FDB165",
"2 c #9198AA",
"3 c #969EB1",
"4 c #B4A4A2",
"5 c #B5A6A3",
"6 c #AFB3B9",
"7 c #AEB3BA",
"8 c #B7B9BC",
"9 c #BABCBF",
"0 c #F9E4AC",
"q c #A5AFC3",
"w c #A8B1C2",
"e c #A9B4C9",
"r c #ADB6CB",
"t c #ABB6CD",
"y c #ACB7CE",
"u c #ABB7D0",
"i c #ABB8D1",
"p c #BFC4CF",
"a c #CBC3C3",
"s c #C0C4CB",
"d c #C5C9D2",
"f c #CCCED2",
"g c #D1C9D0",
"h c #CED0D4",
"j c #D3D6DE",
"k c #D7DAE3",
"l c #D7DBE3",
"z c #D6DAE4",
"x c #DBE2EB",
"c c #DDE1EB",
"v c #DFE3ED",
"b c #EBEDF3",
"n c #F0F3F7",
/* pixels */
"===+                                                    ====",
"==                                                     . ===",
"= .                                                   +   = ",
"@                                                       ++@ ",
". ++                                                      . ",
"                                                            ",
"                                                            ",
"                                                            ",
"                                                            ",
"                                                            ",
"                                                            ",
"                                                            ",
"                                                            ",
"                        >>>>>>>>                            ",
"                       >>>>>>>>>>                           ",
"                      >>>>>>>>>>>                           ",
"                      >>>>>><<<>>                           ",
"                      >>>>><X<X>>                           ",
"                      >>>>><<<<>>                           ",
"                      >>>>><<<<>>                           ",
"                      >>>>><--<>>                           ",
"                      >>>>$<<<%o>                           ",
"                      >>>>7***3&                            ",
"                      >>>>pgggggg<<                         ",
"                       <<ggg2ggg2<<<                        ",
"                      <<<ggg2ggg2<<<<                       ",
"                      <<<g22gg22g<<<<                       ",
"                     <<<< gggggg  <<<<                      ",
"                    <<<<  gggggg   <<<                      ",
"                    <<<   gggggg   <<<                      ",
"                   <<<   ###O,O##  <<<<                     ",
"                   01<  >>>>>>>>>   <<<                     ",
"                   000  >>:;>>>>>>  <<0                     ",
"                       >>>>>>>>>>>  00                      ",
"                       >>>>>>>>>>>>                         ",
"                       >>>>>>>>>>>>                         ",
"                       <<<<   <<<<<                         ",
"                       <<<<   <<<<<                         ",
"                       <<<<   <<<<<                         ",
"                       <<<<    <<<<<                        ",
"                       <<<<    <<<<<                        ",
"                       <<<<    <<<<<                        ",
"                       <<<<     <<<<                        ",
"                      snyh      a455                        ",
"                      eyl8      swui                        ",
"                      sbk8       dyy                        ",
"                      evyh       eqt                        ",
"                       yz9       e6e                        ",
"                       ccj       efr                        ",
"                       >x>       >e>                        ",
"                       >>>>>     >>>>>                      ",
"                       >>>>>     >>>>>                      ",
".                                                         . ",
"                                                        .   ",
"+  .                                                   .. + ",
"                                                        +   ",
"= + .                                                  +  = ",
"== +                                                     ===",
"===+                                                    ====",
"==                                                     . ==="
};
