/* XPM */
static char *a79ad850e774493283da22d49de9c15crr3EJdLltkImgHBn[] = {
/* columns rows colors chars-per-pixel */
"60 60 66 1 ",
"  c black",
". c #9A002C",
"X c #63001C",
"o c #140005",
"O c #151515",
"+ c gray1",
"@ c #010101",
"# c #231F20",
"$ c #353737",
"% c #510313",
"& c gray9",
"* c #040404",
"= c #232020",
"- c gray12",
"; c #6E051C",
": c #232021",
"> c #520514",
", c #212626",
"< c #222222",
"1 c #880025",
"2 c #7A001F",
"3 c #70001B",
"4 c #580314",
"5 c #550314",
"6 c #520412",
"7 c #4B0612",
"8 c #510413",
"9 c #4A1822",
"0 c #4C0614",
"q c #4A111D",
"w c #510312",
"e c #440814",
"r c #530413",
"t c #430B14",
"y c #440914",
"u c #570314",
"i c #1F1B1C",
"p c #2C1419",
"a c #570414",
"s c #41131B",
"d c #24181B",
"f c #520513",
"g c #530412",
"h c #22191B",
"j c #201A1B",
"k c #5B0416",
"l c #25181A",
"z c #25181B",
"x c #510815",
"c c #550414",
"v c #1F3935",
"b c #4C101B",
"n c #2F1419",
"m c #4A131F",
"M c #252120",
"N c #433520",
"B c #362C20",
"V c #272120",
"C c #322920",
"Z c #2D2418",
"A c #1B1818",
"S c #4D4034",
"D c #1F2020",
"F c #191A1A",
"G c #181919",
"H c white",
/* pixels */
"  .                                                      ...",
" ...XX                                                  ....",
"....XX                                                X   . ",
"  .                                                   X   . ",
"  .                                                       o ",
"  o XX                                                      ",
"                                                            ",
"                                  O++   +                  @",
"                                         +                  ",
"         @                        ######                    ",
"                                $##%%%%#   +                ",
"                           +   ###%#####                    ",
"                       & *   ###%%##$$$                     ",
"                     &  *  $##%%%##                         ",
"                          $##%####                          ",
"                   &   $####%###$$$$$   *                   ",
"                     $#####..%#######$$                     ",
"                    $####%%%.##%%%%%##$$                    ",
"                   $##.#%#=%##...%%%%%##$                   ",
"                   $#..###%##........%###                   ",
"             &-  $$##..#####...%%%#######$$            @    ",
"            +-  $###..........%%%#;;;;;;##$                 ",
"                ####.........%%%%#;;;;;;;##$                ",
"                #%##%%......%%%%#.;;;;;;;;#$$               ",
"               $#%%#%%......%%%##.;;;;;;####$               ",
"              $##%%#:%%%%..%%###.;;;;;>#>>>#$               ",
"              $#%%%;;,##%#####<..;>;;.#>>>>>#$              ",
"              $#%%%;;;;##;;;;;;;1;;;;.#>>>>>#$              ",
"               #%;;;;;;;;;;;;2344%1;;.#>...>#$              ",
"               #%5678>;;;;;;39#0q%%...#>...>#$              ",
"               #%w#e88;;;;;1r#t##yu...#>...>#$              ",
"               #%iip%8;;;;;as######...#>...>#$              ",
"              ##%iid#f;;;;;a######g...#>>..>#$              ",
"              #>%iih#r;;;;;>#####f6...%#>..>#$              ",
"              #>%iijfk;;;;;>#####l6.....#>>>#$              ",
"              ##%%%zxk;;;;;>%###j%c.....%#v##$              ",
"               $#%%%ck;;;;;;%>bnmkr##M##%%%##               ",
"  @            $#%%%k;####;###;;;;#######%##$               ",
"                ##%%;;##;###.#;;;##NB#NN#%##$               ",
"                iN##;;;#.....#;;#NN#NNNN###$                ",
"                #NN##;;###.###;;#NVNNNNNN##                 ",
"                #CNNN#%;####;;%%#N#NNNNNN#$                 ",
"                ##ZNN###;;;;;%%##MNNNNNN##$                 ",
"                 ##ANNN###%%%%%%##NNNN###$                  ",
"                  $####i$#########NNNNS##                   ",
"                    $$$$      $$$#NN####                    ",
"                                 ##N#$$                     ",
"                                  $$                        ",
"                      @+                                    ",
"                       Diiiii#$$F                           ",
"                      GGi$$$$###G                           ",
"                       i$$$$$$##$$$                         ",
" o                    $$$$$$$$$$###                       o ",
"                    iii$$$$$$$$$#$#                     o   ",
" X oo               i$$$$$$$$$$$$###                   oo X ",
"                    i$$i$$$$$$$$$# #                    X   ",
" .                  ii$$$$#####$$###                   X  . ",
"...XX                  ii$##$$$####                      ...",
"...XX                      ######                       ....",
" .                                                    X   . "
};
