/* XPM */
static char *result[] = {
/* columns rows colors chars-per-pixel */
"60 60 65 1 ",
"  c black",
". c #010101",
"X c gray1",
"o c #040404",
"O c #140005",
"+ c #151515",
"@ c gray9",
"# c #181919",
"$ c #1B1818",
"% c #191A1A",
"& c #1F1B1C",
"* c gray12",
"= c #2C1419",
"- c #2F1419",
"; c #22191B",
": c #201A1B",
"> c #25181A",
", c #24181B",
"< c #25181B",
"1 c #2D2418",
"2 c #231F20",
"3 c #1F2020",
"4 c #1F3935",
"5 c #232020",
"6 c #232021",
"7 c #222222",
"8 c #252120",
"9 c #272120",
"0 c #212626",
"q c #322920",
"w c #362C20",
"e c #353737",
"r c #4B0612",
"t c #4C0614",
"y c #430B14",
"u c #440814",
"i c #440914",
"p c #510312",
"a c #510313",
"s c #510413",
"d c #520412",
"f c #530412",
"g c #530413",
"h c #520513",
"j c #550314",
"k c #570314",
"l c #520514",
"z c #550414",
"x c #570414",
"c c #580314",
"v c #5B0416",
"b c #510815",
"n c #41131B",
"m c #4C101B",
"M c #4A111D",
"N c #4A131F",
"B c #63001C",
"V c #6E051C",
"C c #70001B",
"Z c #7A001F",
"A c #4A1822",
"S c #433520",
"D c #4D4034",
"F c #880025",
"G c #9A002C",
/* pixels */
"  G                                                      GGG",
" GGGBB                                                  GGGG",
"GGGGBB                                                B   G ",
"  G                                                   B   G ",
"  G                                                       O ",
"  O BB                            +XX   X                   ",
"                                         X                  ",
"                                  222222                   .",
"                                e22aaaa2   X                ",
"         .                 X   222a22222                    ",
"                       @ o   222aa22eee                     ",
"                     @  o  e22aaa22                         ",
"                          e22a2222                          ",
"                   @   e2222a222eeeee   o                   ",
"                     e22222GGa2222222ee                     ",
"                    e2222aaaG22aaaaa22ee                    ",
"                   e22G2a25a22GGGaaaaa22e                   ",
"                   e2GG222a22GGGGGGGGa222                   ",
"             @*  ee22GG22222GGGaaa2222222ee                 ",
"            X*  e222GGGGGGGGGGaaa2VVVVVV22e                 ",
"                2222GGGGGGGGGaaaa2VVVVVVV22e           .    ",
"                2a22aaGGGGGGaaaa2GVVVVVVVV2ee               ",
"               e2aa2aaGGGGGGaaa22GVVVVVV2222e               ",
"              e22aa26aaaaGGaa222GVVVVVl2lll2e               ",
"              e2aaaVV022a222227GGVlVVG2lllll2e              ",
"              e2aaaVVVV22VVVVVVVFVVVVG2lllll2e              ",
"               2aVVVVVVVVVVVVZCccaFVVG2lGGGl2e              ",
"               2ajdrslVVVVVVCA2tMaaGGG2lGGGl2e              ",
"               2ap2ussVVVVVFg2y22ikGGG2lGGGl2e              ",
"               2a&&=asVVVVVxn222222GGG2lGGGl2e              ",
"              22a&&,2hVVVVVx222222fGGG2llGGl2e              ",
"              2la&&;2gVVVVVl22222hdGGGa2lGGl2e              ",
"              2la&&:hvVVVVVl22222>dGGGGG2lll2e              ",
"              22aaa<bvVVVVVla222:azGGGGGa2422e              ",
"               e2aaazvVVVVVValm-Nvg22822aaa22               ",
"               e2aaavV2222V222VVVV2222222a22e               ",
"                22aaVV22V222G2VVV22Sw2SS2a22e               ",
"  .             &S22VVV2GGGGG2VV2SS2SSSS222e                ",
"                2SS22VV222G222VV2S9SSSSSS22                 ",
"                2qSSS2aV2222VVaa2S2SSSSSS2e                 ",
"                221SS222VVVVVaa228SSSSSS22e                 ",
"                 22$SSS222aaaaaa22SSSS222e                  ",
"                  e2222&e222222222SSSSD22                   ",
"                    eeee      eee2SS2222                    ",
"                                 22S2ee                     ",
"                                  ee                        ",
"                                                            ",
"                                                            ",
"                      .X                                    ",
"                       3&&&&&2ee%                           ",
"                      ##&eeee222#                           ",
"                       &eeeeee22eee                         ",
" O                    eeeeeeeeee222                       O ",
"                    &&&eeeeeeeee2e2                     O   ",
" B OO               &eeeeeeeeeeee222                   OO B ",
"                    &ee&eeeeeeeee2 2                    B   ",
" G                  &&eeee22222ee222                   B  G ",
"GGGBB                  &&e22eee2222                      GGG",
"GGGBB                      222222                       GGGG",
" G                                                    B   G "
};
