/* XPM */
static char *result[] = {
/* columns rows colors chars-per-pixel */
"120 60 160 2 ",
"   c black",
".  c gray2",
"X  c #090909",
"o  c #1A0208",
"O  c #111111",
"+  c #181618",
"@  c #181818",
"#  c #1B1919",
"$  c #1E1C1E",
"%  c #1E1E1E",
"&  c #232323",
"*  c #272727",
"=  c #292626",
"-  c #292627",
";  c #2A2627",
":  c #2A2727",
">  c #2A2628",
",  c #2A2728",
"<  c #2B2728",
"1  c #2B272B",
"2  c #2C2729",
"3  c #2A2828",
"4  c #2B2828",
"5  c #2B2929",
"6  c #2C2929",
"7  c #2C292A",
"8  c #2D292B",
"9  c #2C2A2A",
"0  c #2D2A2A",
"q  c #2D2A2B",
"w  c #2E2A2B",
"e  c #2E2B2B",
"r  c #2F2C2F",
"t  c #302C2E",
"y  c #312D2F",
"u  c #312E30",
"i  c #312F30",
"p  c #322E30",
"a  c #322F30",
"s  c #332F31",
"d  c #342F32",
"f  c #323031",
"g  c #333031",
"h  c #333131",
"j  c #343032",
"k  c #343132",
"l  c #353133",
"z  c #343232",
"x  c #353233",
"c  c #363234",
"v  c #373335",
"b  c #373435",
"n  c #393537",
"m  c #393637",
"M  c #393439",
"N  c #3A3638",
"B  c #3A373A",
"V  c #3C363A",
"C  c #3C373A",
"Z  c #3A383A",
"A  c #3C383A",
"S  c #3C393C",
"D  c #3D393D",
"F  c #3E393C",
"G  c #3D3A3D",
"H  c #3F3A3D",
"J  c #3F393F",
"K  c #3E3A3E",
"L  c #751128",
"P  c #403C40",
"I  c #403D40",
"U  c #413D41",
"Y  c #413E41",
"T  c #423E42",
"R  c #423F42",
"E  c #433F43",
"W  c #443E44",
"Q  c #443F44",
"!  c #434043",
"~  c #434143",
"^  c gray26",
"/  c #444044",
"(  c #444144",
")  c #454045",
"_  c #454145",
"`  c #444244",
"'  c #444344",
"]  c #454245",
"[  c #454345",
"{  c #464346",
"}  c #474347",
"|  c #464546",
" . c #474447",
".. c #474547",
"X. c #464646",
"o. c #474647",
"O. c #484348",
"+. c #494349",
"@. c #484448",
"#. c #484548",
"$. c #494449",
"%. c #494549",
"&. c #484748",
"*. c #494649",
"=. c #494749",
"-. c #4A444A",
";. c #4A454A",
":. c #4B454B",
">. c #4A464A",
",. c #4A474A",
"<. c #4B474B",
"1. c #4C474C",
"2. c #4A484A",
"3. c #4B484B",
"4. c #4B494B",
"5. c #4C484C",
"6. c #4C494C",
"7. c #4D484D",
"8. c #4D494D",
"9. c #4C4A4C",
"0. c #4D4A4D",
"q. c #4E4B4E",
"w. c #4F4A4F",
"e. c #4F4B4F",
"r. c #4E4C4E",
"t. c #504B50",
"y. c #514B51",
"u. c #524B52",
"i. c #504D50",
"p. c #524D52",
"a. c #534D53",
"s. c #524E52",
"d. c #534F53",
"f. c #544D54",
"g. c #544E54",
"h. c #564F56",
"j. c #565056",
"k. c #565156",
"l. c #575157",
"z. c #595159",
"x. c #585358",
"c. c #5A535A",
"v. c #5B545B",
"b. c #5B555B",
"n. c #5E565E",
"m. c #5E575E",
"M. c #5F585F",
"N. c #615961",
"B. c #625962",
"V. c #625A62",
"C. c #635A63",
"Z. c #645B64",
"A. c #645C64",
"S. c #655C65",
"D. c #655D65",
"F. c #665C66",
"G. c #665D66",
"H. c #810E28",
"J. c #8D0F2C",
"K. c #C7163F",
/* pixels */
"      o                                                                                                                                                                                                                                 K.K.K.K.",
"    o o   H.    o                                                                                                                                                                                                                 .   o   K.K.K.",
"      H.                                                                                                                                                                                                              G.G.    n.    H.      K.  ",
"    H.    K.  H.  o                                                                                                                                                                                               G.G.G.G.G.n.. G.# G.G.L H.J.  ",
"        K.K.K.  H.                                                                                                                                                                                    m.G.G.G.G.G.G.G.G.m.m.G.H G.  G.G.    o   ",
"      K.K.K.K.K.H.                                                                                                                                                                            G.G.m.G.G.m.G.G.G.G.G.m.b.G.m.H G.G.< G.H G..     ",
"    o   K.K.K.                                                                                                                                                              O O           G.G.G.m.m.m.7.G.x.m.G.G.b.d.x.1.7.G.m.< < < G.H       ",
"  H.      K.  o                                                                                                                                                         O O   X O O X G.G.G.G.G.G.1.x.k.1.m.m.m.b.m.,.%.G.7.V.< < < < < H G.    ",
"      H.H.J.                                                                                                                                                          O % @ T 1.V.x.m.V.m.V.G.G.1.V.^ %.m.@.V...r._ ) 7.$.;.@.1.< < < G.G.      ",
"          o   H.H.                                                                                                                                                      U R % 7.1.1.0.p.m.V.V.x.0.,.$.$.$.] @.p.E 2.>.$.;.l %.-.7.< G.n.G.G.    ",
"                                                                                                                                                                      P P a.$.%.;.) k.e.&.t.m.p.[ $.l $.) Y / i ( k g %._ _ $.g l V G.G.G.G.    ",
"                                                                                                                                                                        r $.;.$._ ) $.l 7.s.>.-.k #.%.$.$.l $.k k $.$.%.%.$._ ) 7.C G.H C G.    ",
"                                                                                                                                                                      G.;.;.$.;.$.l $.$.$.$.;.g s.$.< $.w $.g < ) < < g l _ ) v G.G.G.n.G.G.    ",
"                                                                                                                                                                      m.m.;.;.$.l ;.$.< $.g $.) $.< < < $.l < < < < < < l l c m.G., G.H G.n.    ",
"                                                                                                                                                                  + O.7.V.l.;.;.;.$.< < , ) l l < < < < < : < < < < < < : k | $., , < H H G.n.  ",
"                                                                                                                                                              + + S.G.7.-.@.%.;.;.< < < < : l ) ;.< < < ) $., < < < < < $.$.0.< < : < < H G.    ",
"                                                                                                                                                            + M 1 D.n.n.S.v %.$.Y ;.< < : $.l < $.l < g ) w l < < < : _ U @.] 2.: < < < G.H G.. ",
"                                                                                                                                                            1 M.v.G.G.H S.G.a.l =.$.;.< $._ < < : l 8 %.%.l l ; : > s l ;.l @.7.m.< < < < G.H   ",
"                                                                                                                                                          1 M.Z.G.G.H D.D.< b.H %.h z s ;.< < < < < g $.l l , , < : : w w l $.g H < < < < < #   ",
"                                                                                                                                                        + M Z.Z.G.G.G.n.< < < :.x ;.@.! Y l < < < $.$.$.$.Y _ < : < $.) %.;._ @.n.C < < < G.    ",
"                                                                                                                                                        1 Z.Z.G.G.n.G.< < < < < l @.%.g ) %.l < $.Y $.%.l $.l %.< ;.) $.$.%.m.y G.G.G.< G.n.    ",
"                                                                                                                                                      + M.Z.A.G.n.n.n.H < < < %.%.,.$.$.l l g s $.$.%.$.%.l l l < %.l %.) -.A G.G.: H t G..     ",
"                                                                                                                                                      1 Z.Z.G.G.G.y G.G.C.< $.) $.$.$.l ) _ < ) l l a ;.$.%.$.< < < l w %.@.@.7.< < < n.H # #   ",
"                                                                                                                                                    + V.Z.G.G.G.H G.G.: k 8 $.) $.) $.U ) < : , ) g $.$.%.$.< < < < < k $.G.7.< < < < < #       ",
"                                                                                                                                                  + J Z.G.m.n.G.G.G.< < < c.l g l $.) U : : < < , l l $.$.U %.< , < @.&.7.7.n.G.< < < G.        ",
"                                                                                                                                                1 f.N.m.n.m.x.x.G.< < < < < g _ $.g ;.0 U , < : w $.U $.l $.) %.< $./ ,.1.F G.G.G.< G.n.        ",
"                                                                                                                                              W h.B.m.p.p.=.H x.0.p.< < < ;.;.l _ _ w l ;.: < : U g < %.l ) i l 0 %.@./ 1.G.m.H H V G.G.        ",
"                                                                                                                                          1 u.u.S.F.m.*.v #.$.l x.q.,.< %._ l %.;.: ;.l : < < < : : < , %.l l $.) $.l k y.x.b.G.G.n.G.H #       ",
"                                                                                                                                      + M W M F.F.Z.1.c %.$.< @.l g x s k $.$._ : < < < < < < < < : : < < w %.$.< $.l %.} ;.G.m.G.G.G.G.        ",
"                                                                                                                                    + M M Z.F.F.$ x.:.$.$.< < < @.k l ( ..k k < < < : < < < < < < < : < $.$.%.< < < $.l $.>.1.m.G.G.G.          ",
"                                                                                                                                      z.F.F.j.m.G.x.*.$.< < < < < w @.@.< #.i $.< : < < : < < < < $.< $.U $.< < < < < l $.$.-.G.G.G.G.          ",
"                                G.G.G.    G.                                                                                        z.Z.g.b.k.d.w.%.$.) $.< < < $.$.$.< < : ~ k g < < : : s _ < : : s l $./ $.< < < ;.;.$.$.7.G.G.G.            ",
"                              G.G.G.m.m.m.m.G.G.G.G.G.G.    G.  G.                                      O O O   G.  G.G.G.G.G.G.  G.O O m.m.w.:.i.@.l $.) U < l ) $.< < < < < 4 l s ;.< %.a : ; : , , l w l @.$.< %._ ;.;.m.G.G.G.              ",
"                          G.G.G.x.x.m.m.G.G.m.G.G.G.G.G.G.G.G.G.G.        G.G.G.G.G.  G.  G.G.m..   % @ O   X   G.G.G.m.m.G.G.G.G.m.x.x.=.#.%.@.$.$.$.) l q s $.$.U $.< < < $.@.< g w 8 i _ $., < : l $.$.$.l l d $.;.%.;.t.G.                  ",
"                          G.m.d.d.x.>.1.1.1.m.x.m.G.G.G.n.m.m.G.  G.G.G.G.  m.m.m.G.  l.m.m.n.b.m.x.% % ,.7.1.x.@ * b.G.m.G.m.m.G.G.7.7.7.7.) $.$.$.) ) l l ) , 0 0 $.g < $.K < < < _ g l l g ) < l _ ;.) $.;.%.] $.l l G.7.P                   ",
"                          x.q.x.-.$.7.=.p.m.7.G.l.m.n.m.x.G.m.G.G.m.G.G.x.b.m.G.V.l.m.m.x.6.c.,.m V.$.] ,.d.4.m.b.k.x.7.1.d.m.x.G.7.7.7.) $.$.) $.$.$.l $.) < < < l w l p $.< < < , , l l $.l 0 s %.%.;.$.%.x.G.G.V.m.t.;.O.P                   ",
"                        d.s.' @.-.7._ %.$.$.` $.d.0.3.k.N 7.1.p.d.b.m.k.x.x.,.7.[ 3.s.x &.,.b %.7.-.>.=.$.%.$.$._ $.+.s.X.s.7.,.G.l.m.) ) ) l $.$.) l $.) , < : < , g < U g w : < < l $.$.%.l %._ < l w $.) 1.G.G.G.G.G.                        ",
"                      & ..%./ =.%._ ) $.l ) ) ] k k.b ] ) m.X.r.b.&.s.V.$.] ,.m.8.x ^ =.-.k 0.$.< 1.l $.) $.) $.@.%.o.%.$.@.=.[ i.G.$.$.g ) $.l $.$.) ) < : < < : $.< < : @.l %.< l ) $.< $.l $.< < < -.k ;.@.-.G.G.G.G.                        ",
"                    @ ~ I @.x %.%.) l $.$.$.l $.@.k / / < %.l @./ 2.:.S E 1.$.%.g @.@.< $.c $., < < ;.l $.) ) $.l $.%.) ) $._ ) >.x k.g ) l < $.k / ) < : < < < l : < , < < : l 8 $.) < < < @.< < < < < l 7.7.7.                                ",
"              G.G.p.9./ f @.l $.$.g $.$.< g l %.< I f < < < $.g @.P S [ U u P Y U $.: < < ) : < , < < l %.%.l $._ %.) $.$.$.$.l %._ %.>.l < < < ) 9 / g < < , < < Q : < < < < < ) l < < < < , k < < < G.n.G.                                    ",
"            G.G.l.6.} q k $., $.l $.) , < < %.< , , < : < < , l P B B 3 7 ) P P l < < < < < g < < < $.%.%.l _ $.< ) g $.g $.l _ _ , %.w < , , < < 4 k @.@.< < < < < w < < , < < < g ) < < : 7.H G.< G.n.G.G.G.                                  ",
"          G.G.G.m.l @.k $.< < < l l , , < : < < , : < < < < l $.) 7 - Z 5 : e : D G , < : _ U $.: ;.) _ $.) _ < : < l g $.$.;.$.< : < ' n < < < : < l < f 0 < , < l l > $.< < < g $.$. .< -.k H H > G.H G.n.                                    ",
"      G.G.G.G.G.c @.@.< < : < , < 0 ;.: < , ;.< : < $.< < : ) g e e e : : : : u u < < < ;.g 0 l s $.@.%.$.$.: < < < < l < ;.l < : < < < g v < , < $.< < < ) l < l ) : , < l : _ U $.q z g ' G.G.< , < H y G.G.                                  ",
"        G.G.G.G.7.-.< < < < : < < l l ;.: < _ l < _ < < < < : l $.e : : : < < < : - : , < 0 ) @.: @.q m / g ;.< < < l < , < _ l < < < < < l 0 < $.< < < < < w s $.< < < : : 8 $.l $.$.@.) b.A : < < < < H G.                                    ",
"      G.G.G.G.G.7.< < < < < : < _ ;.l l < < < l 0 < < < < < w l ;.< < < < < < < < : : < $.l w < < < ;.l k ;.;.< < < , : < : < l $.< < < < < 0 s g l < < < $.$.) _ l : < < $.) l l l < $.k V.5.G.< < < G.  G.                                    ",
"    G.G.G.G.G.G.} $.< < < l < ;._ $.$.< < < < < 9 $.< < < @.) %.U u < < < < < < < < : $._ c < < < < : k ] ;.< < < < < : < < %.l g s < < < ;.;.g ;.l l < $.) ;.l ;.;.;.< ;.) $.$.$.< < < -.q G.m.G.< G.n.G.                                      ",
"    G.G.G.G.G.c %.$.;.< l g p @.l l { $.< < < k @.$.l < s / $.e e P I , , < < < < l s $.t.7.7.< < < G.l $.) $.< < < l l < $.) l %._ %.< l _ $.;.%.l l s $.%.$.%.;.l l s $.$.;.;.< < < < < l 7.H H V G.G.                                        ",
"      G.G.  G.7.1.c l s $.%.[ @.k q @.$.$.< m.@.-.c N g / $.l l e : = = < < < < u _ / t.e c < < < < < k l $.$.$.< $.g l s $.$.@.@.l l s $.$.;.$.$.$.<.) $.l l ;.$.$.%.) %.l l _ $.< < < ;.;.7.G.G.n.G.H #                                       ",
"      G.G.G.G.7.G.7.-.) =.z k @.-.G.G.A F j ;.a.G.G.G.n.$.l l $.$.%.e : = ; ; 2 $.,.t.7.a.n.H < < < G.>.;.$.l l s $.$.$.) $.l l @.@.$.) $.l l @.$.$.$.$.$.@.;.$.$.$.%.%.$.$.l @.$.$.< $._ G.G.G.G.G.                                            ",
"        G.G.G.G.G.7.7.<.m.7.-.7.G.G.G.G.G.n.G.H H G.G.7.-.7.-.$.$.%.0.@.U h.9 : : 6 c -.c G.G.G.< G.c A ;.$.$.%._ $.l l ;.:.7.7.7.7.$.%.;.$.1.1.;.1.;.@.$.7.@.$.%.%.%.@.@.@.@.@.l l s $.;.m.G.G.G.G.                                            ",
"          G.G.G.G.G.G.m.G.7.7.G.G.G.G.G.G.G.G.G.G.G.G.G.G.7.@.@.%.>.-.@.-.7.7.<.m.G.7.7.G.G.H H V G.7.e.$.$.%.%.%.$.@.%.t.%.-.7.G.G.G.m.m.7.-.7.G.G.G.G.G.7.-.;.=.b.1.@.@.7.m.7.$.$.) %.k l G.G.G.                                              ",
"          G.G.G.G.G.G.G.G.G.G.G.G.G.G.G.G.G.G.G.G.G.G.G.G.G.G.m.x.1.@.@.7.G.G.m.G.7.7.G.G.G.G.G.n.G.l A 7.$.%.;.%.%.7.@.7.-.-.G.G.G.G.G.G.G.G.G.G.G.G.G.G.G.G.m.m.7.-.7.G.G.G.G.G.m.G.1.7.7.7.                                                  ",
"  o           G.G.G.G.G.G.G.G.G.G.G.  G.G.G.G.G.G.G.G.G.G.G.G.G.G.G.G.G.G.G.G.G.G.G.G.G.G.G.G.G.G.G.7.G.;.;.%.V.>.;.;.1.G.7.7.G.G.G.G.G.G.G.G.G.G.G.G.G.G.G.G.G.G.G.G.G.G.G.G.G.G.G.G.G.G.                                                  o   ",
"                  G.G.G.G.G.G.G.G.G.  G.G.  G.G.G.G.G.G.G.G.G.G.G.  G.G.G.G.G.G.G.G.G.G.G.G.G.G.G.G.G.G.7.7.<.G.;.;.G.  G.G.G.G.G.G.      G.G.G.G.G.G.G.G.G.G.G.G.G.G.G.G.G.G.G.G.G.G.G.                                                o       ",
"  H.    o             G.G.G.G.      G.      G.G.G.G.G.G.G.G.G.G.G.G.G.G.  G.G.  G.G.G.G.G.G.G.  G.G.G.G.G.G.m.G.7.7.G.G.G.                            G.G.G.G.G.G.G.G.G.G.  G.G.                                                      o o   H.  ",
"                                                  G.G.G.  G.G.G.G.G.G.                G.G.G.G.G.  G.G.G.G.G.G.    G.                                          G.    G.                                                                  H.      ",
"  K.  H.  o                                         G.  G.      G.G.                      G.G.G.G.G.G.G.                                                                                                                              H.    K.  ",
"K.K.K.  H.                                                                                    G.  G.G.                                                                                                                                    K.K.K.",
"K.K.K.K.H.                                                                                                                                                                                                                              K.K.K.K.",
"K.K.K.                                                                                                                                                                                                                                o   K.K.K."
};
