/* XPM */
static char *result[] = {
/* columns rows colors chars-per-pixel */
"120 60 2 1 ",
"  c #990030",
". c None",
/* pixels */
"..........                                                                                                    ..........",
"..........                                                                                                    ..........",
"..........                                                                                                    ..........",
"..........                                                                                                    ..........",
"..........                                                                                                    ..........",
"..........                                                                                                    ..........",
"..........                                                                                                    ..........",
"..........                                                                                                    ..........",
"..........                                                                                                    ..........",
"..........                                                                                                    ..........",
"..........                                                                                                    ..........",
"..........                                                                                                    ..........",
"..........                                                                                                    ..........",
"..........                                                                                                    ..........",
"..........                                                                                                    ..........",
"..........                                                                                                    ..........",
"..........                                                                                                    ..........",
"..........                                                                                                    ..........",
"..........                                                                                                    ..........",
"..........                                                                                                    ..........",
"..........                                                                                                    ..........",
"..........                                                                                                    ..........",
"..........                                                                                                    ..........",
"..........                                                                                                    ..........",
"..........                                                                                                    ..........",
"..........                                                                                                    ..........",
"..........                                                                                                    ..........",
"..........                                                                                                    ..........",
"..........                                                                                                    ..........",
"..........                                                                                                    ..........",
"..........                                                                                                    ..........",
"..........                                                                                                    ..........",
"..........                                                                                                    ..........",
"..........                                                                                                    ..........",
"..........                                                                                                    ..........",
"..........                                                                                                    ..........",
"..........                                                                                                    ..........",
"..........                                                                                                    ..........",
"..........                                                                                                    ..........",
"..........                                                                                                    ..........",
"..........                                                                                                    ..........",
"..........                                                                                                    ..........",
"..........                                                                                                    ..........",
"..........                                                                                                    ..........",
"..........                                                                                                    ..........",
"..........                                                                                                    ..........",
"..........                                                                                                    ..........",
"..........                                                                                                    ..........",
"..........                                                                                                    ..........",
"..........                                                                                                    ..........",
"..........                                                                                                    ..........",
"..........                                                                                                    ..........",
"..........                                                                                                    ..........",
"..........                                                                                                    ..........",
"..........                                                                                                    ..........",
"..........                                                                                                    ..........",
"..........                                                                                                    ..........",
"..........                                                                                                    ..........",
"..........                                                                                                    ..........",
"..........                                                                                                    .........."
};
