/* XPM */
static char *result[] = {
/* columns rows colors chars-per-pixel */
"120 60 71 1 ",
"  c black",
". c #060606",
"X c #0B0B0B",
"o c gray5",
"O c #130002",
"+ c #1A0108",
"@ c #101010",
"# c #111011",
"$ c #131313",
"% c #141014",
"& c gray8",
"* c gray9",
"= c #1A181A",
"- c gray10",
"; c gray11",
": c #1F1C1C",
"> c gray12",
", c gray13",
"< c #232020",
"1 c #242121",
"2 c #262323",
"3 c #272627",
"4 c #292727",
"5 c #2A2626",
"6 c #2B2727",
"7 c #292829",
"8 c #2B2828",
"9 c #2B2A2A",
"0 c gray17",
"q c #2C2828",
"w c #2C2929",
"e c #2D2929",
"r c #2C2A2A",
"t c #2C2B2B",
"y c #2E2A2A",
"u c #2F2B2B",
"i c #2C282C",
"p c #2C2A2C",
"a c #2D2A2D",
"s c #2D2B2D",
"d c #2E2A2E",
"f c #2E2B2E",
"g c #2F2B2F",
"h c #2D2C2D",
"j c #2F2C2C",
"k c #2E2D2D",
"l c #2F2D2D",
"z c #2E2C2E",
"x c #2E2D2E",
"c c #2F2C2F",
"v c #2F2D2F",
"b c #2F2E2F",
"n c #302B2B",
"m c #302B2C",
"M c #302C2C",
"N c #302D2D",
"B c #302E30",
"V c #332E33",
"C c #323132",
"Z c #333033",
"A c #343034",
"S c #343134",
"D c #353435",
"F c #363536",
"G c #584F58",
"H c #665E5F",
"J c #820623",
"K c #810927",
"L c #8E0628",
"P c #9E0B28",
"I c #C80E3D",
/* pixels */
"   O                                                                                                                IIPI",
"  OO J  O                                                                                                          PPPII",
"   J                                                                                                               PP I ",
"  J  I J O                                                                                                         PPPPP",
"    III J                                                                                                           PPP ",
"   IIIIIJ                                                                                                            P  ",
"  O III                                                                                                                 ",
" J   I O                                                                                                                ",
"   JJL                                                                                                                  ",
"     O JJ                                                                                                               ",
"                                                                                                                        ",
"                                                                                                                        ",
"                                                                                                                        ",
"                                                                                                                        ",
"                                                                                                                        ",
"                                                                                                                        ",
"                                                                                                                        ",
"                                                                                                                        ",
"                                                                                                                        ",
"                                                                                                                        ",
"                                                   XX.                                                                  ",
"                       Xq5ue5u556uuuuu2uuuuuuuuuy6<XX.                                      GGGGGGGGGG                  ",
"                       6n5GGGGGGGGGGGGGGGGGGGGGGGGG6<X.                                  GGGGmmmmmmmmGGGGG              ",
"                       66GGGGGGGGGGGGGGGGGGGGGGGGGGGG<.                                GGGmmmmGGGGGGmmmmmG              ",
"                       5GGGGGGGGGGGGGGGGGGGGGGGGGGGGG5                                GGmmmmGGGGGGGGGGGGmG              ",
"             X     X   8GGGnnnnnnnnnnnnnnnnnnnnnnnGGG:                                GmmmmGGGGGGGGGGGGGmGG             ",
"           X .   X &X 56GGGnnnnnnnnnnnnnnnnnnnnnnnGG.                                 GmmGGGGGGGGGGGGGGGmmGG            ",
"          X@    $-X8X 6   GnnnnnnnnnnnnnnnnnnnnnnnGX.                                 GmGGGGGGGGGGGGGGGGGmmG            ",
"          .rX1  *G&G6 e   GnnnGGGGGGGGGGGGGGGGGGGGGGG:                               GGmGGGGGGGGGGGGGGGGGGmG            ",
"       XXXw4XG 5wGqG656   GnnnGGG      XXGGGGGGGGGGGG:                               GmmGGGGGGGGGGGGGGGGGGmGG           ",
"    X&&XX-4GGGG<GGGGGGG   GnnnGGG        HHH HHH                                    GGmmmmmmmGGGGGGGGGGGGmm%G           ",
"  XX--X5etGGmmGGGjmmmmGGGGGnnnGGG        HHH HHH                                   GGmmGGGGGmmmmmmmmmmmmmmm=G           ",
" X-&rGG8rGGmmmmmnmmmmmmunmmnnnGGG        HHH HHH                                   GmmGGGGGGGGGmmmhhhzzhhsmmG           ",
" X95GG&GGGMjjmmmNmGGGmmunmmnnnGGG                                                  GmGGGGGGGGGmmGmddzzzzhhhmG           ",
" 8u8GGGGmmGGGGGGGGGGGmmnnmnmnnGG:                                                 GGmGGGGGGGGGmGGmhzzzzzhhhmG           ",
" 58GGmmmmGGGGGGGGGGGGGGGGGGnnmGG                                                GGGGmmzzzzzmmmmGGmmazzzzzzmmGG          ",
" 5GGmmGGGGGGGGGGGGGGGGGGGGGnnmGG                                               GGmmmmmmmmmzmGGGGGGmhszzfdsmmmGGG        ",
" XGmmGGGGGGGGGGGGGGGGGGGGGGnmmGG                                              GGmmGGGGGGGmzmGGGGGGmshssshxp=mm G        ",
"GGGmmGGGGGGGGGGGGGGGGGGGGGGmmmGG                                              GmGGGGGGGGGmzmGGGGGGmSFzfvmmmmmm G        ",
"GXGmnGGGGGGGGGGGGGGGGGGGGGGmmGGX                                              GmGGGGGGGGGmzmmGGGGGmmmmmmmGGGmmoG        ",
"G GmnGGGGGGGGGGGGGGGGGGGGGGmmGGX                                             GGmGGGGGGGGGmmzmGGGGmmGGGGGGGGGGm=GG       ",
" 5GmnGGGGGGGGGGGGGGGGGGGGGGmmGGX                                             GmmGGGGGGGGGmmmmGGGmmmGGGGGGGGGGmmmGGG     ",
" 5GGnGGGGGGGGGGGGGGGGGGGGGGmmGGX                                             Gm3mGGGGGGGGGmmmmmmmmmGGGGGGGGGGGGm=oG     ",
" 5GGnGGGGGGGGGGGGGGGGGGGGGGmmGGX                                 GGGGG       GmhmGGGGGGGmmmmmGVSGGmmGGGGGGGGGGGmmmGG    ",
" GGGnnGGGGGGGGGGGGGGGGGGGGGmmGG>                                GGmmmG       GmzsmmGGGmmmssmmmmAGGGmmGGGGGGGGGGGmmmG    ",
" GGGGnnGGGGGGGGGGjmmmmmmmmmmjGG,XXX                             GmmGmGGG     GmdhmmmmmmzhhhzzsmAAGGGmmmmmmmmmmmmmmmG    ",
" GGGGGnnnnnnnmmGnnnnmmmmGGGjjGG;-  XXXHHXHH@X                 GGGmGGmmmG     GmcszzzzhsdzhzzzzmmGGGGGGxzzzzhhzzzsmmG    ",
" GG  GnnnnnnnnnnnnnnnnmmGGGlkGGGGGG&&&HHXHH                  GGmmmmGmGmGG    GmsazzzzhsddzzzzzzmGGGGGGGzzzzhzzzzmm=G    ",
" GG   GGGGGmmmGMGGGGGmmmGGGmmGGGG&&GGGGGGGGGGX@X            GGmGGmGGGGGmG   GGmhizzzzhshaazzzzzmGGGGGGSdddddzzzzzm=G    ",
" GG   GGGGGGGGGGGGGGGmmmGGGmmGGGGGGGGGGGGGG             GGG GmGmGmGGGGmGG   Gmmh#xzzzsdhhsszzzSmGGGGGxzzhhhdzzzzzm=G    ",
" GGG  GGGGGGGGGGGGGGGmm0nnGmmmmmmmmmmmmmmmGGGGG@X       GmG GmmmmmmmmmmG    Gm=zohxzxsxhhssszszmGGGGGxxzhhhaszzzZm=G    ",
" GGG  GGGGGGGXGGGGGGGGGGnummmmmmmmmmmmmmmmmmmGGG        GGG GGGGGGGGGGGG    GmmbbBBbxxhshcvssxsmGGGGGGxzsasasszpsmmG    ",
" O    GGGG  X GGGGGGGG Gn*jmmmmmmGGGGGGGGmmmGGGG                            GGmmmmmmmmmmgZhpsbzmmmGGGC7GmmmmmmmmmmmG  O ",
"      GGGG      GGG  X GGGGmGGGmmGGGGGGGGmmmGG              +                G========mmmmmxDmmmmmmGGGGmm==========GO   ",
" J    GGGG      GGG     GXGnGGGnnnnmmmmmmmmmG@X           +                  GGGGGGGGGGGG=mmmm===mmmmmmm==GG==GGGGGGO J ",
"      GGGG      GGG     G GGGXGGGGGGGGGnGGGGG            ++ K  +                        GGGGGGGGGGGGGGGGGGGGGGG     J   ",
" I J OGGGG      GGG       GGG GG   XXGGGGGGGGGGG          K                                                        J  I ",
"III J GGGGG     GGG         X GG             GGG         K  I K +                                                    III",
"IIIIJ GGGGG     GGGG                                       III K                                                    IIII",
"III                                                       IIIIIK                                                   O III"
};
