/* XPM */
static char *result[] = {
/* columns rows colors chars-per-pixel */
"120 60 52 1 ",
"  c #99002F",
". c #9A002E",
"X c #9A002F",
"o c #990030",
"O c #A5032D",
"+ c #A4032E",
"@ c #AE062B",
"# c #B6082A",
"$ c #BE0A28",
"% c #CA0D25",
"& c #CA0D26",
"* c #D20F25",
"= c #CF1228",
"- c #D61426",
"; c #DE1524",
": c #DC1526",
"> c #DC1626",
", c #E11623",
"< c #E71823",
"1 c #E71923",
"2 c #E21825",
"3 c #E41824",
"4 c #E51824",
"5 c #E41924",
"6 c #E41925",
"7 c #E61924",
"8 c #E71924",
"9 c #E61925",
"0 c #E71A24",
"q c #EB1821",
"w c #E81822",
"e c #E91923",
"r c #EA1B23",
"t c #EB1B23",
"y c #EC1B22",
"u c #ED1B22",
"i c #EC1B23",
"p c #ED1B23",
"a c #EE1B23",
"s c #EB1C23",
"d c #EC1C23",
"f c #ED1C23",
"g c #E81924",
"h c #E91924",
"j c #E91A24",
"k c #E91B24",
"l c #EA1B24",
"z c #EB1B24",
"x c #EC1B24",
"c c #EB1C24",
"v c #EC1C24",
"b c #ED1C24",
/* pixels */
"oooooooooooooooooooooooooooooooooooooooooooooooooooooooooooooooooooooooooooooooooooooooooooooooooooooooooooooooooooooooo",
"oooooooooooooooooooooooooooooooooooooooooooooooooooooooooooooooooooooooooooooooooooooooooooooooooooooooooooooooooooooooo",
"oooooooooooooooooooooooooooooooooooooooooooooooooooooooooooooooooooooooooooooooooooooooooooooooooooooooooooooooooooooooo",
"oooooooooooooooooooooooooooooooooooooooooooooooooooooooooooooooooooooooooooooooooooooooooooooooooooooooooooooooooooooooo",
"oooooooooooooooooooooooooooooooooooooooooooooooooooooooooooooooooooooooooooooooooooooooooooooooooooooooooooooooooooooooo",
"oooooooooooooooooooooooooooooooooooooooooooooooooooooooooooooooooooooooooooooooooooooooooooooooooooooooooooooooooooooooo",
"oooooooooooooooooooooooooooooooooooooooooooooooooooooooooooooooooooooooooooooooooooooooooooooooooo@@@@@@@ooooooooooooooo",
"ooooooooooooooooooooooooooooooooooooooooooooooooooooooooooooooooooooooooooooooooooooooooooooooo+$$@@@@@oo+@@@@oooooooooo",
"ooooooooooooooooooooooooooooooooooooooooooooooooooooooooooooooooooooooooooooooooooooooooooo@@#$$$$000j111$$$oo@@oooooooo",
"ooooooooooooooooooooooooooooooooooooooooooooooooooooooooooooooooooooooooooooooooooooooooo@$$##$-zz34425#$>0671@@$ooooooo",
"oooooooooooooooooooooooooooooooooooooooooooooooooooooooooooooooooooooooooooooooooooooooo$*$06jpp44bbbbuuupp1&@52@@@ooooo",
"ooooooooooooooooooooooooooooooooooooooooooooooooooooooooooooooooooooooooooooooooooooooo$&4zzj44bbbbpuubbbbbbbpj41@o@oooo",
"oooooooooooooooooooooooooooooooooooooooooooooooooooooooooooooooooooooooooooooooooooooo$$pd2bubbuuuubbbbbbbbbbbbbd2@$oooo",
"ooooooooooooooooooooooooooooooooooooooooooooooooooooooooooooooooooooooooooooooooooooo$$pzobubbuubbbbbbbbbbbbbbbbb2z@@ooo",
"oooooooooooooooooooooooooooooooooooooooooooooooooooooooooooooooooooooooooooooooooooo@&a22buububbbbbbuuuuuuubbbbbbbz6@ooo",
"oooooooooooooooooooooooooooooooooooooooooooooooooooooooooooooooooooooooooooooooooooo$p42bbububbbbpuuppppxbbpuuuubbbc@ooo",
"ooooooooooooooooooooooooooooooooooooooooooooooooooooooooooooooooooooooooooooooooooo@wz4bbubuuuuua7@@6ccdddffipbbuubz@ooo",
"ooooooooooooooooooooooooooooooooooooooooooooooooooooooooooooooooooooooooooooooooooo@a@bbbubuua7+@-jz2oooo+@-ddffbbuz@ooo",
"ooooooooooooooooooooooooooooooooooooooooooooooooooooooooooooooooooooooooooooooooooow4ubbbuud@6czz2ooooooooo$c1uufbfcoooo",
"oooooooooooooooooooooooooooooooooooooooooooooooooooooooooooooooooooooooooooooooooo@wxubbubj@2z2ooooooooooo@$d4bbubfcoooo",
"oooooooooooooooooooooooooooooooooooooooooooooooooooooooooooooooooooooooooooooooooo@ybubbus$22ooooooooo  oX#c6ubbubd2oooo",
"oooooooooooooooooooooooooooooooooooooooooooooooooooooooooooooooooooooooooooooooooo4abubbup22oooooooo  o  O96kbbbubx2oooo",
"oooooooooooooooooooooooooooooooooooooooooooooooooooooooooooooooooooooooooooooooooopeubbbupz2ooooooo  oX.X$l2ubbbu122oooo",
"ooooooooooooooooooooooooooooooooooooooooooooooooooooooooooooooooooooooooooooooooooauubbbp42ooooooooooooo#-6fbbbpp@22oooo",
"ooooooooooooooooooooooooooooooooooooooooooooooooooooooooooooooooooooooooooooooooo@abubbud4ooooooooooooo+#ckbbbbu122ooooo",
"ooooooooooooooooooooooooooooooooooooooooooooooooooooooooooooooooooooooooooooooooo4abuubud4ooooooooooo@@&z2ubbbpro22ooooo",
"ooooooooooooooooooooooooooooooooooooooooooooooooooooooooooooooooooooooooooooooooopeububuy2ooooooooo@$$$-2zbbbpu422oooooo",
"ooooooooooooooooooooooooooooooooooooooooooooooooooooooooooooooooooooooooooooooooopeububuaooooooooo$%$w4dkubbbu722ooooooo",
"ooooooooooooooooooooooooooooooooooooooooooooooooooooooooooooooooooooooooooooooooozuubbudwoooooooo@$6zzz@fbbbpr@22ooooooo",
"oooooooooooooooooooooooooooooooooooooooooooooooooooooooooooooooooooooooooooooooooxuuubudw@oooooooozz2bbfbbbbu4==oooooooo",
"oooooooooooooooooooooooooooooooooooooooooooooooooooooooooooooooooooooooooooooooo2@buubbyz$ooooooo22obbbubbbp<o22oooooooo",
"oooooooooooooooooooooooooooooooooooooooooooooooooooooooooooooooooooooooooooooooo2@buuubby&ooooooooobbbfbbbp4@22ooooooooo",
"oooooooooooooooooooooooooooooooooooooooooooooooooooooooooooooooooooooooooooooooo2@4buuuudo&@oooooouuufbbbb8@==oooooooooo",
"oooooooooooooooooooooooooooooooooooooooooooooooooooooooooooooooooooooooooooooooo224bbuuuyp@$$oooo66bbbbbbg$o22oooooooooo",
"ooooooooooooooooooooooooooooooooooooooooooooooooooooooooooooooooooooooooooooooooo24zbbbuuy46@@@o22o2bfds7@o22ooooooooooo",
"ooooooooooooooooooooooooooooooooooooooooooooooooooooooooooooooooooooooooooooooooo2o4bbbbuuaz1$@@oo2zve@4pzz2oooooooooooo",
"oooooooooooooooooooooooooooooooooooooooooooooooooooooooooooooooooooooooooooooooooo242bbbbuuud4$$oooo@@2z2ooooooooooooooo",
"oooooooooooooooooooooooooooooooooooooooooooooooooooooooooooooooooooooooooooooooooo2o46bbbuuuudp$$ooooooooooooooooooooooo",
"ooooooooooooooooooooooooooooooooooooooooooooooooooooooooooooooooooooooooooooooooooo224ebbbuuuuy2$@oooooooooooooooooooooo",
"oooooooooooooooooooooooooooooooooooooooooooooooooooooooooooooooooooooooooooooooooooo2z6eubbuuubd@$oooooooooooooooooooooo",
"oooooooooooooooooooooooooooooooooooooooooooooooooooooooooooooooooooooooooooooooooooooozdaauuubbdp$@ooooooooooooooooooooo",
"ooooooooooooooooooooooooooooooooooooooooooooooooooooooooooooooooooooooooooooooooooooooo2pauubbbuy2@ooooooooooooooooooooo",
"ooooooooooooo+@@@@@@@@+@@@@+@@@+@@+@+@@@+++@+@+@@+@+@+@+@+@+@@@++@@@+@@@+@+@@+@@+@+@@@$$wqybbbuubp@ooooooooooooooooooooo",
"ooooooooooo+@@@@@@@@+@@@@+@@@+@@+@+@@@+++@+@+@@+@+@+@+@+@+@@@++@@@+@@@+@+@@+@@+@+@@@@$$$tdduuuubupoooooooooooooooooooooo",
"oooooooooo+#$>00jjjhhj,jh8j,hhj;hh:j,817;;;8:j;8h:h;8;8;8;j,818,,h8j,hh8;j;8j:hh:j,jj7pppypbbbbuu2oooooooooooooooooooooo",
"ooooooooooo=22222222=2222=222=22=2=222===2=2=22=2=2=2=2=2=222==222=222=2=22=22=2=2222z22bbbbuuuuxooooooooooooooooooooooo",
"oooooooooo=22bbbbpuuuuuuuupuuuupuuupuupupuuupppupupuupupupupupupuuuppuuupuuupupuupuupupuuuuubbbxp2oooooooooooooooooooooo",
"oooooooooooobbbbbbbbbbbbbbbbbbbbbbbbbbbbbbbbbbbbbbbbbbbbbbbbbbbbbbbbbbbbbbbbbbbbbbbbbbbbbbbbbbd@22oooooooooooooooooooooo",
"ooooooooooobbbbbbbbbbbbbbbbbbbbbbbbbbbbbbbbbbbbbbbbbbbbbbbbbbbbbbbbbbbbbbbbbbbbbbbbbbbbbbbbbbe$2z2oooooooooooooooooooooo",
"oooooooooo+@bbbbbbbbbbbbbbbbbbbbbbbbbbbbbbbbbbbbbbbbbbbbbbbbbbbbbbbbbbbbbbbbbbbbbbbbbbbbbbuue$2z2ooooooooooooooooooooooo",
"ooooooooo=222bbpuuuuuuuupuuuupuuupuupupuuupppupupuupupupupupupuuuppuuupuuupupuupuupupuuuuuxg@2z2oooooooooooooooooooooooo",
"ooooooooooo=jpppppppppppppppppppppxppppxjxxpxppppxpxpxpxpxppppxxppppppppxpppppppxpppppx7@@6czz2ooooooooooooooooooooooooo",
"ooooooooooooo+@-kccccccckkccckkcckkckkkkcck65kkkkkckkkkkkkkkkkkcck6kcckkcckkkkckkckkkkcczz2ooooooooooooooooooooooooooooo",
"oooooooooooooooooooooooooooooooooooooooooooooooooooooooooooooooooooooooooooooooooooooooooooooooooooooooooooooooooooooooo",
"oooooooooooooooooooooooooooooooooooooooooooooooooooooooooooooooooooooooooooooooooooooooooooooooooooooooooooooooooooooooo",
"oooooooooooooooooooooooooooooooooooooooooooooooooooooooooooooooooooooooooooooooooooooooooooooooooooooooooooooooooooooooo",
"oooooooooooooooooooooooooooooooooooooooooooooooooooooooooooooooooooooooooooooooooooooooooooooooooooooooooooooooooooooooo",
"oooooooooooooooooooooooooooooooooooooooooooooooooooooooooooooooooooooooooooooooooooooooooooooooooooooooooooooooooooooooo",
"oooooooooooooooooooooooooooooooooooooooooooooooooooooooooooooooooooooooooooooooooooooooooooooooooooooooooooooooooooooooo",
"oooooooooooooooooooooooooooooooooooooooooooooooooooooooooooooooooooooooooooooooooooooooooooooooooooooooooooooooooooooooo"
};
