/* XPM */
static char *result[] = {
/* columns rows colors chars-per-pixel */
"60 60 66 1 ",
"  c black",
". c #0C0A0C",
"X c #161316",
"o c #272227",
"O c #2E2B2E",
"+ c #2F2C2F",
"@ c #302A30",
"# c #302B30",
"$ c #302C30",
"% c #302D30",
"& c #312C31",
"* c #312D31",
"= c #312E31",
"- c #322D32",
"; c #322E32",
": c #332E33",
"> c #332F33",
", c #342D34",
"< c #353035",
"1 c #393239",
"2 c #383438",
"3 c #3D343D",
"4 c #3D353D",
"5 c #3E353E",
"6 c #413941",
"7 c #413A41",
"8 c #423B42",
"9 c #443E44",
"0 c #453F45",
"q c #463F46",
"w c #473E47",
"e c #473F47",
"r c #464046",
"t c #464146",
"y c #474047",
"u c #474147",
"i c #484048",
"p c #484148",
"a c #494149",
"s c #484248",
"d c #484348",
"f c #494349",
"g c #4C444C",
"h c #4E464E",
"j c #4F464F",
"k c #514851",
"l c #514951",
"z c #524852",
"x c #534B53",
"c c #544A54",
"v c #554B55",
"b c #564A56",
"n c #574B57",
"m c #544C54",
"M c #554C55",
"N c #564D56",
"B c #594A59",
"V c #584F58",
"C c #594F59",
"Z c #595059",
"A c #595159",
"S c #5A505A",
"D c #5A515A",
"F c #99002C",
"G c #9A002C",
"H c None",
/* pixels */
"GGGG                                                    GGGG",
"GG                                                     H GGG",
"G H                                                   G   G ",
"F                                                       GGF ",
"H GG                                                      H ",
"                                                            ",
"                     XXXXXXX                                ",
"                   ooXXXXX  XXX                             ",
"                 o,oocccbcccoXoX                            ",
"               X,,XVVhllhzooczhooo       XXX                ",
"              o5oVZhlZZZZZZZZbcc oX    XoX X                ",
"             o,xZV ZZZZZZZZZZZZCZl,oX oo,czzXXX             ",
"            X,ZZhZZZZZZmZZmmmmZZCZXooXohZbXl  X             ",
"            oZZhZZZZmkmZmkkmZmmZZZZZo5ZbCZZZhcoX            ",
"           XMZlZZZmmhmZihhpsdsmkmZZZCMv5ZZZZZChX            ",
"        X  XZhZZZmhhpusgpuuskpfZkkmmmmkmZZZZZZCX            ",
"      X o  lZZZZZkisuXmuuuuuuupukkkmkmmZZZZZZZC             ",
"     X, c  zCZZZmwuruuyu777uuuuuuyyrupusmkmZZZh             ",
"     on ZX CZZZZmupuuu437u7777uuuufpufdZZmZZZc              ",
"     cZXZolbZZZZiuuu7114$--47477uuuuuuuuupkmZCh             ",
"     ZZZZZZZZmZmwpu414%#$1+$-%7747uuuuuuuudZZbz             ",
"     CZZZZZmBmZmyy61=%%>%%##+%%-7447uuuuuusZZCbX            ",
"     CZZZZmkZfkwey4%%>%%%%%%%#OO++747uuuuuhZZZooX           ",
"    hxZZZZmsmijeq6;%>%%%%%%%#@@@##;;777uuummZZZXoX          ",
"    VoZZZZfskuuuy0%u%###%%%@@@%%%###447uuuukkmZVXo          ",
"    VoZZZZfZuuuuu>u#%%%###@@@%%%##%%%;77uuukZZZZCoX         ",
"    VzZZZZZuuuuuuu;%%%%%%#@##%%##%####-7uuuudkmZZhX         ",
"    hVZZZZmuuuuuu>%%%%%#=#@%#%%#%##%%%%uuuuuufZZZCX         ",
"     zZZZfmZuuuuu;u%%%$4>#@;$%%###%%%%>uuuuuufZZZC          ",
"     cZZZfZsuuuu>uu>%$4>%#&%%%%##%%%%7uuuuuuZZZZZh          ",
"    XCZZZZfufuuuuu>>-7u>>:$%%%%$####-7uuuuukmZZZC           ",
"     ZZZZZZZfuuuuuuu7u>>u%%%%%%%@$$$%%>uuutZZZZzCh          ",
"    hZZZZZZZCZmsuuuuuuuu>%%%%%%**%%%%%>uuuuuufvXhh          ",
"     CZZZZZZSSZZfluuuuuu>7%%%%%%%>uuuuuuuuufZnXhVh          ",
"    hZZZZZZZZZZZfMsuuuuu>7%%%%%%>uuuuuuumffZZ,hVh           ",
"    zoZZZZZZZZA8ffuuuuuu>9>%%%->uuuuuuukdufZZCh             ",
"   hVXzZZZZZZZZZSDfuuuuu2u>>%u:>uuuuuutZffZZZzX             ",
"    hVZZZZZZZZZZDDZZmmuuuu22<u>>uuuuuiauufZZZhX             ",
"     hVZZZZZZZZZZDZZZuuuuuuu9u22uuuuifufZZZZZC              ",
"      hVZZZZZZX.ZZZZsiuuuuuuuuuuuuuidufcZZZZZz              ",
"        hZZZZN  AZZfuZsuuuuuuuuuuutmffZZZZZZZ               ",
"          XXzCVZ8ZZZZuuuuuuuuuuuutkfufZZZZZZC               ",
"               hXhZZZZZduuuuuuuuimfufZZZZZZCVh              ",
"               h lZZZZZZZmmsuuuuuuufZZZZZZoXhh              ",
"                hlVZZZZZZZZZZZZZZZZZZZZZZvXhh               ",
"                h CZZZZZZZZZZZZZZZZZZZZZxXhVh               ",
"                 hCCZZZZZZZZZZZZZZZZ XXlZVVh                ",
"                 hhVZZZZZZZZZZZZZZZoX                       ",
"                   hVZZZZZZZZZZZZZZVh                       ",
"                     XXlZZZZZZZZZZZZZh                      ",
"                                                            ",
"                                                            ",
"                                                            ",
"                                                          H ",
"                                                        H   ",
"  H                                                    HH G ",
"                                                        G   ",
" G H                                                   G  G ",
"GHG                                                      GGG",
"GGG                                                     GGGG"
};
