/* XPM */
static char *result[] = {
/* columns rows colors chars-per-pixel */
"60 60 66 1 ",
"  c black",
". c #040304",
"X c #0E0B0E",
"o c #221C22",
"O c #2A272A",
"+ c #2C252C",
"@ c #2C272C",
"# c #2B282B",
"$ c #2C282C",
"% c #2C292C",
"& c #2D282D",
"* c #2D292D",
"= c #2D2A2D",
"- c #2E292E",
"; c #2E2A2E",
": c #312931",
"> c #302A30",
", c #302B30",
"< c #322C32",
"1 c #362E36",
"2 c #353135",
"3 c #3A313A",
"4 c #3A323A",
"5 c #3C323C",
"6 c #3F363F",
"7 c #3F373F",
"8 c #403840",
"9 c #423C42",
"0 c #433D43",
"q c #443D44",
"w c #453C45",
"e c #453D45",
"r c #443E44",
"t c #443F44",
"y c #453E45",
"u c #453F45",
"i c #463E46",
"p c #463F46",
"a c #473F47",
"s c #464046",
"d c #464146",
"f c #474147",
"g c #4B424B",
"h c #4D444D",
"j c #4E444E",
"k c #504650",
"l c #504750",
"z c #514651",
"x c #534953",
"c c #524A52",
"v c #534B53",
"b c #554955",
"n c #544A54",
"m c #544B54",
"M c #564A56",
"N c #554C55",
"B c #574E57",
"V c #584958",
"C c #584E58",
"Z c #584F58",
"A c #5A4F5A",
"S c #585058",
"D c #5A505A",
"F c #9A0028",
"G c #9B0028",
"H c None",
/* pixels */
"GGGG                                                    GGGG",
"GG                                                     H GGG",
"G H                                                   G   G ",
"F                                                       GGF ",
"H GG                                                      H ",
"                                                            ",
"                   ZZZZZZZZZZZ                              ",
"                ZZZZ%%%%%%%%%ZZZZZ                          ",
"               ZZ%%%%xxxbxxx%%%%%Z                          ",
"             ZZZ%%XBBhllhzooxzho%ZZZ   ZZZZZZ               ",
"            ZZ%%%BZhlZZZZZZZZbxx%%%Z ZZZ%%%%Z               ",
"           ZZ%%cZB ZZZZZZZZZZZZCZl%ZZZ%%%xz%ZZZZ            ",
"          ZZ%%ZZhZZZZZZvZZvvvvZZCZ%%%%%hZbX%%%%ZZZ          ",
"          Z%%ZZhZZZZvkvZvkkvZvvZZZZZ%5ZbCZZZhx%%%Z          ",
"         ZZ%mZlZZZvvhvZihhpsdsvkvZZZCmn5ZZZZZCh%%Z          ",
"      ZZZZ%%ZhZZZvhhpusgpuuskpfZkkvvvvkvZZZZZZC%ZZ          ",
"    ZZZ%%%%lZZZZZkisuXvuuuuuuupukkkvkvvZZZZZZZC%Z           ",
"   ZZ%%%x%%zCZZZvwuruuyu777uuuuuuyyrupusvkvZZZh%Z           ",
"   Z%%M%Z%%CZZZZvupuuu437u7777uuuufpufdZZvZZZx%%Z           ",
"   Z%xZ%ZolbZZZZiuuu7114$--47477uuuuuuuuupkvZCh%Z           ",
"   Z%ZZZZZZZZvZvwpu414%@$1#$-%7747uuuuuuuudZZbz%Z           ",
"  ZZ%CZZZZZvVvZvyy61=%%,%%@@#%%-7447uuuuuusZZCb%Z           ",
"  Z%%CZZZZvkZfkwey4%%,%%%%%%%@OO##747uuuuuhZZZ%%ZZ          ",
"  Z%hcZZZZvsvijeq6;%,%%%%%%%@+++@@;;777uuuvvZZZ%%ZZ         ",
"  Z%BoZZZZfskuuuy0%u%@@@%%%+++%%%@@@447uuuukkvZB%%ZZ        ",
"  Z%BoZZZZfZuuuuu,u@%%%@@@+++%%%@@%%%;77uuukZZZZC%%Z        ",
"  Z%BzZZZZZuuuuuuu;%%%%%%@+@@%%@@%@@@@-7uuuudkvZZh%ZH       ",
"  Z%hBZZZZvuuuuuu,%%%%%@=@+%@%%@%@@%%%%uuuuuufZZZC%ZH       ",
"  Z%%zZZZfvZuuuuu;u%%%$4,@+;$%%@@@%%%%,uuuuuufZZZC%ZH       ",
"  ZZ%xZZZfZsuuuu,uu,%$4,%@&%%%%@@%%%%7uuuuuuZZZZZh%Z        ",
"  ZZ%CZZZZfufuuuuu,,-7u,,>$%%%%$@@@@-7uuuuukvZZZC%%Z        ",
"  Z%%ZZZZZZZfuuuuuuu7u,,u%%%%%%%+$$$%%,uuutZZZZzCh%Z        ",
"  Z%hZZZZZZZCZvsuuuuuuuu,%%%%%%**%%%%%,uuuuuufnXhh%Z        ",
"  Z%%CZZZZZZAAZZfluuuuuu,7%%%%%%%,uuuuuuuuufZMXhBh%Z        ",
" ZZ%hZZZZZZZZZZZfmsuuuuu,7%%%%%%,uuuuuuuvffZZ:hBh%%Z        ",
" Z%%zoZZZZZZZZS8ffuuuuuu,9,%%%-,uuuuuuukdufZZCh%%%ZZ        ",
" Z%hBXzZZZZZZZZZADfuuuuu2u,,%u>,uuuuuutZffZZZz%%ZZZ         ",
" Z%%hBZZZZZZZZZZDDZZvvuuuu22<u,,uuuuuiauufZZZh%ZZ           ",
" ZZ%%hBZZZZZZZZZZDZZZuuuuuuu9u22uuuuifufZZZZZC%Z            ",
"  ZZ%%hBZZZZZZX.ZZZZsiuuuuuuuuuuuuuidufxZZZZZz%Z            ",
"   ZZ%%%hZZZZN  SZZfuZsuuuuuuuuuuutvffZZZZZZZ%%Z            ",
"    ZZZ%%%%%zCBZ8ZZZZuuuuuuuuuuuutkfufZZZZZZC%%Z            ",
"      ZZZZZ%%%%hXhZZZZZduuuuuuuuivfufZZZZZZCBh%Z            ",
"          ZZZZ%h lZZZZZZZvvsuuuuuuufZZZZZZoXhh%Z            ",
"             Z%%hlBZZZZZZZZZZZZZZZZZZZZZZnXhh%%Z            ",
"             ZZ%h CZZZZZZZZZZZZZZZZZZZZZcXhBh%ZZ            ",
"              Z%%hCCZZZZZZZZZZZZZZZZ%%%lZBBh%%Z             ",
"              ZZ%hhBZZZZZZZZZZZZZZZo%%%%%%%%%ZZ             ",
"               Z%%%hBZZZZZZZZZZZZZZBh%%ZZZZZZZ  H           ",
"               ZZZ%%%%%lZZZZZZZZZZZZZh%Z HH                 ",
"                 ZZZZZ%%%%%%%%%%%%%%%%%Z                    ",
"                     ZZZZZZZZZZZZZZZZZZZ                    ",
"                                                            ",
"                                                          H ",
"                                                        H   ",
"  H                                                    HH G ",
"                                                        G   ",
" G H                                                   G  G ",
"GHG                                                      GGG",
"GGG                                                     GGGG"
};
